<svg xmlns="http://www.w3.org/2000/svg" xmlns:xlink="http://www.w3.org/1999/xlink" viewBox="0 0 878 878"><defs><style>.cls-1{fill:url(#Dégradé_sans_nom_281);}.cls-2{fill:none;stroke:#fff;stroke-linecap:round;stroke-miterlimit:10;stroke-width:42px;}</style><linearGradient id="Dégradé_sans_nom_281" x1="515.24" y1="871.4" x2="362.76" y2="6.6" gradientUnits="userSpaceOnUse"><stop offset="0" stop-color="#6bcfbe"/><stop offset="1" stop-color="#04aeb2"/></linearGradient></defs><g id="cercle"><circle class="cls-1" cx="439" cy="439" r="439"/></g><g id="Calque_3" data-name="Calque 3"><circle class="cls-2" cx="437.5" cy="396.5" r="79"/><path class="cls-2" d="M364,696c0-88.37,60.44-160,135-160s135,71.63,135,160" transform="translate(-61 -61)"/><circle class="cls-2" cx="640.5" cy="316.5" r="79"/><path class="cls-2" d="M578.2,552.09C599,495.54,646.61,456,702,456c74.56,0,135,71.63,135,160" transform="translate(-61 -61)"/><circle class="cls-2" cx="234.5" cy="316.5" r="79"/><path class="cls-2" d="M161,616c0-88.37,60.44-160,135-160,56.88,0,105.55,41.7,125.43,100.71" transform="translate(-61 -61)"/></g></svg>