<?xml version="1.0" encoding="utf-8"?>
<!-- Generator: Adobe Illustrator 25.2.1, SVG Export Plug-In . SVG Version: 6.00 Build 0)  -->
<svg version="1.1" id="Calque_1" xmlns="http://www.w3.org/2000/svg" xmlns:xlink="http://www.w3.org/1999/xlink" x="0px" y="0px"
	 viewBox="0 0 500 500" style="enable-background:new 0 0 500 500;" xml:space="preserve">
<style type="text/css">
	.st0{fill:#878888;}
	.st1{fill:#CDCCCC;}
	.st2{fill:#333333;}
</style>
<path class="st0" d="M123.29,150.58l-83.47-21.29c-23.94-6.1-45.43,16.14-38.5,39.85l76.67,262.38
	c6.87,23.51,36.58,30.83,53.58,13.19l61.22-63.51L123.29,150.58z"/>
<polygon class="st1" points="192.79,381.21 357.52,210.32 123.29,150.58 "/>
<path class="st2" d="M106.12,96.83l16.16,53.49l180.84,46.12c24.26,6.19,32.81,36.26,15.44,54.29L192.21,381.81l16.65,55.13
	c7.83,25.91,41,33.26,59.04,13.08l222.46-248.81c17.1-19.13,8.23-49.56-16.47-56.49l-325.2-91.31
	C122.34,46.03,98.21,70.63,106.12,96.83z"/>
</svg>
