<?xml version="1.0" encoding="utf-8"?>
<!-- Generator: Adobe Illustrator 25.2.1, SVG Export Plug-In . SVG Version: 6.00 Build 0)  -->
<svg version="1.1" id="Calque_1" xmlns="http://www.w3.org/2000/svg" xmlns:xlink="http://www.w3.org/1999/xlink" x="0px" y="0px"
	 viewBox="0 0 500 500" style="enable-background:new 0 0 500 500;" xml:space="preserve">
<style type="text/css">
	.st0{fill:url(#SVGID_1_);}
	.st1{fill:url(#SVGID_2_);}
</style>
<linearGradient id="SVGID_1_" gradientUnits="userSpaceOnUse" x1="35.5194" y1="242.9803" x2="334.3207" y2="242.9803" gradientTransform="matrix(0.9599 -0.2805 0.2805 0.9599 -62.592 77.0723)">
	<stop  offset="0" style="stop-color:#D13A16"/>
	<stop  offset="0.0999" style="stop-color:#D13F16;stop-opacity:0.9501"/>
	<stop  offset="0.6711" style="stop-color:#D55A14;stop-opacity:0.6644"/>
	<stop  offset="1" style="stop-color:#D66213;stop-opacity:0.5"/>
</linearGradient>
<path class="st0" d="M319.45,249.81L131.57,444.72c-17,17.64-46.71,10.32-53.58-13.19L1.32,169.15
	c-6.93-23.71,14.56-45.96,38.5-39.85l264.55,67.47C328.08,202.81,336.43,232.19,319.45,249.81z"/>
<linearGradient id="SVGID_2_" gradientUnits="userSpaceOnUse" x1="158.0406" y1="243.66" x2="512.2866" y2="243.66" gradientTransform="matrix(0.9573 -0.2892 0.2892 0.9573 -64.2562 79.3364)">
	<stop  offset="0" style="stop-color:#28A6A4;stop-opacity:0.5"/>
	<stop  offset="0.1177" style="stop-color:#26A8A6;stop-opacity:0.5589"/>
	<stop  offset="1" style="stop-color:#09AEB2"/>
</linearGradient>
<path class="st1" d="M106.12,96.83l102.74,340.11c7.83,25.91,41,33.26,59.04,13.08l222.46-248.81c17.1-19.13,8.23-49.56-16.47-56.49
	l-325.2-91.31C122.34,46.03,98.21,70.63,106.12,96.83z"/>
</svg>
