<svg id="Calque_1" data-name="Calque 1" xmlns="http://www.w3.org/2000/svg" viewBox="0 0 422 435.79"><defs><style>.cls-1,.cls-2{fill:none;stroke-linecap:round;stroke-miterlimit:10;stroke-width:26px;}.cls-1{stroke:#ed7933;}.cls-2{stroke:#50a9ae;}.cls-3{fill:#ed7933;}.cls-4{fill:#50a9ae;}</style></defs><path class="cls-1" d="M249.26,199.27,394,446.92a28.94,28.94,0,0,0,39.53,10.59h0A28.94,28.94,0,0,0,444.12,418L249.37,85.36" transform="translate(-39 -38.61)"/><path class="cls-2" d="M94.16,351.68,55.88,418a28.94,28.94,0,0,0,10.59,39.53h0A28.94,28.94,0,0,0,106,446.92L249.38,198.59" transform="translate(-39 -38.61)"/><polygon class="cls-3" points="179.42 0 183.11 63.69 236.42 28.64 179.42 0 183.11 63.69 236.42 28.64 179.42 0"/><polygon class="cls-4" points="82.95 264.9 27.62 296.65 82.78 328.69 82.95 264.9 27.62 296.65 82.78 328.69 82.95 264.9"/></svg>