<?xml version="1.0" encoding="utf-8"?>
<!-- Generator: Adobe Illustrator 25.2.1, SVG Export Plug-In . SVG Version: 6.00 Build 0)  -->
<svg version="1.1" id="Calque_1" xmlns="http://www.w3.org/2000/svg" xmlns:xlink="http://www.w3.org/1999/xlink" x="0px" y="0px"
	 viewBox="0 0 200 200" style="enable-background:new 0 0 200 200;" xml:space="preserve">
<style type="text/css">
	.st0{fill:none;}
	.st1{fill:#575756;stroke:#000000;stroke-width:4;stroke-linecap:round;stroke-linejoin:round;stroke-miterlimit:10;}
	.st2{fill:#61C855;stroke:#000000;stroke-width:4;stroke-linecap:round;stroke-linejoin:round;stroke-miterlimit:10;}
</style>
<rect x="-2" y="-3.4" class="st0" width="203.9" height="203"/>
<path class="st1" d="M100.8,160.6c-22.1,0-32.9-16.5-32.9-32.1H31.5c0,3.3,0,6.5,0,9.8c0.1,2,1.7,3.5,3.7,3.6H46
	c2.1,0,2.8,0.5,3.6,2.5c1.4,3.2,2.7,6.5,4.2,9.6c0.8,1.8,0.7,3-0.7,4.4c-2.4,2.3-4.7,4.6-7.1,6.8c-1.3,1-1.5,2.8-0.5,4.1
	c0.1,0.2,0.3,0.3,0.4,0.4c4.2,4.2,8.4,8.4,12.7,12.6c1.1,1.3,3,1.4,4.2,0.3c0.1-0.1,0.3-0.3,0.4-0.4c2-2.2,4.1-4.3,6.1-6.5
	c1.5-1.6,2.6-1.8,4.6-0.8c4,1.8,8,3.6,12,5.4c1.5,0.4,2.5,1.9,2.4,3.4c0,3.7,0,7.4,0,11.2c0.1,1.8,1.5,3.2,3.3,3.3
	c6.6,0,13.2,0,19.8,0c2,0,3.6-1.7,3.6-3.7v-10.8c-0.1-1.5,0.8-2.8,2.2-3.2c4.1-1.8,8.2-3.6,12.3-5.5c1.4-0.8,3.2-0.5,4.2,0.7
	c2.1,2.2,4.2,4.3,6.2,6.5c1.1,1.3,2.9,1.4,4.2,0.3c0.1-0.1,0.2-0.2,0.3-0.3c4.2-4.2,8.3-8.3,12.5-12.5c1.6-1.6,1.6-3.3-0.1-4.9
	c-2.2-2-4.4-4.1-6.6-6.1c-1.3-1-1.6-2.8-0.8-4.2c1.5-3.4,3-6.8,4.5-10.3c0.8-1.8,1.5-2.4,3.5-2.4c2.6,0,5.1,0,7.7,0
	c2.3,0,3.5-1.1,3.5-3.5v-9.9h-35.7C132.6,143.4,122.9,160.6,100.8,160.6z"/>
<path class="st1" d="M100.7,150.7c11.9-0.4,22.7-9.1,22.7-22.2H77C77,141.2,87.7,150.7,100.7,150.7z"/>
<path class="st2" d="M33.6,61.7v58.8h12.7v-16.6h11.8v16.6h12.9V61.7H33.6z M47.8,92.3H40v-7.8h7.9V92.3z M47.8,77.7H40v-7.9h7.9
	V77.7z M64.7,92.3h-7.9v-7.8h7.9L64.7,92.3z M64.7,77.7h-7.9v-7.9h7.9L64.7,77.7z"/>
<path class="st2" d="M81.5,32.4v88.1h12.8v-16.6h11.8v16.6h12.7V32.4H81.5z M104.4,40.6h7.9v7.8h-7.9V40.6z M87.6,40.6h7.9v7.8h-7.9
	V40.6z M87.6,55.2h7.9V63h-7.9V55.2z M95.6,92.3h-7.9v-7.8h7.9L95.6,92.3z M95.6,77.7h-7.9v-7.8h7.9L95.6,77.7z M104.4,55.2h7.9V63
	h-7.9V55.2z M112.4,92.3h-7.9v-7.8h7.9V92.3z M112.4,77.7h-7.9v-7.8h7.9V77.7z"/>
<path class="st2" d="M129.1,2.2v118.3H142v-16.6h11.8v16.6h12.7V2.2H129.1z M152.3,11.3h7.9v7.8h-7.9V11.3z M152.3,25.9h7.9v7.8
	h-7.9V25.9z M152.3,40.5h7.9v7.8h-7.9V40.5z M135.4,11.3h7.9v7.8h-7.9V11.3z M135.4,25.9h7.9v7.8h-7.9V25.9z M135.4,40.5h7.9v7.8
	h-7.9V40.5z M135.4,55.2h7.9V63h-7.9V55.2z M143.4,92.3h-7.9v-7.8h7.9V92.3z M143.4,77.7h-7.9v-7.8h7.9V77.7z M152.3,55.2h7.9V63
	h-7.9V55.2z M160.3,92.3h-7.9v-7.8h7.9L160.3,92.3z M160.3,77.7h-7.9v-7.9h7.9L160.3,77.7z"/>
</svg>
