<?xml version="1.0" encoding="utf-8"?>
<!-- Generator: Adobe Illustrator 25.2.1, SVG Export Plug-In . SVG Version: 6.00 Build 0)  -->
<svg version="1.1" id="Calque_1" xmlns="http://www.w3.org/2000/svg" xmlns:xlink="http://www.w3.org/1999/xlink" x="0px" y="0px"
	 viewBox="0 0 200.2 200" style="enable-background:new 0 0 200.2 200;" xml:space="preserve">
<style type="text/css">
	.st0{fill:none;}
	.st1{fill:#575756;stroke:#000000;stroke-width:4;stroke-linecap:round;stroke-linejoin:round;stroke-miterlimit:10;}
	.st2{fill:#A452CB;stroke:#000000;stroke-width:4;stroke-miterlimit:10;}
	.st3{fill:none;stroke:#A452CB;stroke-width:5;stroke-linejoin:round;}
</style>
<rect x="2.8" y="2.5" class="st0" width="194.9" height="194.9"/>
<path class="st1" d="M160.5,175.6c-0.8-0.5-1.5-0.9-2.1-1.3c-4.4-3.1-8.9-6.2-13.3-9.5c-2.8-2.1-5.5-2-8.7-0.6
	c-5.5,2.6-11.2,5-16.9,7c-3.4,1.2-5.4,3.1-5.9,6.6c-0.8,5.4-1.8,10.7-2.6,16.1c-0.3,1.9-1.1,2.7-3.1,2.7c-5.4-0.1-10.7-0.1-16.1,0
	c-1.8,0-2.5-0.6-2.8-2.3c-0.8-5.4-1.8-10.8-2.6-16.3c-0.5-3.5-2.4-5.5-5.8-6.7c-5.6-2-11.1-4.2-16.4-6.7c-3.3-1.6-6.1-1.5-9,0.7
	c-4.5,3.3-9.1,6.5-13.6,9.7c-1.4,1-2.3,0.9-3.4-0.3c-3.8-4-7.7-7.8-11.7-11.7c-1.2-1.2-1.2-2.2-0.2-3.6c3.3-4.6,6.5-9.2,9.9-13.8
	c1.9-2.2,2.1-5.4,0.5-7.9c-3.3-5.7-5.9-11.8-7.6-18.1c-0.6-2.7-2.9-4.7-5.7-5c-5.6-1-11.2-1.9-16.9-2.9c-1.9-0.3-2.7-0.9-2.7-2.9
	c0.1-5.4,0.1-10.9,0-16.3c0-1.8,0.7-2.5,2.4-2.8c5.3-0.8,10.6-1.8,15.9-2.6c3.8-0.5,5.8-2.5,7.1-6.2c2-5.7,4.2-11.3,6.8-16.8
	c1.5-3.2,1.5-5.8-0.6-8.6c-3.4-4.5-6.5-9.2-9.9-13.8c-1-1.4-0.9-2.3,0.3-3.4c4-3.9,7.9-7.8,11.8-11.8c1.2-1.2,2.1-1.2,3.4-0.2
	c4.5,3.2,9.1,6.4,13.5,9.6c2.9,2.2,5.6,2.2,8.8,0.6c5.5-2.6,11.2-5,16.9-7.1c3.5-1.3,5.4-3.3,5.8-6.9c0.8-5.3,1.8-10.6,2.6-15.9
	c0.3-2.1,1.2-2.8,3.3-2.7c5.4,0.2,10.7,0.1,16.1,0c1.7,0,2.3,0.6,2.6,2.3c0.9,5.7,1.9,11.4,2.9,17.1c0.3,2.7,2.2,4.9,4.9,5.5
	c6.6,1.8,13,4.4,18.9,7.8c2.4,1.5,5.4,1.2,7.5-0.5c4.6-3.3,9.2-6.6,13.7-9.9c1.5-1.1,2.6-1.2,4,0.3c3.6,3.9,7.4,7.6,11.2,11.2
	c1.6,1.5,1.5,2.7,0.3,4.3c-3.2,4.4-6.3,8.9-9.5,13.2c-2,2.8-1.9,5.4-0.6,8.5c2.6,5.6,5,11.3,7.1,17.1c1.2,3.4,3.2,5.3,6.7,5.8
	c5.4,0.8,10.7,1.8,16.1,2.6c1.7,0.3,2.6,0.9,2.6,2.8c-0.1,5.4-0.1,10.9,0,16.3c0,1.9-0.8,2.6-2.5,2.9c-5.4,0.8-10.8,1.8-16.3,2.6
	c-3.3,0.5-5.5,2.2-6.4,5.5c-1.6,6.2-4.1,12.1-7.3,17.5c-1.7,2.9-1.4,5.6,0.5,8.3c3.3,4.6,6.5,9.2,9.9,13.8c1,1.3,1,2.3-0.2,3.5
	c-4,3.9-8,8-12,11.9C161.6,174.9,161.1,175.3,160.5,175.6z M100.2,53.5c-25.8,0-46.8,20.9-46.8,46.7S74.2,147,100,147
	s46.8-20.9,46.8-46.7c0,0,0,0,0-0.1C146.8,74.5,126,53.6,100.2,53.5z"/>
<path class="st2" d="M100,65.8c19.1,0,34.6,15.4,34.7,34.5c0,19.1-15.4,34.6-34.5,34.7c-19.1,0-34.6-15.4-34.7-34.5v-0.1
	C65.6,81.3,81,65.9,100,65.8z"/>
<path class="st3" d="M27.3,118.7C6.7,146.8-0.7,170.6,9,181.5c15.1,16.9,68.1-5.7,118.4-50.5s78.8-94.9,63.8-111.9
	c-9.7-10.9-35.3-5.2-65.7,12.2"/>
<path class="st3" d="M172.1,118.5c20.7,28.2,28.9,52.1,19.1,63c-15.1,16.9-68.1-5.7-118.4-50.5S-6.1,36.1,9,19.1
	c9.7-11,35.7-5.1,66.3,12.5"/>
<path class="st1" d="M178.1,113.7c-4.7,0.8-6.4,2.9-7.8,8.7C171.7,116.6,173.5,114.5,178.1,113.7z"/>
<path class="st1" d="M131,33.4c-1.6-0.9-7.5-3.1-10.2-3.9C123.3,30.1,129.4,32.5,131,33.4z"/>
<path class="st1" d="M77.6,30.4l-7.2,2.9L77.6,30.4z"/>
<path class="st1" d="M25.6,115.2c2.5,1.2,3.6,4.6,4.2,6.8C29.2,119.8,28.1,116.4,25.6,115.2z"/>
</svg>
