<svg id="Calque_1" data-name="Calque 1" xmlns="http://www.w3.org/2000/svg" viewBox="0 0 45 45"><defs><style>.cls-1{fill:#e84a19;}.cls-2{fill:none;}</style></defs><title>icone_linkedin</title><path class="cls-1" d="M25.29,45H15.64V16.56h9.51c.07,1,.16,2,.25,3.29A10.54,10.54,0,0,1,34,15.73c6.09.13,10.33,4,10.75,10.81.39,6.05.08,12.14.08,18.39H35.11v-2c0-4.28,0-8.58,0-12.86a11.84,11.84,0,0,0-.31-2.65c-.58-2.6-2-3.83-4.31-3.87a5,5,0,0,0-5,3.8A11.82,11.82,0,0,0,25.26,30C25.27,34.89,25.29,39.83,25.29,45Z" transform="translate(-0.06)"/><path class="cls-1" d="M10.32,45H.78c0-.64-.11-1.23-.11-1.83,0-8.24,0-16.48,0-24.74,0-1.63.53-2.08,2.1-2,2.49.11,5,0,7.61,0V45Z" transform="translate(-0.06)"/><path class="cls-1" d="M5.51,12.79c-3.12,0-5.43-2.14-5.45-5s2.42-5.1,5.62-5.06a5.17,5.17,0,0,1,5.44,5C11.14,10.65,8.75,12.81,5.51,12.79Z" transform="translate(-0.06)"/><rect class="cls-2" width="45" height="45"/></svg>