<svg id="Calque_1" data-name="Calque 1" xmlns="http://www.w3.org/2000/svg" viewBox="0 0 45.06 45"><defs><style>.cls-1{fill:none;}.cls-2{fill:#e84a19;}</style></defs><title>icone_twitter</title><rect class="cls-1" x="0.06" width="45" height="45"/><path class="cls-2" d="M21.84,15.51A29.43,29.43,0,0,1,22.25,11a9.3,9.3,0,0,1,15.2-4.41,1.17,1.17,0,0,0,1.29.34c1.66-.61,3.33-1.18,5-1.79A5.69,5.69,0,0,1,42.32,7.7c-.65.79-1.44,1.44-2.14,2.28L45,8.69c-.36.47-.67.9-1,1.31a12.45,12.45,0,0,1-1.15,1.26c-.61.57-1.29,1.1-1.9,1.69a1.4,1.4,0,0,0-.42.89A26.78,26.78,0,0,1,33.84,32a24.85,24.85,0,0,1-16.13,8.56A26.62,26.62,0,0,1,.4,37.09a1.57,1.57,0,0,1-.4-.32,19.24,19.24,0,0,0,13.43-3.89,9.59,9.59,0,0,1-8.65-6.43h3.9l.06-.2c-4.46-1.4-6.92-4.37-7.23-9l3.88,1.1.12-.17c-4-3.39-4.94-7.44-2.7-12.34A27,27,0,0,0,21.84,15.51Z" transform="translate(0)"/></svg>