<svg height="511pt" viewBox="-15 1 511 511.999" width="511pt" xmlns="http://www.w3.org/2000/svg"><path d="m427.898438 453.714844v11.308594c0 7.957031-6.449219 14.40625-14.40625 14.40625h-345.851563c-7.433594 0-13.457031-6.027344-13.457031-13.460938v-12.257812h-53.683594v19.652343c0 21.339844 17.296875 38.636719 38.632812 38.636719h403.816407c21.335937 0 38.632812-17.296875 38.632812-38.636719v-19.652343h-53.683593zm0 0" fill="#4f7693"/><path d="m370.882812 483.054688h-258.113281c-12.402343 0-22.457031-10.054688-22.457031-22.460938v-5.019531c0-1.027344.832031-1.859375 1.859375-1.859375h299.3125c1.023437 0 1.859375.832031 1.859375 1.859375v5.019531c0 12.40625-10.058594 22.460938-22.460938 22.460938zm0 0" fill="#ffae85"/><path d="m391.484375 453.714844h-299.3125c-1.027344 0-1.859375.832031-1.859375 1.859375v5.019531c0 1.425781.144531 2.8125.398438 4.164062h261.824218c8.714844 0 15.382813 8.0625 13.398438 16.546876-.171875.730468-.378906 1.332031-.625 1.75h5.574218c12.40625 0 22.460938-10.058594 22.460938-22.460938v-5.023438c0-1.023437-.835938-1.855468-1.859375-1.855468zm0 0" fill="#ea9e7d"/><path d="m54.183594 366.289062h-35.433594l2.871094-21.066406 1.804687-13.230468 27.480469 1.683593 1.117188 11.128907zm0 0" fill="#fedfc5"/><path d="m141.765625 426.605469-35.964844.128906-49.003906-58.695313c-11.160156-8.230468-26.179687-8.917968-38.046875-1.742187l-4.394531 2.65625c-4.859375 2.9375-7.996094 8.046875-8.414063 13.707031l-5.441406 71.054688h53.683594v-37.859375l36.128906 37.949219h71.78125v-1.667969c-.003906-12.207031-8.433594-22.796875-20.328125-25.53125zm0 0" fill="#ff84a7"/><path d="m52.023438 344.804688c-4.539063 2.753906-9.867188 4.34375-15.554688 4.34375-5.410156 0-10.472656-1.421876-14.847656-3.925782l1.804687-13.230468 27.480469 1.683593zm0 0" fill="#fecbaa"/><path d="m68.9375 280.226562v28.597657c0 16.582031-13.4375 30.019531-30.007812 30.019531-11.996094 0-22.339844-7.027344-27.144532-17.199219-1.835937-3.882812-2.871094-8.238281-2.871094-12.820312v-28.597657c0-11.976562 9.710938-21.675781 21.675782-21.675781h16.683594c10.796874 0 19.734374 7.882813 21.382812 18.21875.1875 1.128907.28125 2.277344.28125 3.457031zm0 0" fill="#fedfc5"/><path d="m68.65625 276.769531-31.78125 12.582031c-2.703125 1.066407-4.480469 3.6875-4.480469 6.589844v7.546875c0 2.320313-1.128906 4.480469-3.015625 5.804688l-17.59375 12.351562c-1.835937-3.882812-2.871094-8.238281-2.871094-12.820312v-28.597657c0-11.976562 9.710938-21.675781 21.675782-21.675781h16.683594c10.796874 0 19.734374 7.882813 21.382812 18.21875zm0 0" fill="#c97f4c"/><path d="m463.332031 366.289062h-35.4375l1.660157-16.503906 1.617187-16.109375 27.480469-1.683593 2.101562 15.359374zm0 0" fill="#fedfc5"/><path d="m481.582031 453.714844-5.441406-71.054688c-.421875-5.660156-3.554687-10.769531-8.414063-13.707031l-4.394531-2.65625c-11.867187-7.175781-26.886719-6.488281-38.046875 1.742187l-49.003906 58.695313-35.964844-.128906c-11.898437 2.734375-20.328125 13.324219-20.328125 25.53125v1.664062h71.78125l36.128907-37.949219v37.859376h53.683593zm0 0" fill="#83d9ff"/><path d="m460.753906 347.351562c-4.941406 3.582032-11.027344 5.703126-17.605468 5.703126-4.894532 0-9.519532-1.171876-13.59375-3.269532l1.617187-16.109375 27.480469-1.683593zm0 0" fill="#fecbaa"/><path d="m473.167969 280.226562v28.597657c0 4.582031-1.035157 8.9375-2.871094 12.820312-4.804687 10.171875-15.152344 17.199219-27.148437 17.199219-16.570313 0-30.007813-13.441406-30.007813-30.019531v-28.597657c0-1.179687.097656-2.328124.285156-3.457031 1.648438-10.335937 10.585938-18.21875 21.382813-18.21875h16.695312c11.960938 0 21.664063 9.703125 21.664063 21.675781zm0 0" fill="#fedfc5"/><path d="m473.167969 280.226562v28.597657c0 4.582031-1.035157 8.9375-2.871094 12.820312l-17.59375-12.347656c-1.890625-1.328125-3.019531-3.488281-3.019531-5.808594v-7.546875c0-2.902344-1.773438-5.523437-4.476563-6.589844l-31.785156-12.578124c1.652344-10.335938 10.589844-18.21875 21.382813-18.21875h16.695312c11.964844-.003907 21.667969 9.699218 21.667969 21.671874zm0 0" fill="#c97f4c"/><path d="m209.023438 78.5v121.425781c0 3.519531-1.273438 6.734375-3.382813 9.230469-2.621094 3.101562-6.535156 5.074219-10.921875 5.074219h-111.789062c-2.496094 0-4.761719 1.460937-5.753907 3.738281-3.851562 8.875-12.695312 15.078125-22.992187 15.078125-10.292969 0-19.136719-6.203125-23-15.078125-.992188-2.277344-3.257813-3.738281-5.742188-3.738281h-2.222656c-7.902344 0-14.304688-6.410157-14.304688-14.304688v-121.425781c0-7.902344 6.402344-14.304688 14.304688-14.304688h171.5c7.90625 0 14.304688 6.402344 14.304688 14.304688zm0 0" fill="#a7c7d3"/><path d="m473.480469 78.5v121.425781c0 7.894531-6.402344 14.304688-14.304688 14.304688h-2.222656c-2.488281 0-4.753906 1.460937-5.742187 3.738281-3.863282 8.875-12.707032 15.078125-23.003907 15.078125-10.28125 0-19.125-6.203125-22.988281-15.078125-.992188-2.277344-3.257812-3.738281-5.742188-3.738281h-111.800781c-5.804687 0-10.808593-3.464844-13.050781-8.433594-.804688-1.785156-1.253906-3.78125-1.253906-5.871094v-121.425781c0-7.902344 6.398437-14.304688 14.304687-14.304688h171.5c7.902344 0 14.304688 6.402344 14.304688 14.304688zm0 0" fill="#a7c7d3"/><path d="m346.09375 0h-215.046875c-9.910156 0-17.941406 8.03125-17.941406 17.941406v147.449219c0 9.90625 8.03125 17.941406 17.941406 17.941406h71.484375c3.117188 0 5.960938 1.828125 7.207031 4.6875 4.835938 11.125 15.925781 18.90625 28.835938 18.90625 12.90625 0 23.996093-7.777343 28.835937-18.90625 1.242188-2.859375 4.085938-4.6875 7.203125-4.6875h71.480469c9.910156 0 17.945312-8.03125 17.945312-17.941406v-147.449219c0-9.910156-8.035156-17.941406-17.945312-17.941406zm0 0" fill="#e9edf1"/><path d="m209.023438 78.5v121.425781c0 3.519531-1.273438 6.734375-3.382813 9.230469-3.050781-2.976562-5.710937-6.390625-7.882813-10.160156h-66.707031c-18.535156 0-33.609375-15.074219-33.609375-33.605469v-101.195313h97.277344c7.90625 0 14.304688 6.402344 14.304688 14.304688zm0 0" fill="#89b4c9"/><path d="m379.699219 64.195312v101.195313c0 18.53125-15.078125 33.605469-33.609375 33.605469h-66.695313c-1.398437 2.425781-2.996093 4.699218-4.769531 6.800781-.804688-1.785156-1.253906-3.78125-1.253906-5.871094v-121.425781c0-7.902344 6.398437-14.304688 14.304687-14.304688zm0 0" fill="#89b4c9"/><path d="m346.09375 0h-215.046875c-9.910156 0-17.941406 8.03125-17.941406 17.941406v147.449219c0 9.90625 8.03125 17.941406 17.941406 17.941406h71.484375c3.117188 0 5.960938 1.828125 7.207031 4.6875 4.835938 11.125 15.925781 18.90625 28.835938 18.90625 12.90625 0 23.996093-7.777343 28.835937-18.90625 1.242188-2.859375 4.085938-4.6875 7.203125-4.6875h71.480469c9.910156 0 17.945312-8.03125 17.945312-17.941406v-147.449219c0-9.910156-8.035156-17.941406-17.945312-17.941406zm0 0" fill="#e9edf1"/><g fill="#a7c7d3"><path d="m319.988281 51.875h-167.03125c-4.328125 0-7.832031-3.503906-7.832031-7.832031 0-4.324219 3.503906-7.828125 7.832031-7.828125h167.03125c4.324219 0 7.832031 3.503906 7.832031 7.828125 0 4.328125-3.507812 7.832031-7.832031 7.832031zm0 0"/><path d="m319.988281 91.574219h-167.03125c-4.328125 0-7.832031-3.503907-7.832031-7.832031 0-4.324219 3.503906-7.828126 7.832031-7.828126h167.03125c4.324219 0 7.832031 3.503907 7.832031 7.828126 0 4.328124-3.507812 7.832031-7.832031 7.832031zm0 0"/><path d="m243.09375 131.273438h-90.136719c-4.328125 0-7.832031-3.503907-7.832031-7.828126 0-4.328124 3.503906-7.832031 7.832031-7.832031h90.136719c4.328125 0 7.832031 3.503907 7.832031 7.832031 0 4.324219-3.503906 7.828126-7.832031 7.828126zm0 0"/></g><path d="m208.652344 373.046875c3.007812-1.015625 5.6875-2.632813 7.914062-4.699219 4.351563-4.070312 6.984375-9.835937 6.984375-16.066406v-20.257812h36.550781v20.257812c0 5.78125 2.257813 11.171875 6.078126 15.160156 2.378906 2.503906 5.386718 4.457032 8.824218 5.605469zm0 0" fill="#fedfc5"/><path d="m260.105469 332.023438v13.007812l-8.320313 5.074219c-6.121094 3.730469-13.804687 3.730469-19.914062 0l-8.320313-5.074219v-13.007812zm0 0" fill="#fecbaa"/><path d="m277.539062 267.78125v44.363281c0 6.691407-3.484374 12.90625-9.1875 16.382813l-16.570312 10.09375c-6.117188 3.726562-13.800781 3.726562-19.910156 0l-16.570313-10.09375c-5.710937-3.476563-9.1875-9.691406-9.1875-16.382813v-44.363281c0-12.207031 9.878907-22.09375 22.050781-22.09375h27.3125c12.1875 0 22.0625 9.886719 22.0625 22.09375zm0 0" fill="#fedfc5"/><path d="m255.476562 245.6875h-16.710937c12.183594 0 22.0625 9.886719 22.0625 22.09375v44.363281c0 6.691407-3.488281 12.90625-9.191406 16.382813l-16.566407 10.09375c-.523437.320312-1.058593.597656-1.601562.863281 5.8125 2.828125 12.714844 2.546875 18.3125-.863281l16.570312-10.09375c5.699219-3.476563 9.1875-9.691406 9.1875-16.382813v-44.363281c0-12.207031-9.875-22.09375-22.0625-22.09375zm0 0" fill="#fecbaa"/><path d="m277.539062 267.78125v20.609375l-47.367187-15.253906-24.058594 12.558593v-17.914062c0-12.207031 9.878907-22.09375 22.050781-22.09375h27.3125c12.1875 0 22.0625 9.886719 22.0625 22.09375zm0 0" fill="#618aaa"/><path d="m255.429688 245.6875h-16.710938c12.183594 0 22.058594 9.886719 22.058594 22.09375v15.226562l16.714844 5.382813v-20.609375c0-12.207031-9.878907-22.09375-22.0625-22.09375zm0 0" fill="#4f7693"/><path d="m167.296875 453.71875v-37.144531c0-17.6875 11.273437-33.398438 28.019531-39.039063l13.335938-4.488281c3.007812-1.011719 5.6875-2.636719 7.910156-4.703125 7.15625 2.597656 15.585938 4.347656 25.117188 4.144531 9.382812-.203125 17.585937-2.261719 24.496093-5.046875 2.390625 2.503906 5.390625 4.453125 8.828125 5.605469l13.335938 4.488281c16.734375 5.640625 28.015625 21.351563 28.015625 39.039063v37.144531zm0 0" fill="#69d998"/><path d="m240.960938 372.609375-15.683594 55.4375c-.40625 1.429687-.046875 2.96875.945312 4.074219l11.671875 13.011718c1.664063 1.855469 4.546875 1.929688 6.304688.160157l12.984375-13.097657c1.132812-1.140624 1.539062-2.8125 1.0625-4.34375zm0 0" fill="#3dc5a1"/></svg>