<svg id="Capa_1" enable-background="new 0 0 512 512" height="512" viewBox="0 0 512 512" width="512" xmlns="http://www.w3.org/2000/svg"><g><g><g><path d="m504.973 59.547-38.923 6.763c-5.43.35-10.86-.04-16.15-1.15-.19-.03-.37-.07-.56-.11-3.41-.74-6.77-1.78-10.02-3.12l-126.84-52.17c-8.06-3.32-17.15-2.97-24.93.96l-150.18 75.77c-6.05 3.06-9.87 9.26-9.87 16.04 0 10.16 8.31 17.97 17.93 17.97 1.45 0 2.93-.18 4.41-.55l117.34-28.43.44-.11 244.38 77.95v-103.902c0-3.724-3.358-6.549-7.027-5.911z" fill="#fed2a4"/><path d="m504.973 59.547-38.923 6.763c-5.43.35-10.86-.04-16.15-1.15-.19-.03-.37-.07-.56-.11-3.41-.74-6.77-1.78-10.02-3.12l-126.84-52.17c-8.06-3.32-17.15-2.97-24.93.96l-150.18 75.77c-6.05 3.06-9.87 9.26-9.87 16.04 0 6.378 3.276 11.827 8.093 15.001.57-.375 1.158-.729 1.777-1.041l150.18-75.77c7.78-3.93 16.87-4.28 24.93-.96l126.84 52.17c3.25 1.34 6.61 2.38 10.02 3.12.19.04.37.08.56.11 5.29 1.11 10.72 1.5 16.15 1.15l38.923-6.763c3.669-.638 7.027 2.187 7.027 5.911v-30c0-3.724-3.358-6.549-7.027-5.911z" fill="#ffbd86"/><path d="m371.61 95.73c0-8.902-5.838-16.75-14.365-19.305-5.923-1.775-11.847-3.55-17.775-5.325l-11.36-3.4-35.09-10.51c-4.125-1.845-8.573-2.205-12.644-1.279 0 0-5.902 1.401-10.386 6.439-6.147 6.906-6.996 18.233-2.81 29.17 73.521 52.755 115.28 74.074 125.287 63.964 6.518-6.585-.435-26.504-20.857-59.754z" fill="#ffbd86"/><path d="m371.61 95.73c-10.71-3.21-21.42-6.42-32.14-9.63l-11.36-3.4-35.09-10.51c-8.25-3.69-17.79-1.44-23.03 5.16-.22.27-.43.55-.62.84-2.84 4.04-3.44 8.92-2.19 13.33 1.09 3.91 3.64 7.45 7.38 9.72l107.57 73.19c21.27 14.47 47.42 19.87 72.67 15.02l52.355-10.273c2.815-.552 4.845-3.019 4.845-5.888v-6.571z" fill="#fed2a4"/></g></g><g><g><path d="m7.027 452.453 38.923-6.763c5.43-.35 10.86.04 16.15 1.15.19.03.37.07.56.11 3.41.74 6.77 1.78 10.02 3.12l126.84 52.17c8.06 3.32 17.15 2.97 24.93-.96l150.18-75.77c6.05-3.06 9.87-9.26 9.87-16.04 0-10.16-8.31-17.97-17.93-17.97-1.45 0-2.93.18-4.41.55l-117.34 28.43-.44.11-244.38-77.95v103.902c0 3.724 3.358 6.549 7.027 5.911z" fill="#fed2a4"/><path d="m376.407 394.469c-.57.375-1.158.729-1.777 1.041l-150.18 75.77c-7.78 3.93-16.87 4.28-24.93.96l-126.84-52.17c-3.25-1.34-6.61-2.38-10.02-3.12-.19-.04-.37-.08-.56-.11-5.29-1.11-10.72-1.5-16.15-1.15l-38.923 6.763c-3.669.638-7.027-2.187-7.027-5.911v30c0 3.724 3.358 6.549 7.027 5.911l38.923-6.763c5.43-.35 10.86.04 16.15 1.15.19.03.37.07.56.11 3.41.74 6.77 1.78 10.02 3.12l126.84 52.17c8.06 3.32 17.15 2.97 24.93-.96l150.18-75.77c6.05-3.06 9.87-9.26 9.87-16.04 0-6.378-3.276-11.826-8.093-15.001z" fill="#ffbd86"/><path d="m140.39 416.27c0 8.902 5.838 16.75 14.365 19.305 5.923 1.775 11.847 3.55 17.775 5.325l11.36 3.4 35.09 10.51c4.125 1.845 8.572 2.205 12.644 1.279 0 0 5.902-1.401 10.386-6.439 6.147-6.906 6.996-18.233 2.81-29.17-73.521-52.755-115.28-74.074-125.287-63.964-6.518 6.585.435 26.504 20.857 59.754z" fill="#ffbd86"/><path d="m140.39 416.27c10.71 3.21 21.42 6.42 32.14 9.63l11.36 3.4 35.09 10.51c8.25 3.69 17.79 1.44 23.03-5.16.22-.27.43-.55.62-.84 2.84-4.04 3.44-8.92 2.19-13.33-1.09-3.91-3.64-7.45-7.38-9.72l-107.57-73.19c-21.27-14.47-47.42-19.87-72.67-15.02l-52.355 10.273c-2.815.552-4.845 3.019-4.845 5.887v6.571z" fill="#fed2a4"/></g></g><g><ellipse cx="256" cy="256" fill="#fedf30" rx="105.891" ry="105.891" transform="matrix(.707 -.707 .707 .707 -106.039 256)"/><path d="m287.701 154.938c26.758 19.218 44.19 50.603 44.19 86.062 0 58.482-47.409 105.892-105.892 105.892-11.044 0-21.692-1.693-31.701-4.83 17.374 12.478 38.678 19.83 61.701 19.83 58.482 0 105.892-47.409 105.892-105.892 0-47.438-31.195-87.589-74.19-101.062z" fill="#fac600"/><path d="m275.456 184.06c5.99-.048 9.984 5.447 7.977 10.627-5.332 13.766-11.234 27.359-16.989 40.955-.348.823-.099 1.166.583 1.56 10.776 6.221 21.528 12.484 32.314 18.686 5.314 3.056 6.16 9.274 1.726 13.48-19.536 18.533-39.104 37.033-58.664 55.541-3.281 3.104-6.511 3.809-9.875 2.18-3.664-1.774-5.462-5.943-3.966-9.807 2.041-5.274 4.277-10.473 6.448-15.695 3.503-8.425 7.008-16.85 10.558-25.255.362-.858.059-1.163-.602-1.543-10.91-6.274-21.928-12.422-32.702-18.926-5.016-3.028-5.608-9.202-1.333-13.253 19.549-18.522 39.154-36.985 58.664-55.548 1.801-1.712 3.776-2.934 5.861-3.002z" fill="#fea95c"/><path d="m299.341 255.889c-10.786-6.203-21.538-12.465-32.314-18.686-.682-.394-.931-.737-.583-1.56 5.755-13.596 11.657-27.189 16.989-40.955 2.006-5.181-1.988-10.676-7.977-10.627-2.085.068-4.059 1.291-5.859 3.002-7.031 6.689-14.082 13.358-21.131 20.029-1.09 3.476-7.911 17.619-10.518 25.326-.875 2.588.195 5.428 2.56 6.795 9.612 5.558 19.209 11.14 28.834 16.675 5.314 3.056 6.16 9.274 1.726 13.48-12.45 11.811-24.92 23.601-37.385 35.395-1.743 4.159-3.493 8.315-5.12 12.519-1.495 3.865.303 8.034 3.966 9.808 3.364 1.628 6.594.924 9.875-2.18 19.56-18.508 39.128-37.008 58.664-55.541 4.433-4.206 3.587-10.424-1.727-13.48z" fill="#fe9738"/></g></g></svg>