<svg id="Capa_1" enable-background="new 0 0 512 512" height="512" viewBox="0 0 512 512" width="512" xmlns="http://www.w3.org/2000/svg"><g><g><path d="m373.441 512h-234.882c-22.758 0-41.207-18.449-41.207-41.207v-429.586c0-22.758 18.449-41.207 41.207-41.207h234.881c22.758 0 41.207 18.449 41.207 41.207v429.586c.001 22.758-18.448 41.207-41.206 41.207z" fill="#3d6d93"/><path d="m373.441 0h-30.905c22.758 0 41.207 18.449 41.207 41.207v429.586c0 22.758-18.449 41.207-41.207 41.207h30.905c22.758 0 41.207-18.449 41.207-41.207v-429.586c0-22.758-18.449-41.207-41.207-41.207z" fill="#335e80"/><path d="m331.67 39.147c0 7.692-6.235 13.927-13.927 13.927h-123.486c-7.692 0-13.927-6.235-13.927-13.927 0-4.552-3.69-8.241-8.241-8.241h-28.379c-8.534 0-15.453 6.918-15.453 15.453v419.284c0 8.534 6.918 15.453 15.453 15.453h224.58c8.534 0 15.453-6.918 15.453-15.453v-419.285c0-8.534-6.918-15.453-15.453-15.453h-28.379c-4.551 0-8.241 3.69-8.241 8.242z" fill="#f9f7f8"/></g><circle cx="256" cy="26.537" fill="#335e80" r="7.726"/><g><path d="m338.751 481.095h-165.502v-48.252c0-45.702 37.049-82.751 82.751-82.751 45.702 0 82.751 37.049 82.751 82.751z" fill="#ffe179"/><path d="m256 350.091c-5.284 0-10.444.516-15.453 1.463 38.313 7.24 67.298 40.87 67.298 81.288v48.252h30.905v-48.252c.001-45.702-37.048-82.751-82.75-82.751z" fill="#fbd268"/><g><path d="m256 361.569c-24.389 0-44.16-19.771-44.16-44.16v-20.94l6.621-31.406c0-14.298 6.68-23.485 20.977-23.485l32.325-.684c14.298 0 23.083 8.96 23.083 23.257l5.314 32.318v20.94c0 24.389-19.771 44.16-44.16 44.16z" fill="#ffcebf"/><path d="m274.272 237.643h-30.905c14.298 0 25.888 11.59 25.888 25.888v53.879c0 18.951-11.941 35.109-28.707 41.374 4.81 1.797 10.015 2.786 15.453 2.786 24.389 0 44.16-19.771 44.16-44.16v-53.88c-.001-14.297-11.592-25.887-25.889-25.887z" fill="#ffb09e"/><path d="m274.272 237.643h-36.543c-14.298 0-25.888 11.59-25.888 25.888v32.939l37.422-12.328c13.8-4.546 28.926-2.46 40.98 5.653l9.918 6.675v-32.94c-.001-14.297-11.592-25.887-25.889-25.887z" fill="#e19974"/><g><path d="m274.272 237.643h-30.905c14.298 0 25.888 11.59 25.888 25.888v18.564c7.419.838 14.632 3.422 20.987 7.699l9.918 6.675v-32.939c0-14.297-11.591-25.887-25.888-25.887z" fill="#dc8758"/></g></g></g><g><path d="m495.751 248.853h-131.98c-8.974 0-16.249-7.275-16.249-16.249v-131.98c0-8.974 7.275-16.249 16.249-16.249h131.98c8.974 0 16.249 7.275 16.249 16.249v131.98c0 8.974-7.275 16.249-16.249 16.249z" fill="#8fd8fa"/><path d="m495.751 84.375h-30.905c8.974 0 16.249 7.275 16.249 16.249v131.98c0 8.974-7.275 16.249-16.249 16.249h30.905c8.974 0 16.249-7.275 16.249-16.249v-131.98c0-8.974-7.275-16.249-16.249-16.249z" fill="#6bcdfe"/><g><path d="m479.165 248.853h-98.808v-8.418c0-27.285 22.119-49.404 49.404-49.404 27.285 0 49.404 22.119 49.404 49.404z" fill="#f58a97"/><path d="m429.761 191.031c-5.399 0-10.59.878-15.453 2.479 19.714 6.489 33.951 25.039 33.951 46.925v8.418h30.905v-8.418c.001-27.285-22.118-49.404-49.403-49.404z" fill="#f07281"/><g><path d="m429.761 197.884c-14.561 0-26.364-11.804-26.364-26.364v-12.033c0-14.56 11.804-26.364 26.364-26.364 14.56 0 26.364 11.804 26.364 26.364v12.033c0 14.56-11.804 26.364-26.364 26.364z" fill="#ffcebf"/></g><path d="m429.761 133.123c-4.804 0-9.303 1.291-13.182 3.536 7.878 4.559 13.182 13.072 13.182 22.828v12.033c0 9.757-5.304 18.269-13.182 22.828 3.879 2.245 8.378 3.536 13.182 3.536 14.561 0 26.364-11.804 26.364-26.364v-12.033c0-14.561-11.804-26.364-26.364-26.364z" fill="#ffb09e"/></g></g><g><path d="m148.229 248.853h-131.98c-8.974 0-16.249-7.275-16.249-16.249v-131.98c0-8.974 7.275-16.249 16.249-16.249h131.98c8.974 0 16.249 7.275 16.249 16.249v131.98c0 8.974-7.275 16.249-16.249 16.249z" fill="#8fd8fa"/><path d="m148.229 84.375h-30.905c8.974 0 16.249 7.275 16.249 16.249v131.98c0 8.974-7.275 16.249-16.249 16.249h30.905c8.974 0 16.249-7.275 16.249-16.249v-131.98c0-8.974-7.275-16.249-16.249-16.249z" fill="#6bcdfe"/><g><path d="m131.643 248.853h-98.808v-8.418c0-27.285 22.119-49.404 49.404-49.404 27.285 0 49.404 22.119 49.404 49.404z" fill="#aee69c"/><path d="m82.239 191.031c-5.399 0-10.59.878-15.453 2.479 19.714 6.489 33.951 25.039 33.951 46.925v8.418h30.905v-8.418c.001-27.285-22.118-49.404-49.403-49.404z" fill="#89daa4"/><g><path d="m82.239 197.884c-14.561 0-26.364-11.804-26.364-26.364v-12.033c0-14.56 11.804-26.364 26.364-26.364 14.56 0 26.364 11.804 26.364 26.364v12.033c0 14.56-11.803 26.364-26.364 26.364z" fill="#ffcebf"/></g><path d="m82.239 133.123c-4.804 0-9.303 1.291-13.182 3.536 7.878 4.559 13.182 13.071 13.182 22.828v12.033c0 9.757-5.304 18.269-13.182 22.828 3.879 2.245 8.378 3.536 13.182 3.536 14.56 0 26.364-11.804 26.364-26.364v-12.033c0-14.561-11.803-26.364-26.364-26.364z" fill="#ffb09e"/></g></g><g><path d="m305.452 193.219-31.295-26.605 31.295-26.605c2.898-2.464 7.353-.404 7.353 3.4v46.41c-.001 3.804-4.455 5.864-7.353 3.4z" fill="#b4e5f9"/><path d="m271.288 192.401h-64.283c-4.313 0-7.809-3.496-7.809-7.809v-35.955c0-4.313 3.496-7.809 7.809-7.809h64.283c4.313 0 7.809 3.496 7.809 7.809v35.955c0 4.312-3.496 7.809-7.809 7.809z" fill="#8fd8fa"/><path d="m271.288 140.828h-30.905c4.313 0 7.809 3.496 7.809 7.809v35.955c0 4.313-3.496 7.809-7.809 7.809h30.905c4.313 0 7.809-3.496 7.809-7.809v-35.955c0-4.313-3.496-7.809-7.809-7.809z" fill="#6bcdfe"/></g></g></svg>