<?xml version="1.0" encoding="utf-8"?>
<!-- Generator: Adobe Illustrator 24.0.1, SVG Export Plug-In . SVG Version: 6.00 Build 0)  -->
<svg version="1.1" id="Calque_1" xmlns="http://www.w3.org/2000/svg" xmlns:xlink="http://www.w3.org/1999/xlink" x="0px" y="0px"
	 viewBox="0 0 200 200" style="enable-background:new 0 0 200 200;" xml:space="preserve">
<style type="text/css">
	.st0{fill:#FECC38;}
</style>
<g>
	<path class="st0" d="M97.96,8.68c0,10.15,0,20.3,0,30.46c-1.62,0.2-3.26,0.3-4.85,0.61c-3.8,0.74-7.29,2.31-10.72,4.09
		c-5.55,2.89-9.92,7.06-13.45,12.13c-2.4,3.45-4.11,7.2-5.18,11.32c-1.58,6.1-1.86,12.19-0.4,18.29
		c1.85,7.74,6.15,14.04,12.09,19.23c3.8,3.32,8.2,5.62,13.04,7.16c3.1,0.99,6.21,1.73,9.48,1.71c0,10.25,0,20.5,0,30.75
		c-0.58,0-1.16,0-1.74,0c-1.12-0.17-2.25-0.46-3.38-0.48c-1.58-0.03-2.72-0.71-3.32-2.09c-0.43-0.99-0.77-2.1-0.8-3.16
		c-0.13-6.47-3.7-10.72-9.2-13.17c-4.05-1.81-8.52-1.8-12.6,0.41c-1.79,0.97-3.36,2.37-5.01,3.61c-1.61,1.21-4.8,1.33-6.12-0.69
		c-0.28-0.43-0.78-0.71-1.15-1.09c-3.04-3.05-6.13-6.07-9.1-9.19c-1.03-1.08-0.83-3.12,0.23-4.22c2.39-2.48,4.23-5.13,5.22-8.6
		c2.05-7.16-2.52-14.55-8.39-16.76c-2.34-0.88-4.96-1.08-7.47-1.4c-1.93-0.25-3.59-1.25-3.6-2.89c-0.04-5.29,0.01-10.59,0.16-15.87
		c0.05-1.71,1.39-2.85,3.13-3.07c1.62-0.21,3.26-0.26,4.87-0.53c3.15-0.53,5.72-2.24,7.92-4.44c3.05-3.04,4.6-6.76,4.18-11.1
		c-0.39-3.99-1.79-7.53-4.86-10.34c-1.47-1.34-1.36-3.49-0.11-5.07c3.11-3.94,6.63-7.45,10.69-10.42c2.42-1.78,4.25-1.64,6.38,0.4
		c3.8,3.65,8.39,5.14,13.54,4.22c7.6-1.36,12.82-7.78,12.98-15.49c0.05-2.22,0.92-3.6,3.1-4.08C94.95,8.59,96.48,8.74,97.96,8.68z"
		/>
	<path class="st0" d="M164.08,87.27c-0.67,1.81-1.33,3.6-2.82,4.98c-4.54,4.21-12.4,2.85-14.84-3.34c-0.17-0.44-0.74-1.02-1.13-1.02
		c-7.82-0.05-15.64-0.03-23.46-0.02c-0.09,0-0.17,0.06-0.36,0.12c0,5.35,0,10.73,0,16.28c-2.39,0-4.68,0-7.07,0
		c0,2.35,0,4.54,0,6.85c5.78,0,11.55,0,17.46,0c0,2.68,0,5.26,0,7.83c3.68,1.1,6.04,3.24,6.96,6.99c1.18,4.84-2.12,10.16-6.87,10.85
		c-0.11,0.02-0.19,0.17-0.29,0.26c-1.14,0-2.28,0-3.41,0c-0.05-0.07-0.09-0.2-0.15-0.21c-4.37-0.75-6.88-4.38-7.23-7.96
		c-0.41-4.31,2.11-8.3,6-9.51c0.33-0.1,0.74-0.59,0.78-0.93c0.11-0.96,0.04-1.95,0.04-3.06c-5.98,0-11.77,0-17.72,0
		c0-3.76,0-7.38,0-11.03c-3.42,0-6.68-0.01-9.95,0.01c-0.35,0-0.71,0.18-1.06,0.27c0-1.61,0-3.22,0-4.84
		c0.5,0.09,0.99,0.27,1.49,0.27c3.6,0.02,7.2,0.01,10.8,0.01c1.93,0,3.86,0,5.85,0c0-16.64,0-33.14,0-49.69
		c-0.24-0.03-0.42-0.08-0.59-0.08c-5.49,0-10.98-0.01-16.48,0.01c-0.35,0-0.71,0.18-1.06,0.27c0-1.61,0-3.22,0-4.84
		c2.8,0.14,5.6,0.27,8.53,0.41c0-5.04,0.02-9.81-0.04-14.58c0-0.32-0.53-0.78-0.91-0.93c-5.9-2.43-7.62-10.45-3-14.84
		c1.31-1.24,3.19-1.87,4.81-2.78c1.14,0,2.28,0,3.41,0c1.45,0.74,3.12,1.24,4.32,2.28c2.93,2.51,3.76,5.88,2.68,9.52
		c-1.01,3.4-3.4,5.55-6.94,6.24c0,4.99,0,9.9,0,14.92c3.17,0,6.28,0,9.55,0c0,6.28,0,12.46,0,18.72c5.57,0,10.99,0,16.48,0
		c0-4.57,0-9.1,0-13.73c-2.32-0.62-4.25-1.86-5.62-3.95c-1.87-2.85-1.91-7.08-0.05-9.91c2.16-3.26,5.3-4.63,9.04-4.11
		c4.26,0.59,6.71,3.56,7.54,6.87c1.11,4.45-1.47,9.5-5.77,10.72c-0.71,0.2-0.82,0.7-0.82,1.39c0.03,5.12,0.02,10.24,0.02,15.35
		c0,0.51,0,1.03,0,1.7c-6.93,0-13.77,0-20.69,0c0,4.87,0,9.59,0,14.43c8.15,0,16.32,0,24.54,0c1.05-3.49,3.19-5.85,6.94-6.77
		c4.83-1.18,10.16,2.12,10.85,6.87c0.02,0.11,0.17,0.19,0.26,0.29C164.08,84.99,164.08,86.13,164.08,87.27z M139.94,46.88
		c2.47-0.01,4.8-2.36,4.8-4.84c0-2.48-2.33-4.82-4.81-4.83c-2.57-0.01-4.89,2.33-4.86,4.91C135.09,44.67,137.37,46.89,139.94,46.88z
		 M159.81,85.61c0.02-2.44-2.24-4.84-4.61-4.89c-2.59-0.05-5.03,2.21-5.06,4.71c-0.04,2.56,2.29,4.95,4.82,4.96
		C157.54,90.4,159.79,88.18,159.81,85.61z M129.92,132.78c2.36,0.09,4.85-2.1,4.81-4.82c-0.04-2.69-1.89-4.69-4.95-4.83
		c-2.36-0.11-4.66,2.37-4.66,4.81C125.11,130.52,127.34,132.77,129.92,132.78z M109.92,17.3c-2.43-0.01-4.7,2.28-4.72,4.77
		c-0.02,2.59,2.24,4.92,4.74,4.9c2.5-0.03,5.01-2.34,4.9-4.77C114.72,19.52,112.99,17.58,109.92,17.3z"/>
	<path d="M105.09,0.73c0,1.2,0,2.34,0,3.57c-1.74,0-3.4,0-5.13,0c0,55.63,0,111.16,0,166.85c1.77,0,3.47,0,5.33,0
		c0,1.15,0,2.15,0,3.27c1.42,0,2.68,0,4.08,0c0-1.04,0-2,0-3.06c3.37,0.46,6.59,0.9,9.74,1.33c0.4,1.72,0.92,3.3,1.1,4.92
		c0.15,1.3-0.19,2.64-0.18,3.96c0.01,1.27,0.22,2.54,0.3,3.81c0.05,0.83,0.05,1.67,0.03,2.51c-0.04,1.35-0.17,2.69-0.15,4.04
		c0.03,2.01,0.19,4.01,0.24,6.02c0.03,1.43-0.58,2.03-2,2.03c-13.56,0.01-27.12-0.01-40.69,0.02c-1.04,0-1.63-0.37-1.77-1.35
		c-0.13-0.95-0.26-1.94-0.16-2.89c0.13-1.26,0.4-2.45,0-3.77c-0.3-1.01-0.03-2.19-0.02-3.3c0-0.96-0.03-1.91-0.02-2.87
		c0.01-1.15,0.06-2.3,0.06-3.44c0-1-0.05-2-0.07-3.01c-0.02-0.66-0.19-1.37-0.02-1.98c1-3.61-0.13-7.12-0.53-10.64
		c-0.52-4.6-1.35-9.16-1.96-13.75c-0.12-0.92-0.7-1.01-1.31-1.21c-7.48-2.31-14.56-5.49-21.12-9.76c-4.91-3.19-9.41-6.88-13.6-11
		c-3.63-3.56-6.6-7.59-9.57-11.66c-4.58-6.26-7.42-13.3-9.85-20.59c-4.39-13.18-4.45-26.48-0.88-39.74c2.03-7.55,5-14.86,9.51-21.34
		c2.85-4.09,5.96-8.04,9.34-11.68c2.9-3.13,6.19-5.97,9.6-8.54c8.3-6.26,17.51-10.87,27.55-13.62c10.42-2.85,21.08-3.72,31.86-3.26
		C104.85,0.61,104.93,0.67,105.09,0.73z M96.05,171.19c0-55.7,0-111.25,0-166.93c-1.61,0.1-3.1,0.2-4.6,0.3
		c-9.47,0.66-18.65,2.63-27.4,6.4c-6.74,2.9-13.01,6.65-18.65,11.32c-3.43,2.84-6.78,5.9-9.57,9.34c-3.47,4.27-6.7,8.82-9.36,13.62
		c-5.17,9.32-7.71,19.49-7.97,30.15c-0.31,12.95,2.39,25.2,9.01,36.46c2.85,4.85,5.69,9.69,9.79,13.63
		c3.15,3.03,6.22,6.17,9.59,8.93c2.89,2.37,6.09,4.39,9.28,6.37c6.02,3.73,12.55,6.32,19.4,8.08c0.99,0.26,1.3,0.72,1.42,1.71
		c0.77,6.51,1.63,13.01,2.43,19.51c0.11,0.86,0.42,1.19,1.33,1.17c3.37-0.07,6.73-0.06,10.1-0.07
		C92.56,171.18,94.27,171.19,96.05,171.19z M118.84,186.06c0.02,0,0.04-0.01,0.06-0.01c-0.1-0.65-0.1-1.34-0.32-1.95
		c-0.13-0.36-0.6-0.78-0.97-0.83c-1.36-0.18-2.73-0.23-4.1-0.31c-4.5-0.28-9-0.55-13.51-0.84c-6.57-0.42-13.14-0.89-19.72-1.28
		c-2.63-0.15-2.64-0.08-3.07,2.45c-0.32,1.85-0.05,2.16,1.84,2.27c2.95,0.18,5.91,0.35,8.86,0.58c5.2,0.4,10.39,0.86,15.58,1.27
		c4.49,0.36,8.99,0.67,13.48,1.04c1.67,0.14,1.96-0.08,1.93-1.74C118.91,186.5,118.86,186.28,118.84,186.06z M79.39,187.2
		c-0.06-0.09-0.11-0.18-0.17-0.27c-0.6,0.35-1.47,0.56-1.74,1.09c-0.36,0.7-0.26,1.63-0.36,2.47c-0.12,1.09,0.37,1.46,1.45,1.51
		c2.87,0.13,5.74,0.36,8.6,0.57c5.51,0.41,11.02,0.86,16.53,1.26c4.15,0.3,8.3,0.51,12.45,0.86c2.86,0.24,3.11,0.03,2.53-2.87
		c-0.03-0.17-0.11-0.35-0.11-0.52c0.01-0.96-0.54-1.15-1.38-1.17c-1.5-0.05-3-0.18-4.5-0.3c-4.32-0.33-8.63-0.68-12.95-1.01
		c-2.64-0.2-5.29-0.36-7.94-0.57C87.66,187.91,83.53,187.55,79.39,187.2z M118.8,178.73c0-0.44,0.01-0.89,0-1.33
		c-0.04-0.94-0.42-1.38-1.48-1.38c-12.88,0.03-25.76,0.04-38.64-0.01c-1.4-0.01-1.43,0.82-1.57,1.75c-0.18,1.13,0.54,1.19,1.37,1.21
		c0.62,0.02,1.23,0.17,1.84,0.21c4.58,0.29,9.17,0.53,13.76,0.85c7.27,0.49,14.54,1.05,21.81,1.54
		C118.76,181.76,118.81,181.66,118.8,178.73z M98.09,198.6C98.09,198.6,98.09,198.6,98.09,198.6c6.51-0.01,13.03,0.01,19.54-0.04
		c0.45,0,1.21-0.39,1.27-0.7c0.12-0.69-0.13-1.35-1.13-1.4c-2.43-0.12-4.85-0.34-7.28-0.52c-5.6-0.42-11.2-0.87-16.8-1.27
		c-4.28-0.31-8.57-0.44-12.84-0.88c-3.96-0.41-3.15-0.26-3.63,2.9c-0.22,1.49,0.2,1.9,1.72,1.9C85.33,198.6,91.71,198.6,98.09,198.6
		z"/>
	<path d="M121.09,6.9c0.19-1.19,0.36-2.32,0.59-3.73c2.97,0.97,5.83,1.91,8.81,2.88c-0.45,1.29-0.84,2.39-1.25,3.53
		C126.53,8.69,123.87,7.82,121.09,6.9z"/>
	<path d="M143.85,17.01c0.61-1.06,1.18-2.05,1.84-3.21c2.42,1.72,4.78,3.4,7.3,5.18c-0.98,1.07-1.82,1.99-2.63,2.89
		C148.14,20.22,146.06,18.67,143.85,17.01z"/>
	<path d="M180.19,92.29c-1.29-0.29-2.37-0.48-3.41-0.79c-0.21-0.06-0.42-0.61-0.39-0.91c0.29-2.19,0.64-4.36,1-6.73
		c1.23,0.08,2.47,0.16,3.97,0.26C180.98,86.84,180.6,89.44,180.19,92.29z"/>
	<path d="M155.88,133.52c-0.73-0.94-1.45-1.87-2.19-2.82c1.81-1.9,3.54-3.71,5.36-5.62c1,0.71,2.02,1.44,3.05,2.18
		C160.02,129.36,158.02,131.38,155.88,133.52z"/>
	<path d="M177.63,72.46c1.17-0.07,2.39-0.15,3.81-0.24c0,2.52,0,5.01,0,7.58c-1.21,0-2.43,0-3.81,0
		C177.63,77.36,177.63,74.95,177.63,72.46z"/>
	<path d="M142.2,11.65c-0.75,1.06-1.44,2.05-2.2,3.12c-2.2-1.15-4.41-2.31-6.7-3.51c0.4-1.12,0.79-2.22,1.25-3.52
		C137.12,9.06,139.6,10.33,142.2,11.65z"/>
	<path d="M146.15,141.26c-0.75-1.11-1.38-2.05-2.05-3.06c2.05-1.57,4.04-3.09,6.22-4.75c0.81,0.89,1.64,1.8,2.62,2.89
		C150.63,138.02,148.45,139.6,146.15,141.26z"/>
	<path d="M117.61,2.17c-0.2,1.36-0.37,2.49-0.55,3.69c-2.48-0.37-4.91-0.71-7.33-1.11c-0.21-0.03-0.49-0.49-0.49-0.75
		c0.01-0.96,0.11-1.93,0.2-3.08C112.18,1.34,114.82,1.74,117.61,2.17z"/>
	<path d="M175.34,95.42c1.24,0.31,2.33,0.58,3.62,0.91c-0.82,2.59-1.61,5.04-2.45,7.68c-1.21-0.48-2.29-0.91-3.47-1.39
		C173.8,100.24,174.54,97.91,175.34,95.42z"/>
	<path d="M181.05,68.1c-1.44,0.07-2.66,0.12-3.97,0.18c-0.41-2.23-0.81-4.42-1.19-6.54c0.09-0.12,0.12-0.18,0.15-0.19
		c4.26-1.21,3.49-1.7,4.37,2.6C180.66,65.41,180.82,66.68,181.05,68.1z"/>
	<path d="M140.31,140.44c0.83,1.03,1.56,1.94,2.43,3.01c-2.43,1.28-4.74,2.5-7.15,3.78c-0.47-1.18-0.91-2.27-1.38-3.45
		C136.25,142.66,138.24,141.57,140.31,140.44z"/>
	<path d="M161.39,27.63c-0.77,0.52-1.78,1.21-2.59,1.75c-1.71-1.61-3.37-3.18-5.1-4.81c0.74-0.91,1.49-1.82,2.41-2.95
		C157.93,23.68,159.66,25.65,161.39,27.63z"/>
	<path d="M171.49,106.44c1.1,0.46,2.18,0.91,3.42,1.43c-1.12,2.23-2.19,4.38-3.3,6.61c-1.23-0.63-2.35-1.2-3.61-1.84
		C169.18,110.52,170.31,108.52,171.49,106.44z"/>
	<path d="M161.53,32.77c0.96-0.75,1.86-1.46,2.94-2.31c1.47,2.02,2.91,3.99,4.45,6.11c-1.14,0.67-2.14,1.26-3.23,1.9
		C164.31,36.58,162.97,34.74,161.53,32.77z"/>
	<path d="M165.94,116.18c1.07,0.62,2.06,1.18,3.24,1.86c-1.45,2.08-2.84,4.08-4.31,6.18c-1.03-0.84-1.93-1.57-2.91-2.37
		C163.29,119.97,164.57,118.14,165.94,116.18z"/>
	<path d="M131.55,148.95c-2.39,0.88-4.57,1.68-6.88,2.53c-0.36-1.25-0.69-2.4-1.04-3.59c2.2-0.81,4.25-1.58,6.5-2.4
		C130.58,146.59,131.04,147.7,131.55,148.95z"/>
	<path d="M121.1,159.24c-1.23-0.16-2.32-0.29-3.65-0.46c0.45-3.27,0.89-6.51,1.34-9.74c0.21,0,0.42,0.01,0.62,0.01
		C119.99,152.38,122.11,155.41,121.1,159.24z"/>
	<path d="M178.4,56.54c-1.29,0.38-2.38,0.7-3.58,1.05c-0.75-2.14-1.47-4.21-2.24-6.39c1.14-0.41,2.25-0.8,3.52-1.25
		C176.86,52.15,177.6,54.26,178.4,56.54z"/>
	<path d="M171.34,40.14c1.04,2.01,2.05,3.95,3.11,6c-1.3,0.45-2.4,0.83-3.57,1.24c-1.03-1.75-2.02-3.44-3.15-5.36
		C168.94,41.39,170.07,40.8,171.34,40.14z"/>
	<path d="M116.9,162.84c1.26,0.19,2.42,0.37,3.69,0.57c-0.24,1.75-0.46,3.4-0.7,5.19c-1.24-0.16-2.4-0.31-3.69-0.48
		C116.44,166.32,116.66,164.64,116.9,162.84z"/>
</g>
</svg>
