<svg id="Calque_1" data-name="Calque 1" xmlns="http://www.w3.org/2000/svg" viewBox="0 0 200 200"><defs><style>.cls-1{fill:none;}.cls-2{fill:#5762c4;}.cls-3{fill:#575756;}</style></defs><title>Evo_Metiers</title><rect class="cls-1" width="200" height="200"/><path class="cls-2" d="M137,94.77a3.18,3.18,0,0,0-3.07.71,94.38,94.38,0,0,0,1.31-15.59h0c0-.64,0-1.28,0-1.93a35.41,35.41,0,1,0-70.82,0c0,.65,0,1.29,0,1.93h0a94.79,94.79,0,0,0,1.34,15.77,3.19,3.19,0,0,0-3.09-.72c-1.95.82-2.29,4.46-.76,8.13s4.37,6,6.33,5.16a2.82,2.82,0,0,0,.38-.21c3.69,12,10.6,24.87,23.54,31.79v-.16l.18.16h-.17a9.47,9.47,0,0,0,.83.57h0a14.1,14.1,0,0,0,3.19,1.46h0a12.08,12.08,0,0,0,9.28-.8h0l.08,0a14.88,14.88,0,0,0,1.54-.92l.09,0,.84-.52c12.64-7,19.41-19.73,23-31.63a2,2,0,0,0,.36.19c2,.82,4.79-1.49,6.32-5.16S139,95.59,137,94.77Z" transform="translate(0.14 -0.1)"/><path class="cls-2" d="M174.6,177.52q-20.72-8.69-41.45-17.33c-.4-.16-.8-.31-1.29-.48l-.92-.4-.08-.1h-.15l-10.29-4.56-.93,4.24h0l-4.25,20.56-.94,5.55c-.36,1.49-.7,3-1,4.43a.81.81,0,0,0,0,.16h-3.92c-.51-1.77-1-3.38-1.42-5a25,25,0,0,1-.34-3c-.6-1.33-1.92-2.78-1.69-3.94.82-4.26,2.16-8.42,3.31-12.62a20.26,20.26,0,0,1,.25-2.47c1-4.35.85-4.07-3-6.39-4.22-2.54-8.14-3.93-12.44-.41A7.46,7.46,0,0,1,91.6,157c-1.92.63-2,1.88-1.6,3.6a22.9,22.9,0,0,1,.36,3.82c.94,3.17,1.77,6.37,2.84,9.49s.17,5.93-1.54,8.57c-.57,2.33-1.14,4.67-1.74,7.15H86.57a.76.76,0,0,0,0-.15c-.34-1.46-.69-2.93-1-4.42l-1-5.55L80.33,158.9h0l-.93-4.24-10.29,4.56h-.15l-.09.1-.91.41c-.49.17-.9.31-1.29.48q-20.73,8.65-41.45,17.33c-6.41,2.68-9.21,7-9.19,13.89v7.91c.48.06.69.11.9.11H145.27l-.06,0h37.67c.22,0,.43-.05.91-.1v-2.86c0-1.68,0-3.37,0-5.05C183.8,184.47,181,180.2,174.6,177.52Z" transform="translate(0.14 -0.1)"/><path class="cls-3" d="M191.3,84.79c0-1.81-.71-2.46-2.38-2.71-5.16-.79-10.3-1.74-15.46-2.53-3.18-.49-5.25-2.07-6.08-5.27a66.08,66.08,0,0,0-6.91-16.64A6.53,6.53,0,0,1,161,49.8c3.1-4.21,6.09-8.5,9.11-12.76.42-.59.75-1.23,1.2-2a21.42,21.42,0,0,0-1.39-1.75c-3.59-3.61-7.27-7.15-10.78-10.84-1.3-1.37-2.26-1.42-3.74-.31-4.3,3.2-8.7,6.27-13,9.42a6.13,6.13,0,0,1-7.14.54,76.88,76.88,0,0,0-18-7.36,6.1,6.1,0,0,1-4.68-5.41c-.85-5.35-1.86-10.68-2.67-16-.26-1.69-1-2.22-2.63-2.19-5.16.08-10.32.11-15.48,0-1.83,0-2.48.69-2.74,2.34-.8,5-1.79,10-2.48,15.06-.5,3.6-2.29,5.62-5.77,6.86A165.63,165.63,0,0,0,64.94,32c-3.08,1.47-5.65,1.51-8.4-.53-4.25-3.16-8.62-6.16-12.9-9.27a2,2,0,0,0-3.09.25Q35,28.17,29.3,33.7c-1.22,1.19-1.18,2.11-.21,3.44,3.14,4.26,6.1,8.65,9.25,12.9,2,2.68,2,5.17.65,8.21C36.52,63.58,34.27,69,32.34,74.57c-1.14,3.27-3.06,5-6.39,5.46-5.09.77-10.16,1.69-15.25,2.49-1.56.24-2.32.82-2.28,2.58.11,5.23.09,10.46,0,15.69,0,1.72.65,2.34,2.27,2.59,5.35.84,10.68,1.86,16,2.69a6.49,6.49,0,0,1,5.72,5.13,68.54,68.54,0,0,0,7,16.61,6.55,6.55,0,0,1-.46,7.85c-3.13,4.27-6.11,8.65-9.26,12.9-1.06,1.44-.91,2.39.34,3.61,3.71,3.58,7.37,7.23,10.94,11,1.21,1.25,2.11,1.19,3.43.23,4.27-3.13,8.65-6.1,12.91-9.25a7,7,0,0,1,6.81-1.19l11.67-5a60.38,60.38,0,1,1,48.28-.09l11.44,4.87a6.37,6.37,0,0,1,6.9.9c4.38,3.2,8.85,6.28,13.24,9.47a2,2,0,0,0,3.11-.26c3.69-3.79,7.45-7.52,11.24-11.22a2.14,2.14,0,0,0,.28-3.29c-3.12-4.28-6.1-8.66-9.24-12.92-2-2.67-2-5.18-.62-8.22,2.5-5.31,4.79-10.74,6.77-16.26,1.16-3.25,3-5,6.38-5.5,5.16-.77,10.3-1.72,15.46-2.49a2.24,2.24,0,0,0,2.23-2.66C191.22,95.11,191.2,90,191.3,84.79Z" transform="translate(0.14 -0.1)"/></svg>