<svg id="Calque_1" data-name="Calque 1" xmlns="http://www.w3.org/2000/svg" viewBox="0 0 200 200"><defs><style>.cls-1{fill:#ff5356;}.cls-2,.cls-4{fill:none;}.cls-3{fill:#575756;}.cls-4{stroke:#fff;stroke-linecap:round;stroke-linejoin:round;stroke-width:3px;}</style></defs><title>Evo_Savoirs</title><path class="cls-1" d="M195.8,88.78c-7.66-11.61-8.78-17-8.78-17,.22-8.61-4.51-10.54-4.51-10.54a12,12,0,0,1-7.43-4.52c-16.22-29-56.1-30.55-56.1-30.55a49.61,49.61,0,0,1-13.74-2.37c-16.67-4.08-39.41,2-39.41,2V152.46l.06.07c4.53,5.48,13.91-.07,13.91-.07,7.21-7.1,13.86-6.35,13.86-6.35-3.7,3.32-2.37,8.94-2.37,8.94,2.25,7.09,3.38,11.21,3.38,11.21,10.36,13.79,24.24,11.79,24.24,11.79,9.6-2.38,13.34-.78,13.34-.78a30.28,30.28,0,0,0,22.26-3c14.57-12.14,9.78-18.48,9.78-18.48,13.76,4.46,18.24-2.09,18.24-2.09,1.8-4.73,7.89-8.6,7.89-8.6,7.66-3.44,8.11-12.69,8.11-12.69C203.91,101.48,195.8,88.78,195.8,88.78Z" transform="translate(-0.38 -0.31)"/><rect class="cls-2" width="200" height="200"/><path class="cls-3" d="M61.11,115.38H60.4a26.38,26.38,0,0,1,.72-52.75V28.3c-2.52,0-5,0-7.56,0-2,0-2.87.93-2.87,2.91v9.53c0,1.91-.61,2.63-2.36,3.34-3,1.22-6,2.52-8.92,3.87-1.57.73-2.56.67-3.77-.57-2.44-2.48-4.85-5-7.29-7.47a2.62,2.62,0,0,0-4.13,0L13,51.14a2.64,2.64,0,0,0,.07,4c2.47,2.34,5,4.66,7.42,7a2.64,2.64,0,0,1,.64,3.32q-2.43,5.37-4.79,10.76C15.56,78.05,15,78.48,13,78.48H3.43a3.16,3.16,0,0,0-3,3q0,8.84,0,17.68a3.33,3.33,0,0,0,3.24,3.19h9.58c1.87,0,2.49.49,3.2,2.2q1.8,4.31,3.73,8.57c.75,1.64.66,2.63-.65,3.89L13.22,123a2.59,2.59,0,0,0-.06,4q5.6,5.61,11.23,11.19a2.65,2.65,0,0,0,4.09-.09l5.4-5.8c1.34-1.45,2.33-1.57,4.11-.74,3.51,1.65,7,3.23,10.6,4.78a2.93,2.93,0,0,1,2.11,3.06c0,3.3,0,6.6,0,9.9a3.07,3.07,0,0,0,2.9,3h7.57l-.06-.07Z" transform="translate(-0.38 -0.31)"/><path class="cls-3" d="M60.27,67.9a21.11,21.11,0,0,0,.84,42.2V67.88Z" transform="translate(-0.38 -0.31)"/><path class="cls-4" d="M143.58,94.66c6.08-6.07,6.34-15.67.58-21.44s-15.36-5.54-21.44.53" transform="translate(-0.38 -0.31)"/><path class="cls-4" d="M122.72,96.62c-3.51-3-11.23-4-19.62-2.13C92.39,96.88,84.65,103,85.81,108.22" transform="translate(-0.38 -0.31)"/><path class="cls-4" d="M85.1,108c-4.93-3.17-9.8-4.57-13.11-3.75" transform="translate(-0.38 -0.31)"/><path class="cls-4" d="M172.67,74.71a15.35,15.35,0,0,0-18.78-6" transform="translate(-0.38 -0.31)"/><path class="cls-4" d="M153.74,68.28a22.8,22.8,0,0,0-12-14.5" transform="translate(-0.38 -0.31)"/><path class="cls-4" d="M151.61,46.94c-2.23-2.3-6.39-4.23-11.33-5a22.14,22.14,0,0,0-11.25.86" transform="translate(-0.38 -0.31)"/><path class="cls-4" d="M168.93,134.67c1.27-2.94,1.47-7.52.28-12.38a22.15,22.15,0,0,0-5.11-10.06" transform="translate(-0.38 -0.31)"/><path class="cls-4" d="M164.75,112.3a10,10,0,0,0,5.61-2.9,10.66,10.66,0,0,0,3.08-4.84" transform="translate(-0.38 -0.31)"/><path class="cls-4" d="M117,53.43c-2.47,2-4.71,6-5.84,10.93a22.1,22.1,0,0,0,0,11.27" transform="translate(-0.38 -0.31)"/><path class="cls-4" d="M95.15,64.52C92,64,87.5,65,83.09,67.37a22.1,22.1,0,0,0-8.45,7.47" transform="translate(-0.38 -0.31)"/><path class="cls-4" d="M125.17,117.93c4.94.2,11.65-2.07,18-6.49,5.59-3.9,9.71-8.64,11.65-12.94" transform="translate(-0.38 -0.31)"/><path class="cls-4" d="M124.46,117.82a56.93,56.93,0,0,0-19.4-2.28c-8.63.34-16.28,2.18-21.31,4.79" transform="translate(-0.38 -0.31)"/><path class="cls-4" d="M108.07,133.22c2.68,2.18,7.38,3.72,12.78,3.89a23.76,23.76,0,0,0,11.93-2.37" transform="translate(-0.38 -0.31)"/><path class="cls-4" d="M132.85,134.67c2.35,1.91,6.46,3.25,11.17,3.4A20.88,20.88,0,0,0,154.45,136" transform="translate(-0.38 -0.31)"/><path class="cls-4" d="M83.16,140.08c3.36,1.2,8.47,1.08,13.78-.6a24.79,24.79,0,0,0,10.8-6.41" transform="translate(-0.38 -0.31)"/><path class="cls-4" d="M190.88,125.86a10,10,0,0,0-3.6-12.37" transform="translate(-0.38 -0.31)"/><path class="cls-4" d="M106.56,43c-9.67,1.8-17,10.75-16.83,21.44" transform="translate(-0.38 -0.31)"/></svg>