<svg id="Calque_1" data-name="Calque 1" xmlns="http://www.w3.org/2000/svg" viewBox="0 0 200 200"><defs><style>.cls-1{fill:none;}.cls-2{fill:#575756;}.cls-3{fill:#61c855;}</style></defs><title>Immobilier</title><rect class="cls-1" y="0.48" width="200" height="199.04"/><path class="cls-1" d="M99.32,159.1a29.16,29.16,0,0,0,30-27.65h-5.82a23.49,23.49,0,0,1-46.87,0H70.79A29.19,29.19,0,0,0,99.32,159.1Z" transform="translate(0 0)"/><path class="cls-2" d="M99.32,159.1a29.19,29.19,0,0,1-28.53-27.65H32.61q0,4.83,0,9.66a3.7,3.7,0,0,0,3.61,3.53H46.88c2.08,0,2.77.54,3.57,2.43,1.33,3.18,2.7,6.35,4.14,9.48.83,1.82.73,2.92-.72,4.31q-3.51,3.36-7,6.73a2.86,2.86,0,0,0-.07,4.45q6.23,6.19,12.49,12.37a2.94,2.94,0,0,0,4.54-.09q3-3.19,6-6.42c1.49-1.61,2.59-1.74,4.57-.81,3.9,1.81,7.84,3.56,11.79,5.28a3.24,3.24,0,0,1,2.34,3.39c0,3.65,0,7.3,0,11A3.39,3.39,0,0,0,91.76,200c6.5,0,13,0,19.49,0a3.63,3.63,0,0,0,3.56-3.64V185.71a3,3,0,0,1,2.13-3.17c4-1.78,8.09-3.56,12.1-5.41a3.15,3.15,0,0,1,4.11.71q3.06,3.21,6.15,6.4a2.93,2.93,0,0,0,4.42.06Q149.89,178.15,156,172c1.6-1.62,1.54-3.29-.13-4.82q-3.28-3-6.54-6a3.11,3.11,0,0,1-.78-4.09q2.26-5,4.41-10.1c.75-1.77,1.51-2.37,3.44-2.38,2.52,0,5,0,7.54,0,2.3,0,3.43-1.09,3.43-3.41v-9.75H129.34A29.16,29.16,0,0,1,99.32,159.1Z" transform="translate(0 0)"/><path class="cls-2" d="M100.76,153.26a23.62,23.62,0,0,0,22.76-21.81H76.65A23.51,23.51,0,0,0,100.76,153.26Z" transform="translate(0 0)"/><path class="cls-3" d="M32.59,67.84V127.4H45.47V110.53h12V127.4H70.57V67.84Zm13.73,34.42H37.16V93.15h9.16Zm0-17H37.16V76.1h9.16Zm19.67,17H56.83V93.15H66Zm0-17H56.83V76.1H66Z" transform="translate(0 0)"/><path class="cls-3" d="M81.08,33.92V127.4h13V110.53h12V127.4h12.89V33.92ZM105.16,42h9.15v9.11h-9.15ZM85.49,42h9.15v9.11H85.49Zm0,17h9.15v9.11H85.49Zm9.32,43.2H85.66V93.15h9.15Zm0-17H85.66V76.1h9.15Zm10.35-26.16h9.15v9.11h-9.15Zm9.32,43.2h-9.15V93.15h9.15Zm0-17h-9.15V76.1h9.15Z" transform="translate(0 0)"/><path class="cls-3" d="M129.4,0V127.4h13.06V110.53h12V127.4h12.88V0Zm24.25,7.93h9.16V17h-9.16Zm0,17h9.16v9.12h-9.16Zm0,17.05h9.16v9.11h-9.16ZM134,7.93h9.16V17H134Zm0,17h9.16v9.12H134ZM134,42h9.16v9.11H134Zm0,17h9.16v9.11H134Zm9.33,43.2h-9.16V93.15h9.16Zm0-17h-9.16V76.1h9.16Zm10.34-26.16h9.16v9.11h-9.16Zm9.32,43.2h-9.15V93.15H163Zm0-17h-9.15V76.1H163Z" transform="translate(0 0)"/></svg>