<svg id="Calque_1" data-name="Calque 1" xmlns="http://www.w3.org/2000/svg" viewBox="0 0 200 200"><defs><style>.cls-1{fill:none;}.cls-2{fill:#575756;}.cls-3{fill:#fecc38;}</style></defs><title>Innovation</title><rect class="cls-1" width="200" height="200"/><path class="cls-2" d="M120,160.92H88a2.75,2.75,0,0,0-2.68,2.8v19.81a4,4,0,0,0,2.39,3.7A5.83,5.83,0,0,0,90,190.72a15.37,15.37,0,0,0,14,9.57h0a15.38,15.38,0,0,0,14-9.57,5.83,5.83,0,0,0,2.26-3.49,4,4,0,0,0,2.39-3.7V163.72A2.75,2.75,0,0,0,120,160.92Z" transform="translate(-0.37 -0.31)"/><path class="cls-2" d="M154.05,55c0-.89-.35-1.22-1.19-1.35-2.57-.39-5.13-.86-7.7-1.26a3.32,3.32,0,0,1-3-2.62,33,33,0,0,0-3.45-8.3,3.28,3.28,0,0,1,.26-3.91c1.55-2.09,3-4.23,4.54-6.36.21-.29.38-.61.6-1a9.8,9.8,0,0,0-.69-.87c-1.79-1.81-3.62-3.57-5.37-5.41a1.18,1.18,0,0,0-1.87-.15c-2.14,1.6-4.33,3.12-6.49,4.69a3.08,3.08,0,0,1-3.56.28,38.26,38.26,0,0,0-9-3.68,3,3,0,0,1-2.33-2.69c-.43-2.67-.93-5.33-1.33-8-.13-.84-.48-1.1-1.31-1.09l-3.3,0V36.75a22.13,22.13,0,0,1,0,44.26v23.43c1.12,0,2.25,0,3.38,0,1,0,1.27-.35,1.41-1.23.4-2.67.9-5.33,1.33-8a3,3,0,0,1,2.4-2.64,35,35,0,0,0,8.48-3.51,3.23,3.23,0,0,1,3.83.25c2.18,1.6,4.41,3.14,6.6,4.73a1,1,0,0,0,1.55-.13c1.84-1.89,3.71-3.75,5.6-5.6a1.07,1.07,0,0,0,.14-1.64c-1.56-2.13-3-4.31-4.61-6.44a3.6,3.6,0,0,1-.3-4.09c1.24-2.65,2.38-5.36,3.37-8.11a3.68,3.68,0,0,1,3.18-2.74c2.57-.38,5.13-.86,7.71-1.24a1.12,1.12,0,0,0,1.11-1.33C154,60.19,154,57.62,154.05,55Z" transform="translate(-0.37 -0.31)"/><path class="cls-2" d="M124.82,58.87a16.42,16.42,0,0,0-15.95-16.33v32.7A16.45,16.45,0,0,0,124.82,58.87Z" transform="translate(-0.37 -0.31)"/><path class="cls-3" d="M94.54,1.2C51.25,8.59,32.15,59.61,59.2,94.3a145.39,145.39,0,0,1,13.34,20.78,110.83,110.83,0,0,1,12.12,39.68c.09.84,1,2.18,1.66,2.25s1.18.09,1.77.12v0h1c.83,0,1.66,0,2.48,0l13.09-.07V.34A60.28,60.28,0,0,0,94.54,1.2Z" transform="translate(-0.37 -0.31)"/></svg>