<svg id="Calque_1" data-name="Calque 1" xmlns="http://www.w3.org/2000/svg" viewBox="0 0 200.23 200"><defs><style>.cls-1,.cls-4{fill:none;}.cls-2{fill:#575756;}.cls-3{fill:#a452cb;}.cls-4{stroke:#a452cb;stroke-linecap:round;stroke-linejoin:round;stroke-width:5px;}</style></defs><title>Uni_Inc_Design</title><rect class="cls-1" x="0.23" width="200" height="200"/><path class="cls-2" d="M161.87,177.59c-.82-.51-1.5-.9-2.14-1.35-4.55-3.23-9.14-6.4-13.61-9.74-2.91-2.18-5.64-2.1-8.88-.58-5.68,2.66-11.48,5.13-17.38,7.23-3.49,1.24-5.51,3.13-6.06,6.79-.82,5.51-1.88,11-2.68,16.5-.3,2-1.11,2.78-3.23,2.73-5.5-.14-11-.12-16.52,0-1.85,0-2.57-.65-2.84-2.41-.84-5.58-1.86-11.13-2.69-16.71-.55-3.62-2.46-5.64-6-6.86A172,172,0,0,1,63,166.29c-3.42-1.62-6.26-1.57-9.28.68-4.59,3.42-9.34,6.62-14,10-1.39,1-2.32.92-3.52-.32q-5.89-6.08-12-12C23,163.39,23,162.37,24,160.94c3.42-4.68,6.71-9.45,10.12-14.14a6.85,6.85,0,0,0,.53-8.1,78.76,78.76,0,0,1-7.81-18.55,6.68,6.68,0,0,0-5.8-5.13c-5.78-1-11.54-2-17.33-2.93-1.9-.29-2.78-.89-2.73-3,.14-5.57.12-11.16,0-16.73,0-1.86.69-2.57,2.42-2.84,5.43-.85,10.83-1.89,16.28-2.65,3.9-.54,6-2.52,7.29-6.32a170.44,170.44,0,0,1,7-17.23c1.53-3.27,1.51-6-.64-8.87-3.45-4.65-6.7-9.46-10.12-14.13-1-1.39-.93-2.34.29-3.53q6.15-6,12.15-12.14c1.24-1.28,2.19-1.18,3.52-.2C43.79,27.77,48.46,31,53,34.33c3,2.21,5.75,2.21,9.08.63,5.67-2.69,11.47-5.14,17.35-7.3,3.55-1.3,5.5-3.37,6-7.09.78-5.44,1.84-10.85,2.65-16.28.32-2.14,1.22-2.86,3.42-2.79,5.5.16,11,.1,16.52,0,1.75,0,2.4.65,2.66,2.32.91,5.86,2,11.7,2.94,17.55a6.44,6.44,0,0,0,5,5.66,82.68,82.68,0,0,1,19.43,8,6.63,6.63,0,0,0,7.72-.54c4.69-3.4,9.44-6.73,14.09-10.18,1.56-1.16,2.62-1.25,4.06.27q5.6,5.93,11.53,11.52c1.65,1.56,1.55,2.72.29,4.43-3.33,4.47-6.45,9.1-9.76,13.58-2.1,2.85-2,5.53-.57,8.7,2.68,5.75,5.18,11.61,7.32,17.58,1.25,3.51,3.25,5.42,6.87,6,5.51.82,11,1.85,16.5,2.69,1.77.27,2.66.89,2.62,2.89-.11,5.58-.1,11.16,0,16.74,0,1.93-.77,2.66-2.59,2.94-5.58.84-11.13,1.84-16.71,2.7-3.42.53-5.68,2.22-6.59,5.68a71.76,71.76,0,0,1-7.48,18c-1.74,3-1.47,5.73.54,8.49,3.41,4.68,6.7,9.46,10.12,14.14,1,1.37,1,2.36-.25,3.56-4.15,4-8.22,8.17-12.33,12.25A14.78,14.78,0,0,1,161.87,177.59ZM99.94,52.27a48,48,0,1,0,47.93,48A48.08,48.08,0,0,0,99.94,52.27Z" transform="translate(0.23)"/><path class="cls-3" d="M99.77,64.86A35.48,35.48,0,1,1,64.38,100.3,35.63,35.63,0,0,1,99.77,64.86Z" transform="translate(0.23)"/><path class="cls-4" d="M26.14,118.37C5,147.21-3.55,172.45,6.41,183.63,21.89,201,76.28,177.79,127.9,131.79S208.8,34.41,193.32,17c-10-11.22-36.22-5.52-67.44,12.32" transform="translate(0.23)"/><path class="cls-4" d="M173.48,118.22c21.2,28.9,29.82,54.21,19.84,65.41-15.48,17.37-69.88-5.84-121.49-51.84S-9.08,34.41,6.41,17c10-11.27,36.47-5.46,67.89,12.58" transform="translate(0.23)"/><path class="cls-2" d="M178.19,114.55s-4.14-.13-5.83,7.11-6.49-4.09-6.49-4.09l6.54-7Z" transform="translate(0.23)"/><path class="cls-2" d="M130.58,31.26a44.66,44.66,0,0,0-8.32-3.14c-3.44-.73,2.66,4.93,2.66,4.93Z" transform="translate(0.23)"/><path class="cls-2" d="M77.51,28.37s-5.48,2.1-7.35,2.95,6.4,2.17,6.4,2.17Z" transform="translate(0.23)"/><path class="cls-2" d="M24.17,116.19A13.17,13.17,0,0,1,27.39,122c.81,3.44,3.86-7.46,3.86-7.46l-4.79-.87-2.62.87Z" transform="translate(0.23)"/></svg>