<?xml version="1.0" encoding="utf-8"?>
<!-- Generator: Adobe Illustrator 24.0.1, SVG Export Plug-In . SVG Version: 6.00 Build 0)  -->
<svg version="1.1" id="Calque_1" xmlns="http://www.w3.org/2000/svg" xmlns:xlink="http://www.w3.org/1999/xlink" x="0px" y="0px"
	 viewBox="0 0 80 80" style="enable-background:new 0 0 80 80;" xml:space="preserve">
<style type="text/css">
	.st0{fill:#E84A19;}
	.st1{fill:none;}
</style>
<g>
	<path class="st0" d="M79.8,25.5c-0.4,7.4-3.1,14-7.2,20C65.9,55.7,56.9,63.5,47,70.4c-2,1.4-4.1,2.8-6.3,4.1
		c-0.4,0.2-1.2,0.3-1.6,0C27.5,67.3,16.9,58.9,8.7,47.8c-4.3-5.9-7.4-12.3-8.4-19.7C-1.3,16,8.2,4.9,20.4,5.4
		c7.9,0.3,13.5,4.6,17.1,11.7c0.4,0.7,0.9,1.6,1.6,2c1.2,0.7,2.5,0,3.2-1.5c2.6-6,7.1-9.8,13.3-11.6c9.8-2.8,20.7,3.7,23.4,13.9
		C79.4,21.7,79.5,23.6,79.8,25.5z"/>
	<rect y="0" class="st1" width="80" height="80"/>
</g>
</svg>
