<?xml version="1.0" encoding="utf-8"?>
<!-- Generator: Adobe Illustrator 24.0.1, SVG Export Plug-In . SVG Version: 6.00 Build 0)  -->
<svg version="1.1" id="Calque_1" xmlns="http://www.w3.org/2000/svg" xmlns:xlink="http://www.w3.org/1999/xlink" x="0px" y="0px"
	 viewBox="0 0 80 80" style="enable-background:new 0 0 80 80;" xml:space="preserve">
<style type="text/css">
	.st0{fill:#E84A19;}
	.st1{fill:none;}
</style>
<g>
	<path class="st0" d="M76.3,14.5H54.1V9.6c0-2-1.7-3.7-3.7-3.7H30c-2,0-3.7,1.7-3.7,3.7v4.9H3.7c-2,0-3.7,1.7-3.7,3.7v12
		c0,3.3,0.9,6.3,2.5,9v31.3c0,2,1.7,3.7,3.7,3.7h67.3c2,0,3.7-1.7,3.7-3.7V39.7c1.8-2.7,2.8-6,2.8-9.5v-12
		C80,16.2,78.3,14.5,76.3,14.5z M45.9,48.7c0,1.6-1.3,2.9-2.9,2.9h-6.3c-1.6,0-2.9-1.3-2.9-2.9v-6.3c0-1.6,1.3-2.9,2.9-2.9h6.3
		c1.6,0,2.9,1.3,2.9,2.9V48.7z M50.2,14.5H29.9v-0.6c0-2,1.7-3.7,3.7-3.7h12.9c2,0,3.7,1.7,3.7,3.7V14.5z"/>
	<rect x="0" y="0" class="st1" width="80" height="80"/>
</g>
</svg>
