<?xml version="1.0" encoding="utf-8"?>
<!-- Generator: Adobe Illustrator 24.0.1, SVG Export Plug-In . SVG Version: 6.00 Build 0)  -->
<svg version="1.1" id="Calque_1" xmlns="http://www.w3.org/2000/svg" xmlns:xlink="http://www.w3.org/1999/xlink" x="0px" y="0px"
	 viewBox="0 0 80 80" style="enable-background:new 0 0 80 80;" xml:space="preserve">
<style type="text/css">
	.st0{fill:#E84A19;}
	.st1{fill:none;}
</style>
<g>
	<path class="st0" d="M40,0c22.1,0,40,17.9,40,40C80,62,62,80,40,80C17.9,80,0,62,0,40C0,17.9,18,0,40,0z M13.5,64.9
		c0.3-0.2,0.5-0.4,0.7-0.6c2.2-1.5,4.5-3.1,6.7-4.6c0.6-0.4,0.8-0.7,0.6-1.3c-1.2-4.4-1.9-8.8-2.2-13.3c-0.1-1.1-0.1-2.2-0.2-3.3
		c-5.2,0-10.3,0-15.5,0C3.9,49.5,7.3,58.5,13.5,64.9z M60.9,41.8c0,0.2-0.1,0.2-0.1,0.3c-0.2,5.6-0.9,11.2-2.4,16.6
		c-0.1,0.5,0.1,0.7,0.5,0.9c2.6,1.4,5,3,7.2,4.9c0.1,0.1,0.3,0.2,0.5,0.3c6-6.6,9.3-14.2,9.8-23.1C71.2,41.8,66.1,41.8,60.9,41.8z
		 M60.9,38.1c5.2,0,10.3,0,15.5,0c-0.6-8.9-3.8-16.5-9.8-23c-0.3,0.2-0.5,0.4-0.7,0.6c-2.3,1.6-4.5,3.1-6.8,4.6
		c-0.5,0.4-0.7,0.6-0.6,1.3c0.7,3.5,1.4,7,1.9,10.5C60.7,34.1,60.7,36.1,60.9,38.1z M19.2,38.2c0.1-5.9,0.9-11.7,2.5-17.2
		c-2.9-2-5.6-3.9-8.3-5.8c-5.9,6.4-9.1,14.1-9.7,22.9C8.8,38.2,14,38.2,19.2,38.2z M55,57.8c1.5-5.3,2.1-10.6,2.3-16
		c-5.2,0-10.3,0-15.5,0c0,4.4,0,8.7,0,13.1C46.3,55.2,50.7,56.1,55,57.8z M38.2,54.9c0-4.4,0-8.8,0-13.1c-5.2,0-10.3,0-15.4,0
		c0.2,5.4,0.8,10.7,2.3,16C29.3,56.1,33.7,55.2,38.2,54.9z M22.7,38.2c5.2,0,10.3,0,15.5,0c0-4.3,0-8.6,0-12.9
		c-2.3-0.3-4.5-0.5-6.7-1c-2.2-0.5-4.3-1.2-6.5-1.9C23.5,27.5,22.9,32.8,22.7,38.2z M41.8,38.2c5.2,0,10.3,0,15.5,0
		c-0.2-5.4-0.8-10.7-2.3-15.9c-4.3,1.7-8.7,2.7-13.2,2.9C41.8,29.6,41.8,33.9,41.8,38.2z M41.8,4.2c0,5.8,0,11.6,0,17.4
		c4.2-0.2,8.2-1.1,12.1-2.7c-1.6-4.3-3.5-8.2-6.7-11.5C45.8,5.9,44.1,4.7,41.8,4.2z M38.2,4.2c-1.7,0.4-3.1,1.2-4.4,2.2
		c-2.6,2.2-4.4,5-5.9,8c-0.7,1.4-1.3,2.9-1.9,4.4c4,1.6,8,2.5,12.2,2.7C38.2,15.8,38.2,10,38.2,4.2z M53.9,61.2
		c-3.9-1.6-7.9-2.5-12.1-2.7c0,5.8,0,11.5,0,17.5c1.1-0.5,2.1-0.9,3-1.4c1.9-1.2,3.4-2.8,4.7-4.7C51.4,67.2,52.8,64.3,53.9,61.2z
		 M38.2,58.5c-4.5,0.1-9.9,1.6-12.2,2.9c1.1,2.2,2.1,4.5,3.3,6.7c1.5,2.6,3.3,4.9,5.9,6.5c0.9,0.6,1.9,0.9,3,1.5
		C38.2,70,38.2,64.3,38.2,58.5z M50.2,5c1.3,1.9,2.8,3.8,3.9,5.8c1.2,2,2.1,4.3,3.2,6.6c2.2-1.5,4.4-3.1,6.7-4.7
		C59.9,9.1,55.3,6.5,50.2,5z M15.9,12.7c2.3,1.6,4.6,3.2,6.9,4.8c1.8-4.7,3.9-8.9,7.2-12.4C24.7,6.5,20.1,9,15.9,12.7z M29.9,74.9
		c-3.2-3.5-5.3-7.7-7.1-12.3c-2.3,1.6-4.5,3.1-6.8,4.7C20.2,71,24.7,73.5,29.9,74.9z M50.1,74.9c5.2-1.4,9.8-3.9,14-7.6
		c-2.3-1.6-4.5-3.1-6.8-4.7C55.5,67.2,53.4,71.4,50.1,74.9z"/>
	<rect class="st1" width="80" height="80"/>
</g>
</svg>
