<?xml version="1.0" encoding="utf-8"?>
<!-- Generator: Adobe Illustrator 24.0.1, SVG Export Plug-In . SVG Version: 6.00 Build 0)  -->
<svg version="1.1" id="Calque_1" xmlns="http://www.w3.org/2000/svg" xmlns:xlink="http://www.w3.org/1999/xlink" x="0px" y="0px"
	 viewBox="0 0 80 80" style="enable-background:new 0 0 80 80;" xml:space="preserve">
<style type="text/css">
	.st0{fill:#E84A19;}
	.st1{fill:none;}
</style>
<g>
	<path class="st0" d="M39.6,0c1.8,0,3.5,0,5.3,0c0.3,0.1,0.7,0.2,1,0.2c4.7,0.3,9.3,1.2,13.7,3.1C69.9,7.5,76.7,14.9,79.2,26
		c0.4,1.6,0.5,3.2,0.8,4.8c0,1.9,0,3.8,0,5.7c-0.1,0.2-0.2,0.4-0.2,0.6c-0.4,3.9-1.6,7.7-3.7,11C70.5,56.9,62.6,61.5,52,60.4
		c-3.9-0.4-6.2-2.7-6.7-6.6c-0.1-0.9-0.1-1.8-0.2-3c-0.4,0.6-0.7,0.9-1,1.3c-2.3,3-4.7,5.7-8.3,7.3c-7.5,3.3-13.9,0.3-16-7.3
		c-0.6-2.3-0.6-4.7-0.4-7.1c0.8-7.9,3.8-14.8,9.6-20.2c3.5-3.3,7.5-5.3,12.5-5.2c3.3,0,6.2,1.2,8.7,3.3c0.8-0.8,1.5-1.5,2.2-2.2
		c0.2-0.2,0.5-0.5,0.8-0.6c1.9,0,3.8,0,5.7,0c0,0.4,0,0.7-0.1,1c-1,5.8-2.1,11.6-3.1,17.4c-0.5,3.2-1,6.3-1.2,9.5
		c-0.2,2.6,1.1,3.7,3.7,3.5c0.5,0,0.9-0.1,1.4-0.2c4.4-1,7-3.9,8.6-7.8c2-4.7,2.1-9.6,1.4-14.5c-1.1-7.4-4.8-12.9-11.5-16.3
		c-7-3.6-14.5-4.3-22.1-3C25.6,11.5,17.8,17.3,13,27.1c-3.3,6.8-3.8,14-2.5,21.4c1.1,6.2,3.8,11.5,8.7,15.6
		c5.5,4.6,12.1,6.3,19.1,6.7c4.9,0.3,9.7-0.4,14.3-2.4c0.9,2.8,1.8,5.6,2.8,8.5c-1.9,0.6-3.7,1.4-5.5,1.9
		c-7.6,1.8-15.2,1.5-22.7-0.3c-10.8-2.7-18.9-8.7-23.6-19C-0.1,51.3-0.7,42.7,0.7,34C3.5,17,16.5,4,33.4,0.9
		C35.4,0.5,37.5,0.3,39.6,0z M30.2,44.7c0,0.5,0,1.1,0,1.6c0.3,3.6,2.3,5.6,5.7,5.1c0.9-0.1,1.8-0.5,2.5-0.9c3-1.9,5.1-4.6,6.8-7.6
		c0.1-0.2,0.2-0.5,0.2-0.8c0.6-3.5,1.2-7.1,1.9-10.6c0.2-0.8-0.1-1.2-0.7-1.6c-2.9-2-7-1.8-10,0.6C32.1,34.1,30.4,39.1,30.2,44.7z"
		/>
	<rect y="0" class="st1" width="80" height="80"/>
</g>
</svg>
