<?xml version="1.0" encoding="utf-8"?>
<!-- Generator: Adobe Illustrator 24.0.1, SVG Export Plug-In . SVG Version: 6.00 Build 0)  -->
<svg version="1.1" id="Calque_1" xmlns="http://www.w3.org/2000/svg" xmlns:xlink="http://www.w3.org/1999/xlink" x="0px" y="0px"
	 viewBox="0 0 80 80" style="enable-background:new 0 0 80 80;" xml:space="preserve">
<style type="text/css">
	.st0{fill:#E84A19;}
	.st1{fill:none;}
</style>
<g>
	<path class="st0" d="M78.6,32.9c-7.1-1.8-14.3-3.6-21.4-5.4c-1.4-0.3-1.8-1-1.8-2.3c0.1-4.8,0-9.5,0.1-14.3c0-1.4,0.3-2.7,0.5-4.3
		c-0.7-0.2-1.7-0.5-2.8-0.8c-7.3-2.2-14.5-4.4-22.1-1c-1,0.4-2.1,0.5-3.1,0.8c-1.4,0.4-2.8,0.8-3.9,1.1c0.3,1.3,0.6,2.2,0.6,3.1
		c0.1,5.1-0.1,10.1,0.1,15.2c0,1.7-0.6,2.4-2.2,2.7c-7,1.7-14,3.4-21,5.2C0.9,33,0.4,33.6-0.2,34c0.5,0.6,0.9,1.3,1.4,1.9
		c0.2,0,0.4,0,0.6,0c0,13.7,0,27.4,0,41c10.7,0,21.3,0,32,0V55h12.7v22c10.7,0,21.4,0,32.1,0c0-0.8,0-1.3,0-1.9c0-12.5,0-25,0-37.5
		c0-0.7,0.3-1.4,0.6-2c0.3-0.6,1-1.2,0.9-1.7C80,33.4,79.2,33,78.6,32.9z M13.9,65.9H6.7v-9.1c0-2,1.6-3.6,3.6-3.6s3.6,1.6,3.6,3.6
		V65.9z M13.9,51.4H6.7v-9.1c0-2,1.6-3.6,3.6-3.6s3.6,1.6,3.6,3.6V51.4z M26.6,65.9h-7.2v-9.1c0-2,1.6-3.6,3.6-3.6s3.6,1.6,3.6,3.6
		V65.9z M26.6,51.4h-7.2v-9.1c0-2,1.6-3.6,3.6-3.6s3.6,1.6,3.6,3.6V51.4z M35.6,17.6c0-2.3,1.9-4.2,4.2-4.2c2.3,0,4.2,1.9,4.2,4.2
		v8.4h-8.4V17.6z M37.4,51.4h-7.2v-9.1c0-2,1.6-3.6,3.6-3.6s3.6,1.6,3.6,3.6V51.4z M50.1,51.4h-7.2v-9.1c0-2,1.6-3.6,3.6-3.6
		c2,0,3.6,1.6,3.6,3.6V51.4z M61,65.9h-7.2v-9.1c0-2,1.6-3.6,3.6-3.6s3.6,1.6,3.6,3.6V65.9z M61,51.4h-7.2v-9.1c0-2,1.6-3.6,3.6-3.6
		s3.6,1.6,3.6,3.6V51.4z M73.7,65.9h-7.2v-9.1c0-2,1.6-3.6,3.6-3.6s3.6,1.6,3.6,3.6V65.9z M73.7,51.4h-7.2v-9.1c0-2,1.6-3.6,3.6-3.6
		s3.6,1.6,3.6,3.6V51.4z"/>
	<rect x="0" class="st1" width="80" height="80"/>
</g>
</svg>
