<?xml version="1.0" encoding="utf-8"?>
<!-- Generator: Adobe Illustrator 24.0.1, SVG Export Plug-In . SVG Version: 6.00 Build 0)  -->
<svg version="1.1" id="Calque_1" xmlns="http://www.w3.org/2000/svg" xmlns:xlink="http://www.w3.org/1999/xlink" x="0px" y="0px"
	 viewBox="0 0 80 80" style="enable-background:new 0 0 80 80;" xml:space="preserve">
<style type="text/css">
	.st0{fill:#E84A19;}
	.st1{fill:none;}
</style>
<g>
	<g>
		<path class="st0" d="M25.1,32.1C24,31.5,23,30.9,22,30.3c-2.3-1.4-4.7-2.8-7-4.1c-2.6-1.4-3.3-4.8-1.9-7.1
			c0.8-1.3,1.6-2.7,2.4-4.1c1.4-2.3,4.3-3.2,6.6-1.9c2.7,1.5,5.3,3,7.9,4.5c0.7,0.4,1.5,0.8,2.2,1.3c0.1,0.1,0.2,0.1,0.4,0.2
			c0-0.9,0-1.8,0-2.7c0-3.1,0-6.1,0-9.2c0-2.5,2-4.7,4.5-4.9c2-0.1,3.9-0.1,5.9,0c2.5,0.1,4.5,2.4,4.5,4.9c0,3.8,0,7.6,0,11.4
			c0,0.1,0,0.3,0,0.5c0.2-0.1,0.3-0.2,0.5-0.2c3.3-1.9,6.5-3.8,9.8-5.6c2.4-1.4,5.4-0.6,6.8,1.8c0.8,1.4,1.6,2.8,2.4,4.2
			c1.4,2.4,0.6,5.6-2,7c-3.3,1.8-6.6,3.8-9.9,5.7c-0.1,0-0.1,0.1-0.2,0.2c0.6,0.4,1.2,0.7,1.8,1.1c2.8,1.6,5.6,3.2,8.3,4.8
			c2.5,1.4,3.3,4.4,1.9,6.9c-0.8,1.4-1.6,2.7-2.4,4.1c-1.4,2.5-4.6,3.2-7,1.9c-3.2-1.9-6.4-3.7-9.7-5.6c-0.2-0.1-0.3-0.2-0.5-0.3
			c0,0.2,0,0.3,0,0.5c0,3.8,0,7.5,0,11.3c0,2.9-2.2,5.1-5.1,5.1c-1.6,0-3.2,0-4.7,0c-2.8,0-5-2.2-5-5c0-3.8,0-7.5,0-11.3
			c0-0.2,0-0.3,0-0.5c-0.2,0.1-0.3,0.2-0.5,0.3c-3.2,1.8-6.4,3.7-9.6,5.5c-1.8,1.1-3.7,1-5.5-0.1c-0.6-0.4-1.1-0.9-1.5-1.6
			c-0.8-1.4-1.7-2.8-2.5-4.3c-1.4-2.4-0.7-5.4,1.8-6.8c3.3-1.9,6.6-3.8,9.9-5.7C24.8,32.3,24.9,32.2,25.1,32.1z"/>
		<path class="st0" d="M79,70.6H1c-0.5,0-1,0.4-1,1l0,5.1c0,0.5,0.4,1,1,1h78c0.5,0,1-0.4,1-1v-5.1C80,71,79.5,70.6,79,70.6z"/>
	</g>
	<rect class="st1" width="80" height="80"/>
</g>
</svg>
