<?xml version="1.0" encoding="utf-8"?>
<!-- Generator: Adobe Illustrator 24.0.1, SVG Export Plug-In . SVG Version: 6.00 Build 0)  -->
<svg version="1.1" id="Calque_1" xmlns="http://www.w3.org/2000/svg" xmlns:xlink="http://www.w3.org/1999/xlink" x="0px" y="0px"
	 viewBox="0 0 80 80" style="enable-background:new 0 0 80 80;" xml:space="preserve">
<style type="text/css">
	.st0{fill:#E84A19;}
	.st1{fill:none;}
</style>
<g>
	<path class="st0" d="M16.8,61.2c-3.1,0-6.2,0-9.3,0c-4.5,0-7.5-2.9-7.5-7.4c0-13.8,0-27.7,0-41.5C0,7.9,2.9,5,7.2,5
		c21.8,0,43.7,0,65.5,0C77,5,80,7.9,80,12.3c0,13.8,0,27.7,0,41.5c0,4.5-3,7.4-7.5,7.4c-11.7,0-23.5,0-35.2,0c-1,0-1.7,0.3-2.5,1
		C31,66,27.2,69.7,23.4,73.5c-1.2,1.2-2.5,1.8-4.2,1.2c-1.5-0.6-2.3-1.9-2.3-3.9c0-3,0-6.1,0-9.1C16.9,61.6,16.8,61.5,16.8,61.2z
		 M55.2,38.8c2.3,0,4.1-1.7,4.1-4c0-2.3-1.8-4.1-4-4.1c-2.2,0-4.1,1.9-4.1,4.1C51.1,36.9,53,38.8,55.2,38.8z M44,34.8
		c0-2.3-1.7-4.1-4-4.1c-2.2,0-4.1,1.8-4.2,4c0,2.2,1.8,4.1,4,4.1C42.2,38.9,44,37.1,44,34.8z M24.7,38.8c2.3,0,4.1-1.7,4.1-4
		c0-2.3-1.8-4.1-4-4.1c-2.3,0-4,1.8-4.1,4.1C20.7,37.1,22.4,38.8,24.7,38.8z"/>
	<rect x="0" y="0" class="st1" width="80" height="80"/>
</g>
</svg>
