<?xml version="1.0" encoding="utf-8"?>
<!-- Generator: Adobe Illustrator 24.0.1, SVG Export Plug-In . SVG Version: 6.00 Build 0)  -->
<svg version="1.1" id="Calque_1" xmlns="http://www.w3.org/2000/svg" xmlns:xlink="http://www.w3.org/1999/xlink" x="0px" y="0px"
	 viewBox="0 0 80 80" style="enable-background:new 0 0 80 80;" xml:space="preserve">
<style type="text/css">
	.st0{fill:#E84A19;}
	.st1{fill:none;}
</style>
<g>
	<g>
		<path class="st0" d="M16.3,25.9c-1.2-1.2-2.5-2.3-3.7-3.5c-1.2-1.2-1.3-2.6-0.1-3.8c0.9-0.9,1.7-1.8,2.6-2.8
			c1.1-1.1,2.5-1.2,3.7-0.1c1.4,1.4,2.9,2.7,4.3,4.1c0.1,0.1,0.2,0.2,0.3,0.3c1.2-0.6,2.3-1.2,3.5-1.8c2.2-1,4.5-1.7,6.8-2.2
			c0.3-0.1,0.4-0.2,0.4-0.5c0-1.6,0-3.2,0-4.8c-0.2,0-0.3,0-0.5,0c-1.4,0-2.8,0-4.2,0c-1.6,0-2.7-1.1-2.7-2.7c0-1.8,0-3.5,0-5.3
			c0-1.7,1-2.8,2.7-2.8c6.9,0,13.9,0,20.8,0c1.7,0,2.7,1,2.7,2.7c0,1.8,0,3.5,0,5.3c0,1.7-1,2.8-2.8,2.8c-1.5,0-3,0-4.6,0
			c0,0.2,0,0.3,0,0.5c0,1.4,0,2.9,0,4.3c0,0.4,0.1,0.5,0.5,0.6c3.5,0.7,6.8,1.9,9.9,3.8c0.1,0,0.1,0.1,0.2,0.1
			c0.9-0.9,1.8-1.9,2.7-2.8c0.4-0.5,0.9-1,1.3-1.4c1-1,2.5-1.1,3.5-0.1c1,0.9,2,1.9,3,2.9c1,1,1,2.5,0.1,3.5c-1,1.1-2.1,2.3-3.2,3.4
			c-0.1,0.1-0.2,0.2-0.3,0.4c7.1,8,10,17.3,8.1,27.9c-1.4,8.1-5.5,14.7-12,19.7C47.1,83,29.2,82.1,17.7,71
			c-6.3-6.1-9.7-13.5-10-22.3C7.5,40,10.4,32.4,16.3,25.9z M40,21.3c-14.6,0-26.7,12.1-26.4,26.9c0.2,14.4,12.2,26.3,27.1,26
			C55,73.9,66.6,62,66.5,47.4C66.3,33,54.3,21.2,40,21.3z"/>
		<path class="st0" d="M31.9,52.3c2.3,5.7,9.4,8,14.7,4.9c0.3-0.2,0.6-0.4,0.9-0.6c0.9-0.5,1.8-0.3,2.4,0.5c0.6,0.8,0.5,2-0.4,2.5
			c-1.7,0.9-3.5,2-5.4,2.3c-6.8,1.3-13.1-2.3-15.7-8.7c-0.3-0.7-0.6-1.1-1.4-1c-0.5,0.1-1.1,0.1-1.6,0c-1-0.1-1.6-0.7-1.6-1.8
			c0-1,0.6-1.7,1.7-1.8c0.6-0.1,1.2,0,1.8,0c0-0.6,0-1.2,0-1.8c-0.6,0-1.2,0-1.9-0.1c-1-0.1-1.7-0.8-1.7-1.8c0-1.1,0.7-1.9,1.6-1.7
			c2.3,0.4,3-1,3.9-2.7c3.9-7.2,13.3-9.5,20-4.9c0.8,0.5,1.4,1.2,1,2.1c-0.2,0.6-0.9,1.2-1.4,1.3c-0.6,0.1-1.3-0.3-1.9-0.6
			c-3.7-2.1-7.4-2.1-11,0.1c-1.7,1.1-3,2.6-4,4.6c1.2,0,2.2,0,3.2,0c1.5,0,3,0,4.5,0c1.4,0,2.2,0.7,2.2,1.8c0,1.1-0.8,1.8-2.2,1.8
			c-2.5,0-4.9,0-7.4,0c-0.4,0-0.8,0-1.2,0c0,0.6,0,1.2,0,1.9c0.6,0,1.3,0,1.9,0c2.3,0,4.5,0,6.8,0c1.4,0,2.1,0.7,2.1,1.9
			c0,1.1-0.8,1.7-2.1,1.7C37.1,52.3,34.6,52.3,31.9,52.3z"/>
	</g>
	<rect y="0" class="st1" width="80" height="80"/>
</g>
</svg>
