<?xml version="1.0" encoding="utf-8"?>
<!-- Generator: Adobe Illustrator 24.0.1, SVG Export Plug-In . SVG Version: 6.00 Build 0)  -->
<svg version="1.1" id="Calque_1" xmlns="http://www.w3.org/2000/svg" xmlns:xlink="http://www.w3.org/1999/xlink" x="0px" y="0px"
	 viewBox="0 0 80 80" style="enable-background:new 0 0 80 80;" xml:space="preserve">
<style type="text/css">
	.st0{fill:#E84A19;}
	.st1{fill:none;}
</style>
<g>
	<path class="st0" d="M70.1,39.2c0-2.8-2.2-5.2-5-5.6c-0.7-0.1-1.5-0.1-2.2-0.1c0-0.1,0-0.2,0-0.2c0-3.7,0-7.5,0-11.2
		c0-1.6,0-3.2-0.2-4.8c-0.4-3.3-1.6-6.3-3.5-9c-0.7-1-1.6-1.9-2.4-2.9c-1.1-0.8-2.2-1.7-3.3-2.4C50.6,1.1,47.4,0.2,44,0
		c-2.5-0.1-4.9,0-7.4,0c-1.8,0-3.5,0.2-5.2,0.8c-1.3,0.4-2.6,1-3.9,1.4c-0.1,0.1-0.2,0.2-0.3,0.3C24.5,4,22.3,6,20.5,8.6
		c-2.1,3-3.3,6.3-3.4,10c-0.1,4.8-0.1,9.7-0.1,14.5c0,0.2,0,0.3,0,0.5c-0.5,0-0.9,0-1.4,0c-0.6,0-1.3,0.1-1.9,0.3
		c-2.4,0.8-4,3-4,5.6c0,3.5,0,6.9,0,10.4c0,8.1,0,16.2,0,24.3c0,1.6,0.5,3.1,1.6,4.2c1.2,1.2,2.7,1.7,4.5,1.7c8,0,16,0,24,0
		c8.1,0,16.2,0,24.3,0c3.3,0,5.9-2.5,5.9-5.7C70.2,62.6,70.2,50.9,70.1,39.2z M43.6,59.4v6.3c0,2.2-1.8,4-4,4s-4-1.8-4-4v-6.3
		c-2.4-1.4-4-3.9-4-6.8c0-4.4,3.5-7.9,7.9-7.9s7.9,3.5,7.9,7.9C47.6,55.5,46,58,43.6,59.4z M26.6,33.5c0-0.1,0-0.2,0-0.3
		c0-4.2,0-8.4,0-12.6c0-0.7,0-1.4,0.1-2.2c0.5-4.8,4.6-8.6,9.4-8.8c2.6-0.1,5.1-0.1,7.7,0c1.5,0,3,0.4,4.3,1.2c3.4,2,5.1,5,5.1,8.9
		c0,4.5,0,8.9,0,13.4c0,0.1,0,0.2,0,0.3C44.4,33.5,35.5,33.5,26.6,33.5z"/>
	<rect x="0" class="st1" width="80" height="80"/>
</g>
</svg>
