<?xml version="1.0" encoding="utf-8"?>
<!-- Generator: Adobe Illustrator 24.0.1, SVG Export Plug-In . SVG Version: 6.00 Build 0)  -->
<svg version="1.1" id="Calque_1" xmlns="http://www.w3.org/2000/svg" xmlns:xlink="http://www.w3.org/1999/xlink" x="0px" y="0px"
	 viewBox="0 0 80 80" style="enable-background:new 0 0 80 80;" xml:space="preserve">
<style type="text/css">
	.st0{fill:#E84A19;}
	.st1{fill:none;stroke:#E84A19;stroke-width:3;stroke-linecap:round;stroke-linejoin:round;stroke-miterlimit:10;}
	.st2{fill:none;}
</style>
<g>
	<g>
		<path class="st0" d="M69.7,57.5c-2.3-1.6-3.9-3.7-4.8-6.4c-0.6-2-1.2-4.1-1.6-6.1c-0.9-4.5-1.4-9-2.4-13.4
			c-1.7-7.3-6-12.5-13.1-15.1c-0.5-0.2-1-0.3-1.5-0.5c1.2-3.6,0.6-6.7-2.6-8.9c-2.4-1.6-5.1-1.6-7.5,0c-3.2,2.2-3.8,5.3-2.6,8.9
			c-0.4,0.1-0.7,0.3-1.1,0.4c-6.4,2.2-10.8,6.5-12.9,12.9c-1,3-1.5,6.1-2.2,9.2c-0.8,3.9-1.3,7.8-2.2,11.7c-0.7,3-2.4,5.5-5,7.3
			C6.6,60,5.8,63.6,6.5,67.7c0.4,2.4,1.6,3.4,4.1,3.4c6.2,0,12.4,0,18.7,0c0.5,0,0.9,0,1.4,0c0.5,6.2,5,9.2,9.1,9.3
			c2.2,0.1,4.2-0.6,5.9-1.9c2.4-1.8,3.5-4.4,3.7-7.4c0.5,0,0.9,0,1.4,0c6.3,0,12.5,0,18.8,0c2.3,0,3.6-1,4-3.3
			C74.2,63.7,73.5,60,69.7,57.5z"/>
		<path class="st1" d="M64.5,28.5c0.7-2.1,1-4.2,1-6.5c0-10.8-8.2-19.8-19.2-22.3"/>
		<path class="st1" d="M33.7-0.4C22.7,2.2,14.5,11.2,14.5,22c0,2.3,0.4,4.4,1,6.5"/>
	</g>
	<rect y="0" class="st2" width="80" height="80"/>
</g>
</svg>
