<?xml version="1.0" encoding="utf-8"?>
<!-- Generator: Adobe Illustrator 24.0.1, SVG Export Plug-In . SVG Version: 6.00 Build 0)  -->
<svg version="1.1" id="Calque_1" xmlns="http://www.w3.org/2000/svg" xmlns:xlink="http://www.w3.org/1999/xlink" x="0px" y="0px"
	 viewBox="0 0 80 80" style="enable-background:new 0 0 80 80;" xml:space="preserve">
<style type="text/css">
	.st0{fill:#E84A19;}
	.st1{fill:none;}
</style>
<g>
	<path class="st0" d="M78.4,29.5L78.4,29.5c-0.7-0.7-1.9-0.6-2.6,0.1l-8.1,8.7c-0.3-0.3-0.6-0.6-0.9-0.9c-1.3-1.4-2.7-2.6-4.1-3.8
		l6.4-11c0.5-0.9,0.2-2-0.7-2.5c-0.9-0.5-2-0.2-2.5,0.7l-6.2,10.7c-2.3-1.5-4.7-2.7-7.2-3.7l3.6-11.6c0.3-1-0.3-2-1.2-2.3h0
		c-1-0.3-2,0.3-2.3,1.2l-3.6,11.6c-2.3-0.6-4.8-1-7.3-1.1V14.3c0-1-0.8-1.8-1.8-1.8c-1,0-1.8,0.8-1.8,1.8v11.2c-2,0.1-4,0.4-5.9,0.8
		c-0.5,0.1-0.9,0.2-1.4,0.4l-3.5-11.5C27,14.3,26,13.7,25,14h0c-1,0.3-1.5,1.3-1.2,2.3l3.6,11.6c-2.6,1-5,2.2-7.2,3.6l-6.1-10.6
		c-0.5-0.9-1.6-1.2-2.5-0.7c-0.9,0.5-1.2,1.6-0.7,2.5l6.3,10.9c-1.8,1.4-3.4,3-5,4.8l-8-8.7C3.5,29,2.3,29,1.6,29.6v0
		c-0.7,0.7-0.8,1.8-0.1,2.6l8.4,9.1c-0.5,0.7-1,1.5-1.5,2.2c-1.3,1.9-1.2,3.8,0,5.8c3.9,6.1,9,10.8,15.5,14.1c7.7,4,15.9,5.1,24.4,3
		c10.2-2.5,18.1-8.4,23.7-17.3c1.1-1.8,1.2-3.7,0-5.4c-0.6-0.8-1.2-1.7-1.8-2.5l8.5-9.2C79.2,31.3,79.1,30.2,78.4,29.5z M67.8,46.8
		c-5.3,7.8-12.2,13.4-21.5,15.3C37.2,64,28.9,62,21.4,56.5c-3.6-2.6-6.6-5.8-9-9.5c-0.2-0.3-0.3-0.5-0.1-0.9
		c3.4-5.1,7.6-9.3,13.1-12.2c0.1-0.1,0.3-0.1,0.5-0.2c-4.4,8.2-1.5,16.8,4.6,21.3c5.8,4.3,13.9,4.2,19.5-0.2
		c6.3-4.9,8.4-13.6,4.3-21.1c0.2,0.1,0.3,0.1,0.5,0.2c5.4,2.9,9.7,7.1,13,12.2C67.9,46.3,67.9,46.7,67.8,46.8z"/>
	<rect class="st1" width="80" height="80"/>
</g>
</svg>
