<?xml version="1.0" encoding="utf-8"?>
<!-- Generator: Adobe Illustrator 24.0.1, SVG Export Plug-In . SVG Version: 6.00 Build 0)  -->
<svg version="1.1" id="Calque_1" xmlns="http://www.w3.org/2000/svg" xmlns:xlink="http://www.w3.org/1999/xlink" x="0px" y="0px"
	 viewBox="0 0 80 80" style="enable-background:new 0 0 80 80;" xml:space="preserve">
<style type="text/css">
	.st0{fill:#E84A19;}
	.st1{fill:none;}
</style>
<g>
	<path class="st0" d="M70.7,20.2c-0.2-1.5-0.3-2.9-0.5-4.3c-0.4-3.9-2.4-5.7-6.3-5.7c-3,0-6,0-9.1,0c0-0.8,0-1.3,0-1.9
		c-0.2-4.4-3.4-8-7.8-8.2c-4.7-0.2-9.3-0.2-14,0c-3.9,0.2-6.7,2.8-7.6,6.7c-0.2,1-0.3,2.1-0.4,3.4c-0.7,0-1.4,0-2.1,0
		c-2.6,0-5.2,0-7.8,0c-2.4,0.1-4.4,1.5-4.9,3.8c-0.5,2-0.6,4-0.9,6.2c1,0,2.1,0,3.1,0c0,0.2,0,0.4,0.1,0.6c2.1,17.5,4.2,35,6.4,52.5
		c0.7,5.4,2.4,6.7,7.8,6.7c9.3,0,18.7,0,28,0c3.2,0,5.5-1.9,6-5c0.3-1.6,0.4-3.2,0.6-4.8c1.7-13.9,3.4-27.9,5.1-41.8
		c0.3-2.7,0.6-5.4,0.9-8.1C68.5,20.2,69.6,20.2,70.7,20.2z M34.3,4.9c3.7,0,7.4,0,11.1,0c3.5,0,4.8,1.5,4.4,5.2c-6.5,0-13,0-19.5,0
		C29.7,6.8,31.2,4.9,34.3,4.9z"/>
	<rect class="st1" width="80" height="80"/>
</g>
</svg>
