<?xml version="1.0" encoding="utf-8"?>
<!-- Generator: Adobe Illustrator 24.0.1, SVG Export Plug-In . SVG Version: 6.00 Build 0)  -->
<svg version="1.1" id="Calque_1" xmlns="http://www.w3.org/2000/svg" xmlns:xlink="http://www.w3.org/1999/xlink" x="0px" y="0px"
	 viewBox="0 0 80 80" style="enable-background:new 0 0 80 80;" xml:space="preserve">
<style type="text/css">
	.st0{fill:#E84A19;}
	.st1{fill:none;}
</style>
<g>
	<path class="st0" d="M0,11.5v56.8h80V11.5H0z M60.4,24.3c-2.2-0.8-3.6-1.9-3.6-3.8c0-2.1,1.7-3.7,4.4-3.7c1.4,0,2.4,0.3,3,0.7
		l-0.5,1.4c-0.4-0.2-1.3-0.6-2.6-0.6c-1.8,0-2.5,1.1-2.5,2c0,1.3,0.8,1.9,2.7,2.6c2.3,0.9,3.4,2,3.4,4c0,2.1-1.5,3.9-4.7,3.9
		c-1.3,0-2.7-0.4-3.4-0.9l0.4-1.5c0.8,0.5,1.9,0.9,3.1,0.9c1.8,0,2.8-0.9,2.8-2.3C62.9,25.7,62.2,25,60.4,24.3z M40.3,17l1.6,6.8
		c0.4,1.7,0.8,3.4,1,4.7h0c0.2-1.3,0.6-2.9,1.1-4.7l1.8-6.8h1.8l1.6,6.8c0.4,1.6,0.7,3.2,0.9,4.6h0c0.3-1.5,0.7-3,1.1-4.7l1.8-6.8
		h1.8l-3.8,13.5h-1.8l-1.7-7c-0.4-1.7-0.7-3-0.9-4.4h0c-0.2,1.3-0.5,2.7-1,4.4l-1.9,7h-1.8L38.5,17H40.3z M29.1,17h7.3v1.5h-5.5v4.3
		h5.2v1.4h-5.2V29h5.8v1.5h-7.6V17z M15.4,17h1.9l4.3,6.8c1,1.6,1.8,3,2.4,4.4l0,0c-0.2-1.8-0.2-3.4-0.2-5.5V17h1.6v13.5h-1.8
		l-4.3-6.8c-0.9-1.5-1.8-3-2.5-4.5l-0.1,0c0.1,1.7,0.1,3.3,0.1,5.6v5.8h-1.6V17z M26.2,64.7H4.4V43h21.8V64.7z M69.3,64.7H29.8v-2
		h39.5V64.7z M75.6,58.2H29.8v-2h45.8V58.2z M75.6,51.7H29.8v-2h45.8V51.7z M75.6,45.2H29.8v-2h45.8V45.2z M74.9,35.4H5.1
		c-0.4,0-0.7-0.3-0.7-0.7S4.7,34,5.1,34h69.8c0.4,0,0.7,0.3,0.7,0.7S75.3,35.4,74.9,35.4z"/>
	<rect y="-0.1" class="st1" width="80" height="80"/>
</g>
</svg>
