<?xml version="1.0" encoding="utf-8"?>
<!-- Generator: Adobe Illustrator 24.0.1, SVG Export Plug-In . SVG Version: 6.00 Build 0)  -->
<svg version="1.1" id="Calque_1" xmlns="http://www.w3.org/2000/svg" xmlns:xlink="http://www.w3.org/1999/xlink" x="0px" y="0px"
	 viewBox="0 0 80 80" style="enable-background:new 0 0 80 80;" xml:space="preserve">
<style type="text/css">
	.st0{fill:#E84A19;}
	.st1{fill:none;}
</style>
<g>
	<path class="st0" d="M44.7,30.4c0.3,0,0.6,0,0.9,0c8,0,15.9,0,23.9,0c2.4,0,4.6,0.6,6.4,2.2c3,2.8,3.3,7.8,0.6,11.2
		c-0.7,0.9-1.4,1.8-2.1,2.7c2.6,3.5,1.7,9.3-2.6,11.9c0.2,1.3,0.6,2.5,0.6,3.8c0,2.9-1.2,5.2-3.6,6.8c-0.5,0.3-0.6,0.6-0.5,1.1
		c0.6,5.2-3.7,9.3-8.6,9.2c-5.1-0.1-10.1-0.1-15.2,0c-4.3,0.1-8.5-0.5-12.6-1.8c-2.3-0.8-4.7-1.4-7.1-2.1c-0.6-0.2-1.2-0.3-1.8-0.3
		c-4.2,0-8.4,0-12.6,0.1c-1.8,0-3.1-0.7-4.3-1.9c-1.7-2-2.6-4.3-3.2-6.8c-1.9-7.8-2.2-15.6-0.2-23.4c0.5-2.1,1.4-4,2.9-5.5
		c1.3-1.3,2.8-2.1,4.7-1.9c2.1,0.2,3.5-0.3,4.8-2.1c2.7-3.5,5.8-6.7,8.8-9.9c2.3-2.5,4.8-4.9,7-7.4c2.9-3.3,5.1-6.9,6.6-11
		c0.1-0.3,0.3-0.6,0.4-0.9c1.6-4.4,6.1-4.8,9.2-3.2c2.8,1.5,4.3,4.5,4.1,7.7c-0.4,7.3-2.9,13.9-6.3,20.3c-0.1,0.3-0.3,0.5-0.4,0.8
		C44.7,30.2,44.7,30.3,44.7,30.4z"/>
	<rect y="0" class="st1" width="80" height="80"/>
</g>
</svg>
