<?xml version="1.0" encoding="utf-8"?>
<!-- Generator: Adobe Illustrator 24.0.1, SVG Export Plug-In . SVG Version: 6.00 Build 0)  -->
<svg version="1.1" id="Calque_1" xmlns="http://www.w3.org/2000/svg" xmlns:xlink="http://www.w3.org/1999/xlink" x="0px" y="0px"
	 viewBox="0 0 80 80" style="enable-background:new 0 0 80 80;" xml:space="preserve">
<style type="text/css">
	.st0{fill:#E84A19;}
	.st1{fill:none;}
</style>
<g>
	<path class="st0" d="M79.5,48l-8.6-9.4c0.5-0.7,1.1-1.5,1.6-2.3c1.3-2,1.3-3.9,0-5.9c-4-6.3-9.3-11.1-15.9-14.5
		c-8-4.1-16.3-5.2-25-3.1C21.1,15.4,13,21.5,7.3,30.6c-1.2,1.8-1.2,3.8,0.1,5.5c0.6,0.9,1.2,1.7,1.8,2.6l-8.7,9.4
		c-0.7,0.8-0.7,2,0.1,2.7v0c0.8,0.7,2,0.7,2.7-0.1l8.3-9c0.3,0.3,0.6,0.7,0.9,1c1.4,1.4,2.8,2.7,4.2,3.9l-6.5,11.3
		c-0.5,0.9-0.2,2,0.7,2.6c0.9,0.5,2,0.2,2.6-0.7l6.3-11c2.3,1.5,4.8,2.8,7.4,3.8l-3.7,11.9c-0.3,1,0.3,2,1.2,2.3h0
		c1,0.3,2-0.3,2.3-1.2l3.6-11.9c2.4,0.6,4.9,1,7.5,1.2v11.5c0,1,0.8,1.9,1.9,1.9s1.9-0.8,1.9-1.9V54.8c2.1-0.1,4.1-0.4,6.1-0.9
		c0.5-0.1,0.9-0.2,1.4-0.4L53,65.4c0.3,1,1.4,1.5,2.3,1.2h0c1-0.3,1.5-1.4,1.2-2.3l-3.7-11.9c2.6-1,5.1-2.3,7.4-3.7l6.3,10.9
		c0.5,0.9,1.7,1.2,2.6,0.7c0.9-0.5,1.2-1.7,0.7-2.6l-6.5-11.2c1.8-1.5,3.5-3.1,5.1-4.9l8.3,9c0.7,0.8,1.9,0.8,2.7,0.1v0
		C80.2,49.9,80.2,48.7,79.5,48z M68.4,33.7c-2.7,4.1-5.9,7.6-9.9,10.3l0,0c-0.1,0-0.1,0.1-0.2,0.1c-1.1,0.7-2.2,1.4-3.4,2.1
		c-0.1,0.1-0.2,0.1-0.4,0.2C33.4,57.6,17.5,41,17.5,41l0,0c-2.3-2.1-4.3-4.5-6-7.2c-0.1-0.2-0.1-0.6,0-0.7
		c5.4-8,12.5-13.7,22.1-15.7c9.3-1.9,17.8,0.2,25.5,5.8c3.7,2.7,6.7,6,9.3,9.8C68.5,33.1,68.7,33.4,68.4,33.7z"/>
	<rect x="0" y="0" class="st1" width="80" height="80"/>
</g>
</svg>
