<?xml version="1.0" encoding="utf-8"?>
<!-- Generator: Adobe Illustrator 24.0.1, SVG Export Plug-In . SVG Version: 6.00 Build 0)  -->
<svg version="1.1" id="Calque_1" xmlns="http://www.w3.org/2000/svg" xmlns:xlink="http://www.w3.org/1999/xlink" x="0px" y="0px"
	 viewBox="0 0 100 100" style="enable-background:new 0 0 100 100;" xml:space="preserve">
<style type="text/css">
	.st0{fill:#E84A19;}
	.st1{fill:#FFFFFF;}
</style>
<g>
	<path class="st0" d="M97.6,100H2.4C1.1,100,0,98.9,0,97.6V2.4C0,1.1,1.1,0,2.4,0h95.3c1.3,0,2.4,1.1,2.4,2.4v95.3
		C100,98.9,98.9,100,97.6,100z"/>
	<path class="st1" d="M49.4,10c0.3,0,0.5,0,0.8,0c0.2,0.1,0.4,0.1,0.5,0.2c12.6,5.4,25.3,10.7,38,16.1c0.9,0.4,1.3,1,1.3,1.9
		c0,14.1,0,28.2,0,42.3c0,0.9-0.4,1.4-1.3,1.9c-8,3.8-16,7.5-23.9,11.3c-4.3,2-8.6,4.1-12.9,6.1c-0.5,0.2-1,0.3-1.5,0.1
		c-0.6-0.2-1.1-0.4-1.7-0.7c-1.3-0.6-2.6-1.2-3.9-1.8c-11.1-5.1-22.1-10.1-33.2-15.2c-1-0.4-1.4-1-1.4-2c0-9.3-0.1-18.7-0.1-28
		c0-4.3,0-8.5,0-12.8c0-0.8,0.2-1.6,1.2-2.1c8.2-3.7,16.3-7.4,24.4-11.1C40.2,14.2,44.8,12.1,49.4,10z M86.7,30.2
		c-0.2,0.1-0.4,0.2-0.5,0.2c-1.3,0.6-2.6,1.3-4,1.9c-9.7,4.7-19.4,9.5-29.1,14.2c-0.4,0.2-0.5,0.4-0.5,0.7c0,12.8,0,25.5,0,38.3
		c0,0.1,0,0.3,0,0.5c1.1-0.5,2.2-1,3.2-1.5C66,79.8,76.1,75,86.3,70.2c0.3-0.2,0.4-0.3,0.4-0.6c0-12.9,0-25.9,0-38.8
		C86.7,30.6,86.7,30.4,86.7,30.2z M15.4,28.8c0.2,0.1,0.3,0.2,0.5,0.2c11.6,5,23.1,10.1,34.7,15.1c0.3,0.1,0.5,0.1,0.8,0
		c10-4.9,19.9-9.7,29.9-14.6c1.1-0.5,2.1-1,3.3-1.6c-0.3-0.1-0.5-0.2-0.7-0.3C72.6,22.8,61.5,18,50.3,13.2c-0.3-0.1-0.6-0.1-0.9,0
		c-11,5-22,10.1-33,15.1C16.1,28.5,15.8,28.6,15.4,28.8z"/>
</g>
</svg>
