<svg id="Calque_1" data-name="Calque 1" xmlns="http://www.w3.org/2000/svg" xmlns:xlink="http://www.w3.org/1999/xlink" viewBox="0 0 201.34 201.34"><defs><style>.cls-1{fill:none;}.cls-2{fill:#1e1e1d;}.cls-2,.cls-3{stroke:#f78d2b;}.cls-2,.cls-3,.cls-4{stroke-linecap:round;stroke-linejoin:round;stroke-width:1.8px;}.cls-3{fill:#232323;}.cls-4{stroke:#1e1e1d;fill:url(#Dégradé_sans_nom_7);}</style><linearGradient id="Dégradé_sans_nom_7" x1="19.73" y1="99.59" x2="173.57" y2="99.59" gradientUnits="userSpaceOnUse"><stop offset="0" stop-color="#f78d2b"/><stop offset="1" stop-color="#eaa222"/></linearGradient></defs><rect class="cls-1" width="201.34" height="201.34"/><path class="cls-2" d="M182,65.6c0-1.41-.61-1.81-1.81-2-3.93-.61-7.76-1.31-11.58-1.91-2.52-.41-3.93-1.72-4.83-4.23a130.52,130.52,0,0,0-5.14-12.38c-1-2.22-1.1-4.13.41-6.15,2.31-3.12,4.53-6.44,6.84-9.56.91-1.21,1-2-.2-3.12-2.82-2.62-5.44-5.34-8-8-1-1.11-1.72-1-2.82-.2-3.33,2.41-6.65,4.73-9.87,7.14a4.7,4.7,0,0,1-5.43.41A55.69,55.69,0,0,0,125.77,20a4.5,4.5,0,0,1-3.52-4c-.7-4.13-1.41-8.25-2-12.28-.2-1.21-.61-1.61-1.92-1.61-1.71,0-3.32,0-5,.1V37.82a33.73,33.73,0,0,1,0,67.45V140.9c1.61,0,3.32,0,4.83.1s2-.5,2.32-1.91c.6-3.92,1.31-7.75,1.91-11.58.4-2.61,1.81-3.92,4.23-4.73,4.13-1.51,8.25-3.22,12.18-5,2.32-1.11,4.23-1.11,6.24.4,3.12,2.32,6.34,4.53,9.57,6.85.4.3,1,.6,1.51,1l1.1-.8c2.92-2.82,5.74-5.74,8.66-8.66a1.7,1.7,0,0,0,.4-2.31c-.1-.1-.1-.21-.2-.21-2.41-3.32-4.73-6.64-7.15-10a5,5,0,0,1-.4-5.94,47.59,47.59,0,0,0,5.24-12.59,5.23,5.23,0,0,1,4.63-4c3.92-.61,7.75-1.31,11.78-1.91,1.3-.21,1.81-.71,1.81-2.12C181.85,73.45,182,69.53,182,65.6Z" transform="translate(0.67 0.03)"/><path class="cls-3" d="M137.45,71.54a25.13,25.13,0,0,0-24.16-25V96.41A25,25,0,0,0,137.45,71.54Z" transform="translate(0.67 0.03)"/><path class="cls-4" d="M105.94,4.2a3.05,3.05,0,0,0-3.12-3A95.06,95.06,0,0,0,79.06,5.11C65.77,8.83,54.6,15.68,46.75,27.35c-7,10.57-9.57,22.55-9.87,35a86.48,86.48,0,0,0,2,18.32c.7,3.42.4,6.74-2,9.66-2.82,3.43-5.53,7-8.25,10.57-2.52,3.23-5.14,6.35-7.65,9.57-2.12,2.72-1.51,4.83,1.61,6L28.33,119c5,2.42,5.33,3.43,2.51,8.26-1.51,2.62-1.41,5.23.91,7.25a18.55,18.55,0,0,0,4.93,2.82c1.81.8,3.83,1.2,5.64,2.11,3.32,1.71,3.62,5.44.8,7.95-1,.91-2.11,1.51-3.12,2.32a5.22,5.22,0,0,0-1.81,6.24c.81,2,2.72,2.62,4.53,3.42,3.22,1.31,3.83,2.42,3.73,5.74-.21,9.16,4.22,14,13.49,14.4a55.59,55.59,0,0,0,16.2-2.12A3.83,3.83,0,0,1,80.67,179c3.53,5.34,7.25,10.67,9.16,16.92A2.91,2.91,0,0,0,92.65,198h77.92a3,3,0,0,0,2.62-4.43c-2.52-4.43-4.93-8.86-7.15-13.39a87.33,87.33,0,0,1-8.86-30.9,3,3,0,0,0-2.92-2.72h-45.1a3,3,0,0,1-3-3V4.2Z" transform="translate(0.67 0.03)"/></svg>