<svg id="Calque_1" data-name="Calque 1" xmlns="http://www.w3.org/2000/svg" xmlns:xlink="http://www.w3.org/1999/xlink" viewBox="0 0 200.16 199.71"><defs><style>.cls-1,.cls-4,.cls-5{fill:none;}.cls-2{fill:#1e1e1d;stroke:url(#Dégradé_sans_nom_43);}.cls-2,.cls-3{stroke-miterlimit:10;stroke-width:1.8px;}.cls-3{fill:url(#Dégradé_sans_nom_13);stroke:url(#Dégradé_sans_nom_12);}.cls-4,.cls-5,.cls-6{stroke-linejoin:round;}.cls-4,.cls-5{stroke-width:5px;}.cls-4{stroke:url(#Dégradé_sans_nom_130);}.cls-5{stroke:url(#Dégradé_sans_nom_130-2);}.cls-6{fill:#575756;stroke:#1e1e1d;stroke-linecap:round;stroke-width:4px;}</style><linearGradient id="Dégradé_sans_nom_43" x1="0.5" y1="100.48" x2="199.57" y2="100.48" gradientUnits="userSpaceOnUse"><stop offset="0" stop-color="#a452cb"/><stop offset="1" stop-color="#8d2cc6"/></linearGradient><radialGradient id="Dégradé_sans_nom_13" cx="100.03" cy="100.63" r="35.44" xlink:href="#Dégradé_sans_nom_43"/><radialGradient id="Dégradé_sans_nom_12" cx="100.03" cy="100.63" r="36.34" gradientUnits="userSpaceOnUse"><stop offset="0" stop-color="#fff"/><stop offset="1"/></radialGradient><linearGradient id="Dégradé_sans_nom_130" x1="-0.1" y1="100.56" x2="199.94" y2="100.56" xlink:href="#Dégradé_sans_nom_43"/><linearGradient id="Dégradé_sans_nom_130-2" x1="0.09" y1="100.55" x2="200.06" y2="100.55" xlink:href="#Dégradé_sans_nom_43"/></defs><rect class="cls-1" x="0.47" width="199.63" height="199.63"/><path class="cls-2" d="M161.9,177.66c-.82-.51-1.54-.92-2.15-1.33-4.51-3.18-9.12-6.35-13.63-9.73-2.86-2.16-5.63-2-8.91-.62a181.84,181.84,0,0,1-17.31,7.17c-3.48,1.23-5.53,3.18-6,6.76-.82,5.53-1.84,11-2.66,16.49-.31,1.95-1.13,2.77-3.18,2.77-5.53-.11-11-.11-16.49,0-1.84,0-2.56-.62-2.87-2.36-.82-5.53-1.84-11.06-2.66-16.69-.51-3.59-2.46-5.64-5.94-6.87-5.74-2-11.37-4.3-16.8-6.86-3.38-1.64-6.24-1.54-9.22.72-4.6,3.38-9.32,6.66-13.92,9.93-1.44,1-2.36.93-3.49-.3-3.89-4.1-7.88-8-12-12-1.23-1.23-1.23-2.25-.21-3.69,3.38-4.71,6.66-9.42,10.14-14.13a6.76,6.76,0,0,0,.52-8.09,77.44,77.44,0,0,1-7.79-18.54,6.65,6.65,0,0,0-5.84-5.12c-5.73-1-11.47-2-17.31-3-1.94-.31-2.76-.92-2.76-3,.1-5.53.1-11.17,0-16.7,0-1.84.72-2.56,2.46-2.87,5.43-.81,10.85-1.84,16.28-2.66,3.89-.51,5.94-2.56,7.27-6.35a179.55,179.55,0,0,1,7-17.21c1.54-3.27,1.54-5.94-.62-8.8C30.28,50,27.11,45.22,23.62,40.51c-1-1.43-.92-2.35.31-3.48C28,33,32,29,36,24.94c1.23-1.23,2.15-1.23,3.48-.2,4.61,3.28,9.32,6.55,13.83,9.83,3,2.25,5.73,2.25,9,.62,5.63-2.67,11.47-5.13,17.31-7.28,3.59-1.33,5.53-3.38,5.94-7.06.82-5.43,1.85-10.86,2.66-16.29.31-2.15,1.23-2.87,3.38-2.77,5.54.21,11,.11,16.5,0,1.74,0,2.35.62,2.66,2.36.92,5.84,1.94,11.68,3,17.52a6.43,6.43,0,0,0,5,5.63,82.17,82.17,0,0,1,19.36,8,6.63,6.63,0,0,0,7.68-.51c4.71-3.38,9.42-6.76,14-10.14,1.54-1.13,2.66-1.23,4.1.3,3.68,4,7.58,7.79,11.47,11.47,1.64,1.54,1.53,2.77.31,4.41-3.28,4.51-6.46,9.11-9.73,13.52-2.05,2.87-1.95,5.53-.62,8.7,2.66,5.74,5.12,11.58,7.27,17.52,1.23,3.48,3.28,5.43,6.87,5.94,5.53.82,10.95,1.84,16.49,2.66,1.74.31,2.66.92,2.66,2.87-.1,5.53-.1,11.17,0,16.7,0,1.94-.82,2.66-2.56,3-5.53.82-11.06,1.84-16.7,2.66-3.38.51-5.63,2.25-6.55,5.63a69.12,69.12,0,0,1-7.48,17.93c-1.74,3-1.43,5.73.51,8.5,3.38,4.71,6.66,9.42,10.14,14.13,1,1.33,1,2.36-.2,3.59-4.1,4-8.2,8.19-12.29,12.19A5.18,5.18,0,0,1,161.9,177.66ZM100.14,52.6a47.88,47.88,0,1,0,47.73,47.93v-.1A47.87,47.87,0,0,0,100.14,52.6Z" transform="translate(0.1 -0.36)"/><path class="cls-3" d="M99.93,65.2a35.44,35.44,0,1,1-35.34,35.54v-.11A35.56,35.56,0,0,1,99.93,65.2Z" transform="translate(0.1 -0.36)"/><path class="cls-4" d="M25.47,119.38C4.37,148.16-3.21,172.54,6.72,183.7,22.19,201,76.48,177.86,128,132s80.71-97.2,65.34-114.62C183.41,6.2,157.19,12,126.05,29.86" transform="translate(0.1 -0.36)"/><path class="cls-5" d="M173.78,119.17c21.2,28.89,29.6,53.37,19.56,64.53C177.88,201,123.59,177.86,72.07,132S-8.74,34.78,6.72,17.36C16.66,6.1,43.29,12.14,74.63,30.17" transform="translate(0.1 -0.36)"/><path class="cls-6" d="M179.92,114.26c-4.81.82-6.55,3-8,8.91C173.37,117.23,175.21,115.08,179.92,114.26Z" transform="translate(0.1 -0.36)"/><path class="cls-6" d="M23.73,115.79c2.56,1.23,3.68,4.71,4.3,7C27.41,120.5,26.29,117,23.73,115.79Z" transform="translate(0.1 -0.36)"/></svg>