<svg id="Calque_1" data-name="Calque 1" xmlns="http://www.w3.org/2000/svg" xmlns:xlink="http://www.w3.org/1999/xlink" viewBox="0 0 197.68 159.74"><defs><style>.cls-1,.cls-4{stroke:#000;}.cls-1,.cls-2,.cls-3,.cls-4{stroke-linecap:round;stroke-linejoin:round;}.cls-1,.cls-2,.cls-3{stroke-width:1.8px;}.cls-1{fill:url(#Dégradé_sans_nom_127);}.cls-2,.cls-3{fill:#1e1e1d;}.cls-2{stroke:url(#Dégradé_sans_nom_127-2);}.cls-3{stroke:url(#Dégradé_sans_nom_127-3);}.cls-4{fill:none;stroke-width:2px;}</style><linearGradient id="Dégradé_sans_nom_127" x1="65.55" y1="98.34" x2="197.54" y2="98.34" gradientUnits="userSpaceOnUse"><stop offset="0" stop-color="#ff2e33"/><stop offset="1" stop-color="#cb2440"/></linearGradient><linearGradient id="Dégradé_sans_nom_127-2" x1="0.75" y1="86.99" x2="59.85" y2="86.99" xlink:href="#Dégradé_sans_nom_127"/><linearGradient id="Dégradé_sans_nom_127-3" x1="38.03" y1="85.69" x2="59.75" y2="85.69" xlink:href="#Dégradé_sans_nom_127"/></defs><path class="cls-1" d="M192.85,85.44c2.6-5.9.5-14.4-8.6-16.6.7-9.5-7.7-15.6-11.7-14.7-8.1-21.6-34-33.9-54.9-29.9-8.4-6.5-41.5-5.7-47.6-2.2-2.5,1.4-4.5,3.6-4.5,6.5v117.7a5.74,5.74,0,0,0,2.1,4.6c3.7,3.1,19.2,1.6,25.2-9.2-4.5,7.4-5.9,12.5,1,19.7,3.1,16.9,25.2,20.2,36.8,10.8,20.7,7.3,35.4-5,35.1-17.3,17.1,2.7,33.9-13.7,29.8-26.7A73.18,73.18,0,0,0,192.85,85.44Z" transform="translate(-0.75 -18.47)"/><path class="cls-2" d="M58.85,114c-16,0-28.3-12.9-28.3-29.1,0-15.2,12.5-27.5,28.4-27.5v-29h-7.1c-1.9,0-2.7.9-2.7,2.7v9c0,1.8-.6,2.5-2.2,3.2-2.8,1.2-5.7,2.4-8.4,3.7a2.76,2.76,0,0,1-3.6-.5c-2.3-2.3-4.6-4.7-6.9-7.1a2.43,2.43,0,0,0-3.5-.4c-.2.1-.3.3-.4.4l-10.7,10.5a2.51,2.51,0,0,0-.2,3.5l.3.3c2.3,2.2,4.7,4.4,7,6.6a2.48,2.48,0,0,1,.6,3.1l-4.5,10.2c-.8,1.7-1.3,2.1-3.2,2.1h-9a2.93,2.93,0,0,0-2.8,2.8v16.7a3.1,3.1,0,0,0,3.1,3h9c1.8,0,2.4.5,3,2.1,1.1,2.7,2.3,5.4,3.5,8.1a2.8,2.8,0,0,1-.6,3.7l-6,5.7a2.4,2.4,0,0,0-.4,3.4l.3.3,10.6,10.6a2.52,2.52,0,0,0,3.5.3l.3-.3,5.1-5.5c1.3-1.4,2.2-1.5,3.9-.7,3.3,1.6,6.6,3.1,10,4.5a2.8,2.8,0,0,1,2,2.9v9.4a2.84,2.84,0,0,0,2.7,2.8h7.1l-.1-.1Z" transform="translate(-0.75 -18.47)"/><path class="cls-3" d="M58.05,65.74a20,20,0,0,0,.8,39.9V65.74Z" transform="translate(-0.75 -18.47)"/><path class="cls-4" d="M141.75,91.24c6-5.9,6.2-15.3.6-21s-15-5.4-21,.5" transform="translate(-0.75 -18.47)"/><path class="cls-4" d="M121.35,93.14c-3.4-2.9-11-3.9-19.2-2.1-10.5,2.3-18.1,8.3-16.9,13.4" transform="translate(-0.75 -18.47)"/><path class="cls-4" d="M84.45,104.24c-4.8-3.1-9.6-4.5-12.8-3.7" transform="translate(-0.75 -18.47)"/><path class="cls-4" d="M170.25,71.64a15.05,15.05,0,0,0-18.4-5.9" transform="translate(-0.75 -18.47)"/><path class="cls-4" d="M151.75,65.34A22.33,22.33,0,0,0,140,51.14" transform="translate(-0.75 -18.47)"/><path class="cls-4" d="M149.65,44.44c-2.2-2.3-6.3-4.1-11.1-4.9a21.59,21.59,0,0,0-11,.8" transform="translate(-0.75 -18.47)"/><path class="cls-4" d="M166.55,130.44c1.2-2.9,1.4-7.4.3-12.1a21.68,21.68,0,0,0-5-9.9" transform="translate(-0.75 -18.47)"/><path class="cls-4" d="M162.45,108.44a9.72,9.72,0,0,0,5.5-2.8,10.28,10.28,0,0,0,3-4.7" transform="translate(-0.75 -18.47)"/><path class="cls-4" d="M115.75,50.84c-2.4,2-4.6,5.9-5.7,10.7a20.54,20.54,0,0,0,0,11" transform="translate(-0.75 -18.47)"/><path class="cls-4" d="M94.35,61.74c-3.1-.5-7.5.5-11.8,2.8a22.43,22.43,0,0,0-8.3,7.3" transform="translate(-0.75 -18.47)"/><path class="cls-4" d="M123.75,114c4.8.2,11.4-2,17.6-6.4,5.5-3.8,9.5-8.5,11.4-12.7" transform="translate(-0.75 -18.47)"/><path class="cls-4" d="M123.05,113.94a55.63,55.63,0,0,0-19-2.2c-8.5.3-15.9,2.1-20.9,4.7" transform="translate(-0.75 -18.47)"/><path class="cls-4" d="M107,128.94c2.6,2.1,7.2,3.6,12.5,3.8a22.57,22.57,0,0,0,11.7-2.3" transform="translate(-0.75 -18.47)"/><path class="cls-4" d="M131.25,130.44c2.3,1.9,6.3,3.2,10.9,3.3a21.19,21.19,0,0,0,10.2-2" transform="translate(-0.75 -18.47)"/><path class="cls-4" d="M82.55,135.74c3.3,1.2,8.3,1.1,13.5-.6a24,24,0,0,0,10.6-6.3" transform="translate(-0.75 -18.47)"/><path class="cls-4" d="M105.55,40.64c-9.5,1.8-16.6,10.5-16.5,21" transform="translate(-0.75 -18.47)"/></svg>