<svg id="Calque_1" data-name="Calque 1" xmlns="http://www.w3.org/2000/svg" xmlns:xlink="http://www.w3.org/1999/xlink" viewBox="0 0 200.73 200.73"><defs><style>.cls-1{fill:none;}.cls-2,.cls-3{stroke:#1e1e1d;stroke-width:1.8px;}.cls-2,.cls-3,.cls-4{stroke-linecap:round;stroke-linejoin:round;}.cls-2{fill:url(#Dégradé_sans_nom_23);}.cls-3{fill:url(#Dégradé_sans_nom_23-2);}.cls-4{fill:#1e1e1d;stroke-width:1.5px;stroke:url(#Dégradé_sans_nom_20);}</style><linearGradient id="Dégradé_sans_nom_23" x1="58.42" y1="92.15" x2="140.65" y2="92.15" gradientUnits="userSpaceOnUse"><stop offset="0.16" stop-color="#3a2acc"/><stop offset="0.83" stop-color="#3a3acc"/></linearGradient><linearGradient id="Dégradé_sans_nom_23-2" x1="17.2" y1="175.01" x2="182.61" y2="175.01" xlink:href="#Dégradé_sans_nom_23"/><linearGradient id="Dégradé_sans_nom_20" x1="8.92" y1="82.34" x2="190.98" y2="82.34" gradientUnits="userSpaceOnUse"><stop offset="0.16" stop-color="#3a2acc"/><stop offset="1" stop-color="#3a3acc"/></linearGradient></defs><rect class="cls-1" width="200.73" height="200.73"/><path class="cls-2" d="M134.43,91.1c.5-5.11.5-12.64.5-13.24a34.93,34.93,0,1,0-69.85,0c0,.6.2,7.72.6,12.94-4-.6-7.63,1.91-7.23,5.82,1.81,17.47,11.74,14.56,11.94,14.46,3.62,11.84,9.24,20.87,22,27.7v-.2l.21.2h-.21c.31.2.51.4.81.6h0a12.23,12.23,0,0,0,3.11,1.4h0a11.55,11.55,0,0,0,9.13-.8h.1l1.51-.9h.1l.8-.5C120.38,131.65,126.4,122,130,110.37c.1.1,10.24,1.51,10.64-13.75C140.75,92.61,137.74,90.8,134.43,91.1Z" transform="translate(0.36 0.73)"/><path class="cls-3" d="M173.67,176c-13.65-5.72-27.2-11.44-40.85-17.06-.4-.2-.8-.3-1.3-.5l-.91-.4-.1-.1h-.1l-10.13-4.52-.91,4.22h0l-4.21,20.27-.91,5.52c-.4,1.51-.7,2.91-1,4.42v.2h-7.93l4-25.09L106,158.25l3.92-6.12H89.26l4.22,6.12L90.07,163l4.61,25.19H86.75v-.1c-.3-1.41-.7-2.91-1-4.32l-1-5.52L80.53,158h0l-.9-4.22-10.14,4.52h-.1l-.1.1-.9.4c-.5.2-.91.3-1.31.5-13.65,5.72-27.3,11.34-40.85,17.06-6.32,2.61-9,6.93-9,13.65v7.83a3.87,3.87,0,0,0,.9.1H181.7a3.87,3.87,0,0,0,.9-.1V190C182.8,182.84,180,178.62,173.67,176Z" transform="translate(0.36 0.73)"/><path class="cls-4" d="M190.23,84.58c0-1.81-.7-2.41-2.31-2.71-5.12-.8-10.14-1.71-15.25-2.51-3.12-.5-5.22-2-6-5.22a64.76,64.76,0,0,0-6.82-16.36,6.32,6.32,0,0,1,.5-7.72c3-4.12,6-8.44,9-12.55.41-.6.71-1.2,1.21-2a11,11,0,0,0-1.41-1.7c-3.51-3.52-7.12-7-10.64-10.74-1.3-1.31-2.2-1.41-3.71-.3-4.21,3.11-8.53,6.22-12.85,9.33a5.87,5.87,0,0,1-7,.5,75.61,75.61,0,0,0-17.77-7.22,6,6,0,0,1-4.61-5.32c-.8-5.32-1.81-10.54-2.61-15.76-.3-1.71-1-2.21-2.61-2.21-5.12.1-10.14.1-15.26,0-1.8,0-2.41.7-2.71,2.31-.8,4.92-1.8,9.84-2.4,14.85-.51,3.52-2.21,5.52-5.73,6.73-5.32,1.9-10.53,4.11-15.65,6.52C62.57,33.9,60,34,57.25,32,53,28.88,48.72,25.87,44.5,22.86a2,2,0,0,0-2.81-.1l-.3.3Q36,28.63,30.25,34.2c-1.21,1.2-1.21,2.11-.2,3.41,3.11,4.22,6,8.53,9.13,12.75,2,2.61,2,5.12.6,8.13-2.41,5.22-4.61,10.63-6.52,16.05-1.1,3.22-3,4.92-6.32,5.42-5,.81-10,1.71-15.06,2.41-1.5.2-2.31.81-2.21,2.51.1,5.12.1,10.34,0,15.46,0,1.7.61,2.31,2.21,2.51,5.32.8,10.54,1.8,15.76,2.61a6.4,6.4,0,0,1,5.62,5,68.61,68.61,0,0,0,6.93,16.36,6.35,6.35,0,0,1-.51,7.73c-3.11,4.22-6,8.53-9.13,12.75-1,1.4-.9,2.31.3,3.51,3.61,3.51,7.23,7.13,10.74,10.84,1.2,1.21,2.11,1.21,3.41.2,4.22-3.11,8.53-6,12.75-9.13,1.91-1.51,12-3.51,12-3.51a3.1,3.1,0,0,0,.3-5.52,59.55,59.55,0,0,1-23.88-78c13.85-27.2,46.37-40,74.87-29.2a59.57,59.57,0,0,1,8.63,107.29,3.1,3.1,0,0,0,.3,5.52s10,1.5,11.94,3.11c4.32,3.11,8.74,6.22,13.05,9.33a2,2,0,0,0,2.81.1l.3-.3c3.62-3.71,7.33-7.43,11-11a2,2,0,0,0,.51-2.91l-.31-.3c-3.11-4.22-6-8.53-9.13-12.75-2-2.61-2-5.12-.6-8.13,2.51-5.22,4.72-10.64,6.72-16.06,1.11-3.21,2.91-4.91,6.33-5.42,5.11-.8,10.13-1.7,15.25-2.4a2.23,2.23,0,0,0,2.21-2.21v-.4C190.13,94.72,190.13,89.7,190.23,84.58Z" transform="translate(0.36 0.73)"/></svg>