<svg id="Calque_1" data-name="Calque 1" xmlns="http://www.w3.org/2000/svg" xmlns:xlink="http://www.w3.org/1999/xlink" viewBox="0 0 201.79 202.18"><defs><style>.cls-1{fill:none;}.cls-2,.cls-3,.cls-4{fill:#1e1e1d;}.cls-2,.cls-3,.cls-4,.cls-5{stroke-linecap:round;stroke-linejoin:round;stroke-width:2px;}.cls-2{stroke:url(#Dégradé_sans_nom_182);}.cls-3{stroke:url(#Dégradé_sans_nom_182-2);}.cls-4{stroke:url(#Dégradé_sans_nom_182-3);}.cls-5{stroke:#1e1e1d;fill:url(#Dégradé_sans_nom_182-4);}</style><linearGradient id="Dégradé_sans_nom_182" x1="81.07" y1="178.18" x2="119.52" y2="178.18" gradientUnits="userSpaceOnUse"><stop offset="0.17" stop-color="#f9ed32"/><stop offset="0.87" stop-color="#dabc22"/></linearGradient><linearGradient id="Dégradé_sans_nom_182-2" x1="105.1" y1="58.83" x2="159.46" y2="58.83" xlink:href="#Dégradé_sans_nom_182"/><linearGradient id="Dégradé_sans_nom_182-3" x1="105.3" y1="58.98" x2="125.82" y2="58.98" xlink:href="#Dégradé_sans_nom_182"/><linearGradient id="Dégradé_sans_nom_182-4" x1="75.85" y1="-8.07" x2="71.13" y2="168.01" xlink:href="#Dégradé_sans_nom_182"/></defs><rect class="cls-1" y="0.39" width="201.79" height="201.79"/><path class="cls-2" d="M115.91,158.91H84.67a2.67,2.67,0,0,0-2.6,2.7V181a3.87,3.87,0,0,0,2.3,3.61,5.64,5.64,0,0,0,2.21,3.4,15.12,15.12,0,0,0,13.71,9.41h0A15.14,15.14,0,0,0,114,188a5.67,5.67,0,0,0,2.2-3.4,3.81,3.81,0,0,0,2.3-3.61V161.61A2.55,2.55,0,0,0,115.91,158.91Z" transform="translate(1.79 -0.61)"/><path class="cls-3" d="M158.46,54.48c0-1-.4-1.4-1.4-1.6-3-.51-5.9-1-8.91-1.51a3.94,3.94,0,0,1-3.5-3,36.89,36.89,0,0,0-4-9.61,3.78,3.78,0,0,1,.3-4.51c1.8-2.4,3.51-4.9,5.21-7.31.2-.3.4-.7.7-1.2a7,7,0,0,0-.8-1c-2.1-2.1-4.21-4.1-6.21-6.21a1.4,1.4,0,0,0-1.9-.4c-.1.1-.2.1-.3.2l-7.51,5.41A3.48,3.48,0,0,1,126,24a40.84,40.84,0,0,0-10.41-4.21,3.4,3.4,0,0,1-2.7-3.1c-.5-3.1-1.1-6.21-1.5-9.21-.2-1-.6-1.3-1.51-1.3h-3.8V33.35a25.53,25.53,0,1,1,0,51.06v27H110c1.21,0,1.51-.4,1.61-1.4.5-3.11,1-6.21,1.5-9.22a3.5,3.5,0,0,1,2.8-3,39.85,39.85,0,0,0,9.81-4.1,3.62,3.62,0,0,1,4.41.3c2.5,1.8,5.11,3.6,7.61,5.5a1,1,0,0,0,1.6,0l.2-.2c2.1-2.2,4.31-4.3,6.51-6.5a1.19,1.19,0,0,0,.3-1.71c0-.1-.1-.1-.1-.2-1.8-2.5-3.51-5-5.31-7.41a4.06,4.06,0,0,1-.3-4.7c1.4-3.11,2.71-6.21,3.91-9.41a4.27,4.27,0,0,1,3.7-3.21c3-.4,5.91-1,8.91-1.4a1.32,1.32,0,0,0,1.3-1.3v-9Z" transform="translate(1.79 -0.61)"/><path class="cls-4" d="M124.82,59A19.18,19.18,0,0,0,106.3,40V78A19,19,0,0,0,124.82,59Z" transform="translate(1.79 -0.61)"/><path class="cls-5" d="M90.38,2.51C48,9.62,31.81,58.58,58.24,91.92c4.91,6.31,13.62,14.92,17.42,22,6.41,11.92,3.61,23.13,5.11,36.45.1.8,1,2.1,1.6,2.2a10.28,10.28,0,0,0,1.7.1h3.41l12.81-.1V1.61A55.35,55.35,0,0,0,90.38,2.51Z" transform="translate(1.79 -0.61)"/></svg>