<svg id="Calque_1" data-name="Calque 1" xmlns="http://www.w3.org/2000/svg" xmlns:xlink="http://www.w3.org/1999/xlink" viewBox="0 0 201.62 200.73"><defs><style>.cls-1{fill:none;}.cls-2,.cls-3{fill:#1e1e1d;}.cls-2,.cls-3,.cls-4,.cls-5,.cls-6{stroke-miterlimit:10;stroke-width:1.8px;}.cls-2{stroke:url(#Dégradé_sans_nom_69);}.cls-3{stroke:url(#Dégradé_sans_nom_69-2);}.cls-4,.cls-5,.cls-6{stroke:#1e1e1d;}.cls-4{fill:url(#Dégradé_sans_nom_69-3);}.cls-5{fill:url(#Dégradé_sans_nom_69-4);}.cls-6{fill:url(#Dégradé_sans_nom_69-5);}</style><linearGradient id="Dégradé_sans_nom_69" x1="31.42" y1="164.11" x2="168.78" y2="164.11" gradientUnits="userSpaceOnUse"><stop offset="0" stop-color="#61c855"/><stop offset="1" stop-color="#93d870"/></linearGradient><linearGradient id="Dégradé_sans_nom_69-2" x1="76.41" y1="140.67" x2="124.09" y2="140.67" xlink:href="#Dégradé_sans_nom_69"/><linearGradient id="Dégradé_sans_nom_69-3" x1="34.39" y1="92.71" x2="71.38" y2="92.71" xlink:href="#Dégradé_sans_nom_69"/><linearGradient id="Dégradé_sans_nom_69-4" x1="81.76" y1="78.23" x2="118.64" y2="78.23" xlink:href="#Dégradé_sans_nom_69"/><linearGradient id="Dégradé_sans_nom_69-5" x1="128.83" y1="63.3" x2="165.81" y2="63.3" xlink:href="#Dégradé_sans_nom_69"/></defs><rect class="cls-1" width="201.62" height="200.73"/><path class="cls-2" d="M100.84,161.44c-21.85,0-32.53-16.32-32.53-31.74h-36v9.69A3.77,3.77,0,0,0,36,143H46.66c2.07,0,2.76.49,3.56,2.47,1.38,3.16,2.67,6.42,4.15,9.49.79,1.78.69,3-.69,4.35-2.38,2.28-4.65,4.55-7,6.72a2.86,2.86,0,0,0-.5,4.06,1.32,1.32,0,0,0,.4.39c4.15,4.16,8.3,8.31,12.55,12.46a2.88,2.88,0,0,0,4.16.3l.39-.4c2-2.17,4.06-4.25,6-6.42,1.48-1.58,2.57-1.78,4.54-.79l11.87,5.34a3.29,3.29,0,0,1,2.37,3.36v11.07a3.45,3.45,0,0,0,3.27,3.27h19.57a3.63,3.63,0,0,0,3.56-3.66V184.28a3,3,0,0,1,2.18-3.17c4-1.78,8.11-3.56,12.16-5.43a3.29,3.29,0,0,1,4.15.69c2.08,2.17,4.16,4.25,6.14,6.42a2.86,2.86,0,0,0,4.15.3l.3-.3,12.36-12.36c1.58-1.58,1.58-3.26-.1-4.84-2.18-2-4.35-4.05-6.53-6a3.22,3.22,0,0,1-.79-4.16c1.48-3.36,3-6.72,4.45-10.18.79-1.78,1.48-2.37,3.46-2.37h7.61c2.28,0,3.46-1.09,3.46-3.46V129.6h-35.3C132.29,144.43,122.7,161.44,100.84,161.44Z" transform="translate(0.81 0.73)"/><path class="cls-3" d="M100.74,151.65c11.77-.4,22.45-9,22.45-22H77.31C77.31,142.25,87.89,151.65,100.74,151.65Z" transform="translate(0.81 0.73)"/><path class="cls-4" d="M34.39,63.64v58.14H47V105.37H58.62v16.41H71.38V63.64Zm14,30.26H40.72V86.19h7.81V93.9Zm0-14.44H40.72V71.65h7.81v7.81ZM65.15,93.9H57.34V86.19h7.81Zm0-14.44H57.34V71.65h7.81Z" transform="translate(0.81 0.73)"/><path class="cls-5" d="M81.76,34.67v87.11H94.42V105.37h11.66v16.41h12.56V34.67Zm22.64,8.11h7.81v7.71H104.4Zm-16.61,0H95.6v7.71H87.79Zm0,14.44H95.6v7.71H87.79ZM95.7,93.9H87.89V86.19H95.7Zm0-14.44H87.89V71.75H95.7Zm8.7-22.24h7.81v7.71H104.4Zm7.91,36.68H104.5V86.19h7.81Zm0-14.44H104.5V71.75h7.81Z" transform="translate(0.81 0.73)"/><path class="cls-6" d="M128.83,4.81v117h12.75V105.37h11.67v16.41h12.56V4.81Zm22.94,9h7.81v7.71h-7.81Zm0,14.43h7.81V36h-7.81Zm0,14.44h7.81v7.71h-7.81ZM135.06,13.81h7.81v7.71h-7.81Zm0,14.43h7.81V36h-7.81Zm0,14.44h7.81v7.71h-7.81Zm0,14.54h7.81v7.71h-7.81ZM143,93.9h-7.82V86.19H143Zm0-14.44h-7.82V71.75H143Zm8.8-22.24h7.81v7.71h-7.81Zm7.91,36.68h-7.81V86.19h7.81Zm0-14.44h-7.81V71.65h7.81Z" transform="translate(0.81 0.73)"/></svg>