<svg id="Calque_1" data-name="Calque 1" xmlns="http://www.w3.org/2000/svg" viewBox="0 0 45 45"><defs><style>.cls-1{fill:#fecc38;}</style></defs><title>mail_jaune</title><path class="cls-1" d="M22.26,0h3a4,4,0,0,0,.56.11,23.16,23.16,0,0,1,7.7,1.72C39.3,4.24,43.11,8.4,44.55,14.6c.21.89.3,1.81.45,2.72v3.23a1.58,1.58,0,0,0-.11.37,13.93,13.93,0,0,1-2.07,6.17C39.65,32,35.22,34.57,29.25,34a3.91,3.91,0,0,1-3.79-3.72c-.07-.51-.06-1-.09-1.71-.24.33-.4.53-.55.73a12.22,12.22,0,0,1-4.64,4.1c-4.22,1.85-7.82.14-9-4.12a10.6,10.6,0,0,1-.21-4,17.38,17.38,0,0,1,5.41-11.39,9.93,9.93,0,0,1,7-2.95,7.6,7.6,0,0,1,4.9,1.85c.43-.43.84-.84,1.26-1.24.13-.12.3-.3.45-.31,1.07,0,2.14,0,3.24,0,0,.25,0,.42-.05.58-.58,3.26-1.18,6.52-1.73,9.78-.29,1.78-.58,3.57-.69,5.36-.1,1.48.63,2.07,2.1,2a6.48,6.48,0,0,0,.77-.09,6.75,6.75,0,0,0,4.85-4.41,14.93,14.93,0,0,0,.79-8.18,11.64,11.64,0,0,0-6.45-9.17A19.62,19.62,0,0,0,20.42,5.45a17,17,0,0,0-13.1,9.78,19.17,19.17,0,0,0-1.41,12A14.18,14.18,0,0,0,10.82,36,17.77,17.77,0,0,0,21.58,39.8a17.55,17.55,0,0,0,8.06-1.32l1.55,4.79a31.78,31.78,0,0,1-3.12,1,26.78,26.78,0,0,1-12.77-.19C9.24,42.61,4.65,39.22,2,33.44A24.34,24.34,0,0,1,.41,19.1,22.52,22.52,0,0,1,18.76.51C19.92.3,21.09.17,22.26,0ZM17,25.14c0,.3,0,.61,0,.91.15,2.05,1.32,3.12,3.23,2.89a3.65,3.65,0,0,0,1.42-.53,11.63,11.63,0,0,0,3.85-4.27,1.26,1.26,0,0,0,.13-.43c.36-2,.69-4,1.09-6a.76.76,0,0,0-.38-.89,4.76,4.76,0,0,0-5.65.31C18.08,19.19,17.13,22,17,25.14Z" transform="translate(0)"/></svg>