<svg id="Calque_1" data-name="Calque 1" xmlns="http://www.w3.org/2000/svg" viewBox="0 0 45 45"><defs><style>.cls-1{fill:#fecc38;}</style></defs><title>icone_instagram_jaune</title><path class="cls-1" d="M0,22.51V12.82A13.09,13.09,0,0,1,7.75,1.11,13.74,13.74,0,0,1,13.18,0C19.46,0,25.74,0,32,0A13,13,0,0,1,44.69,10.35,14.35,14.35,0,0,1,45,13.2q0,9.42,0,18.85A13.09,13.09,0,0,1,34,44.82a15.84,15.84,0,0,1-2.37.17H13A13.09,13.09,0,0,1,.1,33.48,11.38,11.38,0,0,1,0,32.17C0,29,0,25.73,0,22.51Zm3.47,0v9.11A13.45,13.45,0,0,0,3.54,33a9.55,9.55,0,0,0,9.69,8.51H31.79a11.08,11.08,0,0,0,1.82-.15,9.55,9.55,0,0,0,7.9-9.59c0-6.18,0-12.38,0-18.56a10.07,10.07,0,0,0-.17-1.89A9.52,9.52,0,0,0,31.8,3.47q-9.28,0-18.6,0a9.26,9.26,0,0,0-3.89.77,9.41,9.41,0,0,0-5.84,9C3.42,16.31,3.47,19.39,3.47,22.48Z"/><path class="cls-1" d="M34.61,22.51a12.11,12.11,0,1,1,0-.07ZM22.47,13.88a8.53,8.53,0,0,0-8.59,8.48v.05a8.59,8.59,0,0,0,8.53,8.7,8.62,8.62,0,1,0,.06-17.23Z"/><path class="cls-1" d="M38.09,9.55A2.62,2.62,0,1,1,35.5,6.91h0A2.63,2.63,0,0,1,38.09,9.55Z"/></svg>