<svg id="Calque_1" data-name="Calque 1" xmlns="http://www.w3.org/2000/svg" viewBox="0 0 45.5 45"><defs><style>.cls-1{fill:none;}.cls-2{fill:#fecc38;}</style></defs><title>icone_linkedin_jaune</title><rect class="cls-1" x="0.25" width="45" height="45"/><path class="cls-2" d="M25.33,45H15.54V16.17h9.64c.08,1,.17,2,.26,3.33a10.68,10.68,0,0,1,8.71-4.18c6.18.13,10.48,4.05,10.9,11,.39,6.12.08,12.31.08,18.64H35.29V42.87c0-4.35,0-8.71,0-13A11.7,11.7,0,0,0,35,27.13c-.59-2.63-2-3.88-4.37-3.92a5.06,5.06,0,0,0-5,3.85,12.75,12.75,0,0,0-.26,2.7C25.31,34.75,25.33,39.76,25.33,45Z" transform="translate(0.25 0)"/><path class="cls-2" d="M10.15,45H.47c0-.64-.11-1.25-.11-1.86,0-8.35,0-16.71,0-25.08,0-1.65.53-2.11,2.13-2,2.52.11,5.06,0,7.71,0V45Z" transform="translate(0.25 0)"/><path class="cls-2" d="M5.28,12.34c-3.17,0-5.51-2.17-5.53-5.08S2.2,2.09,5.44,2.13A5.26,5.26,0,0,1,11,7.23C11,10.17,8.56,12.36,5.28,12.34Z" transform="translate(0.25 0)"/></svg>