<?xml version="1.0" encoding="utf-8"?>
<!-- Generator: Adobe Illustrator 24.0.1, SVG Export Plug-In . SVG Version: 6.00 Build 0)  -->
<svg version="1.1" id="Calque_1" xmlns="http://www.w3.org/2000/svg" xmlns:xlink="http://www.w3.org/1999/xlink" x="0px" y="0px"
	 viewBox="0 0 200 200" style="enable-background:new 0 0 200 200;" xml:space="preserve">
<style type="text/css">
	.st0{fill:#E84A19;}
	.st1{fill:none;}
</style>
<g>
	<path class="st0" d="M177.8,21.5c-12.3,0-22.2,10-22.2,22.2c0,1.3,0.1,2.5,0.3,3.7c-0.1,0-0.2,0.1-0.3,0.1l-27.3,13.7
		c-5.1-10.5-15.9-17.7-28.3-17.7c-11.8,0-22.1,6.5-27.5,16.1L44.4,45.6c0-0.6,0.1-1.2,0.1-1.8c0-12.3-10-22.2-22.2-22.2
		C10,21.5,0,31.5,0,43.7C0,56,10,66,22.2,66c10.1,0,18.7-6.8,21.3-16l27.1,13.7c-1.4,3.6-2.2,7.5-2.2,11.5
		c0,16.8,13.1,30.4,29.6,31.5v27.5c-11.4,1-20.3,10.5-20.3,22.1c0,12.3,10,22.2,22.2,22.2c12.3,0,22.2-10,22.2-22.2
		c0-11.5-8.7-20.9-19.9-22.1v-27.6c16.3-1.2,29.2-14.8,29.2-31.4c0-3.5-0.6-6.8-1.6-9.9l27-13.6C160.2,60,168.3,66,177.8,66
		C190,66,200,56,200,43.7C200,31.5,190,21.5,177.8,21.5z M22.2,29.2c4.2,0,7.6,3.4,7.6,7.6c0,4.2-3.4,7.6-7.6,7.6
		c-4.2,0-7.6-3.4-7.6-7.6C14.6,32.6,18,29.2,22.2,29.2z M36.6,58.3H7.9v-4.4c0-4.2,3.4-7.6,7.6-7.6H29c4.2,0,7.6,3.4,7.6,7.6V58.3z
		 M100,54.5c6,0,10.8,4.9,10.8,10.8S106,76.2,100,76.2c-6,0-10.8-4.9-10.8-10.8S94,54.5,100,54.5z M114.4,166.4v4.4H85.7v-4.4
		c0-4.2,3.4-7.6,7.6-7.6h13.6C111,158.9,114.4,162.3,114.4,166.4z M107.7,149.3c0,4.2-3.4,7.6-7.6,7.6c-4.2,0-7.6-3.4-7.6-7.6
		s3.4-7.6,7.6-7.6C104.3,141.7,107.7,145.1,107.7,149.3z M120.4,95.8H79.7v-6.2c0-5.9,4.8-10.7,10.7-10.7h19.2
		c5.9,0,10.7,4.8,10.7,10.7V95.8z M177.8,29.2c4.2,0,7.6,3.4,7.6,7.6c0,4.2-3.4,7.6-7.6,7.6c-4.2,0-7.6-3.4-7.6-7.6
		C170.1,32.6,173.6,29.2,177.8,29.2z M192.1,58.3h-28.7v-4.4c0-4.2,3.4-7.6,7.6-7.6h13.6c4.2,0,7.6,3.4,7.6,7.6V58.3z"/>
	<rect x="0" y="0" class="st1" width="200" height="200"/>
</g>
</svg>
