<?xml version="1.0" encoding="utf-8"?>
<!-- Generator: Adobe Illustrator 24.0.1, SVG Export Plug-In . SVG Version: 6.00 Build 0)  -->
<svg version="1.1" id="Calque_1" xmlns="http://www.w3.org/2000/svg" xmlns:xlink="http://www.w3.org/1999/xlink" x="0px" y="0px"
	 viewBox="0 0 200 200" style="enable-background:new 0 0 200 200;" xml:space="preserve">
<style type="text/css">
	.st0{fill:#E84A19;}
</style>
<g>
	<circle class="st0" cx="100.4" cy="100.3" r="47.4"/>
	<path class="st0" d="M102.1,45.6h-4.1c-3.3,0-6-2.7-6-6V6c0-3.3,2.7-6,6-6l4.1,0c3.3,0,6,2.7,6,6v33.6
		C108.1,42.9,105.4,45.6,102.1,45.6z"/>
	<path class="st0" d="M102.1,200h-4.1c-3.3,0-6-2.7-6-6v-33.6c0-3.3,2.7-6,6-6h4.1c3.3,0,6,2.7,6,6V194
		C108.1,197.3,105.4,200,102.1,200z"/>
	<path class="st0" d="M46.3,97.3v4.1c0,3.3-2.7,6-6,6H6.7c-3.3,0-6-2.7-6-6v-4.1c0-3.3,2.7-6,6-6h33.6C43.6,91.3,46.3,94,46.3,97.3z
		"/>
	<path class="st0" d="M199.3,97.3v4.1c0,3.3-2.7,6-6,6h-33.6c-3.3,0-6-2.7-6-6v-4.1c0-3.3,2.7-6,6-6h33.6
		C196.6,91.3,199.3,94,199.3,97.3z"/>
	<path class="st0" d="M66.9,56.8l-3.2,2.6c-2.5,2.1-6.3,1.7-8.4-0.8L33.9,32.7c-2.1-2.5-1.7-6.3,0.8-8.4l3.2-2.6
		c2.5-2.1,6.3-1.7,8.4,0.8l21.4,25.9C69.8,50.9,69.5,54.7,66.9,56.8z"/>
	<path class="st0" d="M165.3,175.8l-3.2,2.6c-2.5,2.1-6.3,1.7-8.4-0.8l-21.4-25.9c-2.1-2.5-1.7-6.3,0.8-8.4l3.2-2.6
		c2.5-2.1,6.3-1.7,8.4,0.8l21.4,25.9C168.2,169.9,167.8,173.7,165.3,175.8z"/>
	<path class="st0" d="M56.9,132.1l2.6,3.2c2.1,2.5,1.7,6.3-0.8,8.4l-25.9,21.4c-2.5,2.1-6.3,1.7-8.4-0.8l-2.6-3.2
		c-2.1-2.5-1.7-6.3,0.8-8.4l25.9-21.4C51,129.2,54.8,129.6,56.9,132.1z"/>
	<path class="st0" d="M174.8,34.6l2.6,3.2c2.1,2.5,1.7,6.3-0.8,8.4l-25.9,21.4c-2.5,2.1-6.3,1.7-8.4-0.8l-2.6-3.2
		c-2.1-2.5-1.7-6.3,0.8-8.4l25.9-21.4C168.9,31.7,172.7,32.1,174.8,34.6z"/>
</g>
</svg>
