<?xml version="1.0" encoding="utf-8"?>
<!-- Generator: Adobe Illustrator 24.0.1, SVG Export Plug-In . SVG Version: 6.00 Build 0)  -->
<svg version="1.1" id="Calque_1" xmlns="http://www.w3.org/2000/svg" xmlns:xlink="http://www.w3.org/1999/xlink" x="0px" y="0px"
	 viewBox="0 0 200 200" style="enable-background:new 0 0 200 200;" xml:space="preserve">
<style type="text/css">
	.st0{fill:#E84A19;}
	.st1{fill:none;}
</style>
<g>
	<path class="st0" d="M146.1,123.8V0h-92v123.8H35.7V200h18.4h32.4v-40.6h26.6V200h33.1h18.1v-76.2H146.1z M60.7,9.4h14.1v22.3H60.7
		V9.4z M60.7,37.5h14.1v22.3H60.7V37.5z M60.7,65.7h14.1V88H60.7V65.7z M60.7,93.8h14.1v22.3H60.7V93.8z M57.2,181.8H43.1v-22.3
		h14.1V181.8z M60.7,120.8h14.1v22.3H60.7V120.8z M78.3,181.8H64.3v-22.3h14.1V181.8z M95.9,143.1H81.8v-22.3h14.1V143.1z
		 M95.9,116.1H81.8V93.8h14.1V116.1z M95.9,88H81.8V65.7h14.1V88z M95.9,59.8H81.8V37.5h14.1V59.8z M95.9,31.7H81.8V9.4h14.1V31.7z
		 M117,143.1H103v-22.3H117V143.1z M117,116.1H103V93.8H117V116.1z M117,88H103V65.7H117V88z M117,59.8H103V37.5H117V59.8z
		 M117,31.7H103V9.4H117V31.7z M134.6,181.8h-14.1v-22.3h14.1V181.8z M138.2,143.1h-14.1v-22.3h14.1V143.1z M138.2,116.1h-14.1V93.8
		h14.1V116.1z M138.2,88h-14.1V65.7h14.1V88z M138.2,59.8h-14.1V37.5h14.1V59.8z M138.2,31.7h-14.1V9.4h14.1V31.7z M155.8,181.8
		h-14.1v-22.3h14.1V181.8z"/>
	<rect y="0" class="st1" width="200" height="200"/>
</g>
</svg>
