<?xml version="1.0" encoding="utf-8"?>
<!-- Generator: Adobe Illustrator 24.0.1, SVG Export Plug-In . SVG Version: 6.00 Build 0)  -->
<svg version="1.1" id="Calque_1" xmlns="http://www.w3.org/2000/svg" xmlns:xlink="http://www.w3.org/1999/xlink" x="0px" y="0px"
	 viewBox="0 0 200 200" style="enable-background:new 0 0 200 200;" xml:space="preserve">
<style type="text/css">
	.st0{fill:#63C858;}
</style>
<path d="M31.62,200c0-0.45,0-0.86,0-1.27c0-38.96,0-77.91-0.01-116.87c0-0.9,0.26-1.55,0.96-2.15c2.94-2.53,5.83-5.11,8.73-7.69
	c2.19-1.95,4.36-3.93,6.53-5.89c3.18-2.87,6.36-5.75,9.54-8.62c3.3-2.97,6.59-5.94,9.89-8.91c2.18-1.96,4.36-3.93,6.54-5.89
	c3.27-2.95,6.53-5.89,9.8-8.84c2.15-1.94,4.3-3.88,6.45-5.82c3.18-2.87,6.36-5.74,9.54-8.62c0.17-0.15,0.35-0.28,0.66-0.52
	c2.42,1.96,4.84,3.91,7.26,5.87c0.23,0.19,0.45,0.4,0.69,0.58c3.19,2.52,6.39,5.03,9.57,7.57c2.41,1.92,4.8,3.87,7.2,5.8
	c3.72,2.99,7.44,5.98,11.16,8.97c2.43,1.96,4.86,3.92,7.29,5.87c2.46,1.98,4.92,3.95,7.38,5.93c2.34,1.88,4.67,3.78,7.01,5.66
	c2.46,1.98,4.92,3.96,7.38,5.94c2.43,1.96,4.86,3.92,7.29,5.87c1.17,0.94,2.36,1.86,3.49,2.85c0.29,0.26,0.45,0.72,0.57,1.12
	c0.09,0.32,0.02,0.68,0.02,1.02c0,38.81,0,77.61,0,116.42c0,0.52,0,1.04,0,1.61C128.2,200,79.97,200,31.62,200z M173.42,196.57
	c0-0.64,0-1.17,0-1.69c0-34.41,0-68.82,0-103.22c0-2.88,0.03-5.76-0.03-8.64c-0.01-0.48-0.3-1.08-0.67-1.39
	c-1.78-1.56-3.61-3.05-5.44-4.54c-3.85-3.11-7.72-6.2-11.58-9.3c-2.25-1.81-4.5-3.63-6.75-5.45c-3.68-2.97-7.37-5.94-11.05-8.91
	c-2.33-1.88-4.66-3.77-7-5.65c-3.96-3.17-7.92-6.33-11.89-9.49c-1.88-1.5-3.79-2.98-5.68-4.47c-1.3-1.02-2.59-2.05-3.87-3.09
	c-2.81-2.3-5.61-4.61-8.4-6.93c-0.56-0.46-0.98-0.51-1.54,0.04c-1.5,1.47-3.05,2.89-4.59,4.3c-2.11,1.93-4.23,3.83-6.35,5.74
	c-3.26,2.94-6.53,5.89-9.79,8.83c-3.27,2.94-6.54,5.88-9.81,8.82c-3.35,3.02-6.69,6.04-10.04,9.06c-2.04,1.84-4.06,3.68-6.11,5.51
	c-2.81,2.5-5.64,4.98-8.44,7.49c-2.93,2.64-5.81,5.33-8.77,7.94c-0.62,0.55-0.91,1.06-0.91,1.91c0.02,37.29,0.02,74.58,0.02,111.86
	c0,0.41,0,0.81,0,1.28C81,196.57,127.13,196.57,173.42,196.57z"/>
<path d="M125.85,148.05c-0.02,0.4-0.06,0.83-0.06,1.27c0,13.64,0,27.28-0.01,40.93c0,1.91-0.73,3.43-2.64,3.94
	c-1.55,0.41-3.51-0.47-3.84-2.02c-0.2-0.95-0.34-1.92-0.35-2.89c-0.03-5.46-0.03-10.91,0-16.37c0-0.92-0.17-1.39-1.22-1.09
	c-0.38,0.11-0.86,0.09-1.23-0.03c-1.05-0.35-1.17,0.24-1.16,1.03c0.03,3.13,0.09,6.26,0.09,9.39c0,2.99,0.07,5.99-0.13,8.97
	c-0.14,2.04-1.76,3.37-3.47,3.1c-2.03-0.33-3.15-1.32-3.19-3.7c-0.06-4.09-0.03-8.19-0.01-12.28c0.04-10.15,0-20.31,0.21-30.46
	c0.05-2.3-0.92-3.43-2.57-4.64c-1.66-1.23-3.13-2.76-4.54-4.29c-1.41-1.54-2.78-3.15-3.92-4.89c-1.99-3.02-3.5-6.29-4.53-9.77
	c-0.39-1.33-0.88-2.63-1.3-3.95c-0.55-1.72,0.09-3.12,1.29-4.31c0.51-0.51,0.75-1.02,0.76-1.75c0.06-7.43,0.15-14.85,0.23-22.28
	c0-0.3,0-0.6,0-0.98C91.71,90.66,90.03,89.14,89,87c-1.04-2.17-1.04-4.52,0.02-6.68c1.87-3.82,6.42-5.32,9.93-2.52
	c3.43,2.74,3.9,8.56,0,11.85c-0.88,0.74-2.13,1.03-3.43,1.64c0,7.71,0,15.65,0,23.66c2.84-0.01,3.57,2.15,4.38,4.32
	c1.06,2.85,1.99,5.78,3.4,8.44c1.54,2.9,3.65,5.49,6.38,7.58c0.65-0.62,1.45-1.16,1.96-1.9c1.08-1.55,2.78-1.72,4.35-1.99
	c1.92-0.33,3.91-0.08,5.58,0.98c1.61,1.02,3,2.36,3.56,4.32c0.09,0.32,0.32,0.66,0.59,0.85c3.62,2.6,7.27,5.14,11.21,7.26
	c3.08,1.66,3.31,4.79,1.42,7.11c-0.82,1.01-2.73,1.59-4.04,0.91C131.48,151.37,128.77,149.71,125.85,148.05z"/>
<path d="M126.34,117.26c-0.35,2.1-0.42,4.06-1.03,5.83c-1.43,4.08-4.87,6.47-9.09,6.2c-3.32-0.21-5.93-1.87-7.35-4.94
	c-0.7-1.51-1.05-3.19-1.4-4.83c-0.14-0.65,0.12-1.4,0.21-2.21c-1.93,0-3.77,0-5.67,0c0-0.5,0-0.89,0-1.4c1.69,0,3.34-0.03,5,0.01
	c0.64,0.02,0.98-0.16,1.27-0.78c1.02-2.19,2.51-3.86,4.73-5.04c2.1-1.12,4.19-1.3,6.25-0.6c2.62,0.88,4.74,2.61,5.81,5.28
	c0.38,0.96,0.9,1.19,1.85,1.15c1.77-0.08,3.55-0.02,5.39-0.02c0,0.47,0,0.86,0,1.36C130.24,117.26,128.17,117.26,126.34,117.26z"/>
<g>
	<path class="st0" d="M13.69,83.63c-0.41-0.7,0.17-1.01,0.56-1.38c10.69-10.13,21.38-20.26,32.06-30.4
		c9.18-8.71,18.33-17.44,27.51-26.14c7.13-6.75,14.29-13.47,21.43-20.22c1.45-1.37,2.85-2.8,4.21-4.26
		c0.81-0.87,1.43-0.78,2.23,0.02c9.35,9.29,19.57,17.63,29.28,26.52c7.84,7.18,15.99,14,23.95,21.05
		c7.82,6.93,15.49,14.04,23.38,20.89c5.15,4.47,9.94,9.34,15.4,13.45c0,0.3,0,0.6,0,0.9c-3.58-1.88-6.56-4.61-9.81-6.95
		c-9.6-6.88-19.06-13.93-28.6-20.89c-5.96-4.34-11.97-8.61-17.92-12.95c-9.49-6.92-18.93-13.91-28.47-20.77
		c-2.3-1.65-4.59-3.31-6.77-5.1c-1.32-1.09-2.31-0.99-3.63,0.07c-4.8,3.87-9.69,7.62-14.55,11.41
		c-11.53,9.01-23.06,18.03-34.6,27.03c-9.43,7.36-18.91,14.65-28.31,22.05C18.62,79.89,16.31,81.96,13.69,83.63z"/>
</g>
<g>
	<path class="st0" d="M76.33,108.81c-2.8-3.24-5.69-6.39-7.58-10.33c-4.38-9.11-4.38-18.32-0.92-27.66
		c1.31-3.54,3.18-6.82,5.46-9.82c0.6-0.79,0.96-2.86,2.84-1.54c1.93,1.35,0.28,2.33-0.43,3.31c-3.3,4.6-5.85,9.51-6.87,15.15
		c-1.86,10.25,0.79,19.26,7.95,26.7c1.87,1.94,0.16,2.82,0.01,4.19C76.64,108.81,76.48,108.81,76.33,108.81z"/>
</g>
<g>
	<path class="st0" d="M124.56,82.86c0.1,9.45-3.12,17.24-8.66,24.16c-0.34,0.42-0.52,1.95-1.79,0.81c-0.99-0.89-1.35-1.55-0.35-2.81
		c3.82-4.81,6.51-10.2,7.54-16.3c1.67-9.97-1-18.67-7.87-26.08c-0.6-0.65-1.54-1.17-1.3-2.24c0.33-1.46,1.71-1.73,2.87-0.51
		C121.23,66.44,124.74,74.12,124.56,82.86z"/>
</g>
<g>
	<path class="st0" d="M115.35,84.5c0.02-7.64-2.36-13.08-6.69-17.65c-1.23-1.3-0.25-1.83,0.36-2.62c0.65-0.84,1.11-0.38,1.63,0.21
		c5.02,5.68,8.05,12.18,7.71,19.88c-0.3,6.71-2.76,12.7-6.97,17.94c-0.4,0.49-0.7,1.4-1.53,0.47c-0.57-0.64-1.51-1.04-0.62-2.24
		c1.96-2.66,3.48-5.58,4.66-8.68C114.93,89.04,115.41,86.2,115.35,84.5z"/>
</g>
<g>
	<path class="st0" d="M71.63,83.86c0.15-7.19,2.64-13.35,6.8-18.88c0.49-0.65,0.95-1.53,1.94-0.47c0.66,0.71,1.19,1.13,0.36,2.26
		c-3.35,4.58-5.78,9.63-6.17,15.37c-0.46,6.68,1.96,12.44,6.17,17.56c0.51,0.61,2.05,1.1,0.81,2.54c-0.85,0.99-1.28,1.19-2.27,0.13
		C74.35,97.09,71.78,90.89,71.63,83.86z"/>
</g>
<g>
	<path class="st0" d="M105.4,69.12c7.93,6.79,7.81,19.88,1.72,27.57c-0.46,0.58-0.85,1.54-1.72,0.54c-0.58-0.66-1.62-1.15-0.63-2.44
		c2.56-3.37,4.13-7.11,4.1-11.47c-0.03-3.78-1.32-7.02-3.57-9.97C103.69,71.26,103.72,71.24,105.4,69.12z"/>
</g>
<g>
	<path class="st0" d="M78.58,83.66c0.05-4.9,1.29-9.39,4.41-13.27c0.51-0.63,0.94-1.34,1.76-0.38c0.55,0.65,1.52,1.02,0.57,2.24
		c-2.11,2.7-3.48,5.75-4.03,9.19c-0.79,4.91,0.79,9.06,3.85,12.8c0.48,0.59,1.5,0.99,0.83,2.09c-0.73,1.2-1.26,2.04-2.65,0.46
		C79.99,93,78.51,88.64,78.58,83.66z"/>
</g>
</svg>
