<?xml version="1.0" encoding="utf-8"?>
<!-- Generator: Adobe Illustrator 24.0.1, SVG Export Plug-In . SVG Version: 6.00 Build 0)  -->
<svg version="1.1" id="Calque_1" xmlns="http://www.w3.org/2000/svg" xmlns:xlink="http://www.w3.org/1999/xlink" x="0px" y="0px"
	 viewBox="0 0 200 200" style="enable-background:new 0 0 200 200;" xml:space="preserve">
<style type="text/css">
	.st0{fill:#A402CB;}
</style>
<g>
	<g>
		<polygon class="st0" points="150.8,126.06 146.29,126.06 146.29,4.94 57.38,4.94 57.38,126.06 52.87,126.06 52.87,0.43 
			150.8,0.43 		"/>
		<path class="st0" d="M98.93,51.65H62.86V22.34h36.08V51.65z M67.37,47.14h27.06V26.85H67.37V47.14z"/>
		<path class="st0" d="M141.13,51.65h-36.08V22.34h36.08V51.65z M109.56,47.14h27.06V26.85h-27.06V47.14z"/>
		<path class="st0" d="M98.93,91.27H62.86V61.96h36.08V91.27z M67.37,86.76h27.06V66.47H67.37V86.76z"/>
		<path class="st0" d="M141.13,91.27h-36.08V61.96h36.08V91.27z M109.56,86.76h27.06V66.47h-27.06V86.76z"/>
	</g>
	<path d="M102.14,113.23c-0.69,1.45-1.33,2.69-1.9,3.97c-0.89,2-1.81,3.99-2.57,6.03c-0.86,2.29-3.04,2.67-4.85,3.54
		c-4.23,2.04-8.49,4.02-12.78,5.91c-1.1,0.48-1.31,1.11-1.31,2.18c-0.02,11.43-0.09,22.87-0.13,34.3
		c-0.03,8.86-0.04,17.71-0.07,26.57c-0.01,2.57-1.71,4.17-4.43,4.2c-2.74,0.03-4.57-1.61-4.6-4.2c-0.12-9.76-0.21-19.53-0.32-29.29
		c-0.01-1.01-0.11-2.02-0.17-3.13c-0.54,0-0.99,0-1.66,0c-0.07,1.44-0.2,2.87-0.21,4.3c-0.09,9.23-0.15,18.45-0.22,27.68
		c-0.01,2.23-1.04,3.82-2.95,4.47c-1.91,0.65-4.81-0.08-5.83-1.65c-0.4-0.62-0.49-1.53-0.49-2.3c-0.04-7.73,0-15.46-0.06-23.19
		c-0.09-12.61-0.23-25.22-0.38-37.84c-0.01-0.55-0.35-1.1-0.54-1.64c-0.5,0.38-1.17,0.67-1.47,1.17c-0.6,1-1,2.11-1.47,3.18
		c-2.95,6.79-5.89,13.59-8.84,20.38c-0.65,1.5-2.59,2.26-4.12,1.63c-1.41-0.58-2.21-2.34-1.58-3.9c1.31-3.21,2.75-6.36,4.12-9.54
		c1.68-3.92,3.32-7.86,5.02-11.76c1.02-2.33,2-4.7,3.24-6.91c1.01-1.8,2.87-2.56,4.88-2.61c6.49-0.16,12.99-0.42,19.48-0.25
		c3.68,0.1,6.88-1.24,10.24-2.22c1.17-0.35,2.28-1.02,3.47-1.2c1.93-0.3,2.93-1.37,3.61-3.11c1.04-2.63,2.27-5.18,3.38-7.77
		c0.18-0.43,0.21-0.92,0.25-1.1c-3.47-0.59-6.96-0.86-10.26-1.81c-10.66-3.06-16.9-13.04-15.56-23.79
		c0.8-6.44,3.33-11.87,8.37-16.03c3.07-2.54,6.68-3.93,10.52-4.83c0.82-0.19,1.7-0.65,2.27-1.26c3.64-3.9,7.19-7.87,10.77-11.82
		c0.1-0.11,0.13-0.28,0.24-0.54c-2.32-1.28-4.63-2.55-7.05-3.89c-2.92,2.53-5.88,5.06-8.81,7.62c-1.5,1.31-4.64,1.26-6.04-0.15
		c-2.37-2.42-2.55-5.03-0.18-7.12c3.63-3.2,7.42-6.22,11.14-9.32c1.9-1.58,3.88-1.76,6.07-0.55c7.52,4.14,15.09,8.19,22.59,12.37
		c2.94,1.64,3.38,5.86,1.07,8.3c-3.01,3.18-5.99,6.39-8.97,9.6c-0.16,0.17-0.21,0.44-0.42,0.91c3.31-0.16,6.39-0.3,9.47-0.47
		c2.68-0.15,5.35-0.43,8.03-0.49c3.09-0.07,5.18,2.32,4.92,5.39c-0.68,7.96-1.33,15.91-2,23.87c-0.24,2.77-1.96,4.48-4.62,4.65
		c-2.71,0.17-4.72-1.28-5.16-3.97c-0.18-1.13,0.07-2.34,0.17-3.51c0.44-5.34,0.89-10.68,1.34-16.02c0.02-0.2-0.02-0.41-0.05-0.84
		c-2.29,0.14-4.51,0.28-6.92,0.43c1.24,3.88,1.44,7.7,0.42,11.49c-0.95,3.56-2.18,6.93-5.49,9.2c-4.47,3.08-9.74,1.68-12.5-2.78
		c-0.77,0.53-1.52,1.09-2.31,1.58c-4,2.51-8.16,3.29-12.61,1.23c-3.03-1.4-5.07-5.32-4.38-8.87c0.97-5.05,3.03-9.55,7.27-12.75
		c4.2-3.17,8.76-4.12,13.64-1.73c2.44,1.19,3.93,3.28,3.79,6.03c-0.16,3.13-0.71,6.24-1.06,9.36c-0.09,0.79-0.19,1.62-0.07,2.39
		c0.4,2.5,3.07,3.73,5.09,2.21c1.17-0.89,2.26-2.15,2.87-3.47c2.63-5.65,2.64-11.21-1.47-16.25c-2.26-2.78-5.28-4.58-8.71-5.65
		c-5.01-1.56-10.03-1.66-14.95,0.27c-4.74,1.85-8.3,5.04-9.98,9.96c-0.82,2.4-1.77,4.9-1.84,7.38c-0.18,6.42,2.24,11.89,7.74,15.47
		c6.18,4.02,13,4.47,19.87,2.11c3.14-1.08,6.05-2.85,9.01-4.41c1.43-0.75,2.83-0.73,3.61,0.36c0.74,1.04,0.34,2.51-1.11,3.36
		c-2.69,1.59-5.44,3.08-8.08,4.56c1.72,3.96,3.48,8.09,5.34,12.18c0.29,0.64,0.97,1.32,1.63,1.56c3.5,1.27,7.04,2.41,10.58,3.57
		c0.5,0.16,1.05,0.23,1.58,0.23c7.24,0.12,14.49,0.27,21.74,0.29c3.19,0.01,5.28,1.52,6.5,4.3c1.61,3.65,3.02,7.39,4.61,11.05
		c2.16,4.98,4.39,9.92,6.62,14.87c0.82,1.82,0.29,3.83-1.29,4.56c-1.66,0.77-3.49-0.11-4.34-2.04c-2.65-6.04-5.34-12.08-7.99-18.12
		c-0.71-1.61-1.32-3.26-2.04-4.86c-0.36-0.8-0.72-1.79-2.22-1.06c0,5.36,0.02,10.83,0,16.3c-0.08,15.4-0.18,30.81-0.28,46.21
		c-0.02,2.4-1.77,3.97-4.43,4.01c-2.84,0.04-4.76-1.5-4.85-3.98c-0.07-1.93-0.03-3.86-0.05-5.8c-0.09-8.32-0.18-16.63-0.28-24.94
		c-0.01-0.58-0.05-1.17-0.09-1.86c-0.59,0-1.08,0-1.95,0c0,3.93,0.02,7.78,0,11.63c-0.05,6.92-0.12,13.84-0.2,20.75
		c-0.03,2.54-1.92,4.23-4.64,4.21c-2.7-0.02-4.39-1.64-4.4-4.21c-0.08-20.29-0.16-40.58-0.21-60.87c0-1.07-0.26-1.69-1.32-2.16
		c-4.96-2.2-9.86-4.55-14.83-6.74c-1.66-0.74-2.56-2.04-3.23-3.56c-1.21-2.72-2.33-5.48-3.52-8.22
		C102.88,113.91,102.59,113.71,102.14,113.23z M101.28,80.86c-0.13-1.65-0.31-3.25-2.04-3.95c-2.25-0.9-4.47-0.75-6.61,0.51
		c-4.09,2.4-6.02,6.21-6.85,10.65c-0.64,3.41,1.7,5.7,5.18,5.33c2.33-0.25,4.27-1.36,5.96-2.89c1.13-1.03,2.52-2.07,3.06-3.41
		C100.76,85.16,100.88,82.96,101.28,80.86z"/>
	<path d="M136.5,122.68c-4.46,0.45-8.88-3.92-8.56-8.33c0.31-4.32,3.6-8.13,8.63-8.07c5.32,0.06,8.5,3.77,8.64,8.54
		C145.33,118.71,141.4,123.08,136.5,122.68z"/>
	<path d="M67.97,122.7c-4.37,0.26-8.95-3.41-8.52-8.52c0.39-4.66,3.5-7.82,8.46-7.89c5.18-0.07,8.32,3.39,8.66,8
		C76.93,118.96,72.73,123.03,67.97,122.7z"/>
	<path d="M124.52,46.56c-4.69,0.33-8.42-4.05-8.27-7.76c0.17-4.3,3.72-7.65,8.33-7.79c4.29-0.13,8.41,3.68,8.23,7.82
		C132.62,43.31,129.3,46.56,124.52,46.56z"/>
</g>
</svg>
