<?xml version="1.0" encoding="utf-8"?>
<!-- Generator: Adobe Illustrator 24.0.1, SVG Export Plug-In . SVG Version: 6.00 Build 0)  -->
<svg version="1.1" id="Calque_1" xmlns="http://www.w3.org/2000/svg" xmlns:xlink="http://www.w3.org/1999/xlink" x="0px" y="0px"
	 viewBox="0 0 200 200" style="enable-background:new 0 0 200 200;" xml:space="preserve">
<style type="text/css">
	.st0{fill:#FF5356;}
</style>
<path d="M199.6,100.04c0,55.16-44.73,99.96-99.81,99.96C44.57,200-0.14,155.18,0,99.74C0.14,45.18,44.18,0.15,99.86,0.15
	C154.91,0.16,199.6,44.98,199.6,100.04z M195.8,100.08c0-53.04-42.95-96.11-95.87-96.14C47.05,3.91,3.81,46.9,3.78,99.54
	c-0.03,53.55,42.82,96.71,96.02,96.7C152.79,196.23,195.8,153.14,195.8,100.08z"/>
<path class="st0" d="M92.6,33.8c0,5.76-0.02,11.51,0.02,17.27c0.01,1.03-0.26,1.38-1.34,1.5c-6.84,0.72-13.15,2.98-19.18,6.33
	c-5.05,2.8-9.24,6.53-12.93,10.81c-3.61,4.19-6.54,8.93-8.28,14.22c-2.14,6.49-3.22,13.18-2.57,20.04
	c1.03,10.95,5.77,20.12,13.44,27.91c2.79,2.83,5.89,5.22,9.31,7.19c6.24,3.58,12.95,5.75,20.14,6.29c1.12,0.08,1.43,0.49,1.42,1.58
	c-0.04,11.47-0.04,22.94,0.01,34.41c0,1.23-0.37,1.59-1.55,1.48c-1.88-0.18-3.78-0.18-5.66-0.38c-1.87-0.2-3.62-2.06-4-4.14
	c-0.16-0.89-0.23-1.8-0.26-2.7c-0.21-5.86-2.98-10.27-7.57-13.75c-3.09-2.34-6.56-3.42-10.33-3.62c-5.46-0.29-10.23,1.44-14.23,5.24
	c-1.37,1.3-2.9,2.42-4.92,2.18c-0.94-0.11-2.05-0.37-2.72-0.96c-4.45-3.98-9.07-7.79-12.84-12.47c-0.83-1.03-1.79-2.06-1.51-3.48
	c0.19-0.97,0.56-1.99,1.13-2.78c1.53-2.12,3.56-3.94,4.77-6.22c1.66-3.13,2.39-6.65,2.11-10.24c-0.48-6.19-3.74-10.79-8.79-14.1
	c-3.05-2.01-6.63-2.7-10.24-2.72c-4.51-0.03-5.55-1.75-5.88-5.68c-0.49-5.89-0.08-11.75,0.55-17.6c0.19-1.75,1.8-3.26,3.8-3.52
	c2.24-0.29,4.56-0.24,6.71-0.81c5.3-1.4,9.15-4.68,12.13-9.33C37.64,69,35,57.95,30.04,53.57c-2.13-1.88-2.58-4.21-1.34-5.92
	c1.16-1.61,2.34-3.26,3.77-4.62c3.41-3.23,6.91-6.36,10.49-9.4c2.15-1.83,4.71-1.48,6.68,0.53c6.97,7.08,18.57,7.98,26.4,1.42
	c4.35-3.64,6.49-8.31,7.1-13.82c0.14-1.23,0.15-2.54,0.58-3.67c0.77-2.05,2.55-2.79,4.64-2.87c0.9-0.03,1.83,0.08,2.71-0.09
	c1.41-0.28,1.56,0.37,1.55,1.54C92.58,22.37,92.6,28.08,92.6,33.8z"/>
<path class="st0" d="M100.42,99.04c0-24.02,0.1-48.05-0.1-72.07c-0.03-3.71,1.45-5.97,4.08-7.94c3.87-2.9,8.21-4.35,13.09-4.43
	c4.59-0.07,8.87,0.76,12.89,3.03c0.6,0.34,1.49,0.23,2.24,0.26c6.74,0.2,12.47,2.73,16.68,7.98c1.71,2.12,3.59,3.57,5.98,4.73
	c5.17,2.51,8.53,6.67,10.28,12.14c0.23,0.72,0.43,1.5,0.44,2.25c0.01,1.17,0.69,1.73,1.54,2.34c4.23,3.05,7.08,7.06,8.07,12.23
	c0.25,1.32,0.09,2.71,0.26,4.05c0.09,0.7,0.34,1.49,0.8,2.01c4.11,4.7,6.07,9.98,4.69,16.25c-0.24,1.11-0.13,2.09,0.49,3.2
	c3.42,6.02,3.43,12.12-0.1,18.12c-0.48,0.81-0.51,1.4-0.03,2.22c4.1,6.99,3.34,14.6-2.03,20.81c-0.56,0.65-0.78,1.27-0.49,2.2
	c2.24,7.04-0.83,13.72-6.37,18.25c-1.55,1.26-3.48,2.04-5.19,3.12c-0.43,0.27-0.93,0.8-0.99,1.27c-0.92,6.57-4.62,11.12-10.28,14.24
	c-1.18,0.65-2.41,1.31-3.7,1.62c-1.43,0.33-2.29,1.23-3.28,2.17c-3.26,3.05-6.77,5.72-11.44,6.18c-2.35,0.23-3.91,1.92-5.78,3.05
	c-3.62,2.19-7.51,3.45-11.75,3.69c-6.61,0.37-12.57-1.53-18.02-5.17c-1.2-0.8-1.98-1.79-1.98-3.42
	C100.44,148.63,100.42,123.84,100.42,99.04z M128.74,172.25c-1.53-1.84-2.61-3.79-2.89-6.12c-0.39-3.23-0.07-6.33,1.78-9.1
	c0.89-1.32,3.09-1.72,4.39-0.95c1.67,0.98,2.21,2.66,1.53,4.4c-0.4,1.04-0.8,2.14-0.88,3.24c-0.22,2.99,1.66,5.73,5.32,4.56
	c2.83-0.9,5.44-2.35,7.14-4.89c1.06-1.58,2.45-2.3,4.2-2.67c5.5-1.18,11.05-6.26,10.43-12.79c-0.18-1.85,0.53-2.69,2.28-3.39
	c0.63-0.25,1.29-0.43,1.92-0.67c4.66-1.78,7.9-4.79,8.73-9.95c0.62-3.86-1.75-7.04-5.6-7.25c-2.1-0.11-3.94,0.72-5.55,2.1
	c-1.46,1.25-3.73,1.09-4.92-0.25c-1.11-1.24-1.1-3.52,0.15-4.67c1.77-1.64,3.81-2.81,6.19-3.44c3.57-0.93,6.98-0.68,10.25,1.07
	c0.7,0.37,1.24,0.32,1.76-0.33c3.19-3.94,3.03-10.02-0.39-13.84c-2.07-2.32-2.06-3.8,0.05-6.11c2.94-3.22,3.59-8.21,1.67-11.86
	c-0.51-0.97-1.17-1.09-1.97-0.83c-1.37,0.44-2.78,0.86-4.01,1.57c-3.06,1.74-5.42,5.38-4.6,9.47c0.25,1.27,0.64,2.52,1.01,3.77
	c0.57,1.92-0.12,3.77-1.67,4.37c-1.96,0.76-3.75,0.13-4.65-1.73c-0.56-1.17-1.19-2.38-1.43-3.64c-1.29-6.78,0.33-12.57,6.29-17.13
	c2.23-1.7,4.77-2.73,7.52-3.26c1.02-0.2,1.66-0.62,1.86-1.77c0.74-4.24-0.73-7.75-3.81-10.44c-1.84-1.61-2.48-3.31-2.13-5.58
	c0.72-4.67-1.42-8.11-4.81-10.97c-0.6-0.51-1.35-1.06-2.09-1.17c-2.25-0.32-4.41,0.04-6.33,1.4c-2.15,1.51-2.64,3.09-1.55,5.45
	c0.3,0.64,0.77,1.21,1.22,1.77c1.49,1.84,1.5,3.8,0.01,5.07c-1.7,1.44-3.9,1.23-5.36-0.67c-0.98-1.28-1.95-2.64-2.57-4.11
	c-1.24-2.96-1.26-5.95,0.39-8.86c1.95-3.44,4.98-5.36,8.66-6.44c0.83-0.24,1.64-0.52,2.46-0.78c-0.31-0.88-0.61-1.77-0.94-2.65
	c-0.11-0.29-0.27-0.57-0.44-0.83c-2.09-3.14-5-5.12-8.62-6.12c-1.35-0.38-2.42-1.06-3.06-2.44c-0.9-1.95-2.2-3.65-3.99-4.87
	c-1.36-0.93-2.85-1.68-4.57-2.68c0.25,1.72,0.56,2.91,0.58,4.1c0.19,8.79-7,15.47-15.75,14.69c-1.2-0.11-2.62-1.29-2.98-2.47
	c-0.35-1.17,0.1-2.87,1.23-3.45c0.9-0.47,2.03-0.62,3.07-0.7c2.98-0.22,5.29-1.51,6.64-4.19c1.18-2.34,1.13-4.73-0.38-6.95
	c-1.87-2.74-4.68-4.03-7.81-4.67c-4.86-0.99-9.34-0.09-13.29,2.99c-0.52,0.4-1.08,1.15-1.08,1.74c-0.03,3.44-0.02,6.88,0.2,10.31
	c0.22,3.49,2.07,6.26,4.35,8.81c2.39,2.67,5.18,4.06,8.86,3.69c1.77-0.18,3.04,1.22,3.1,2.88c0.07,1.83-1.2,3.48-2.86,3.7
	c-4.61,0.6-8.68-0.59-12.19-3.67c-0.37-0.33-0.8-0.59-1.41-1.04c0,24.31,0,48.29,0,72.26c0.23,0.03,0.34,0.08,0.4,0.04
	c0.31-0.18,0.62-0.37,0.91-0.57c3.31-2.31,6.84-4.06,10.96-4.24c1.97-0.08,3.26,1.02,3.38,2.73c0.16,2.17-0.86,3.55-2.86,3.87
	c-3.35,0.55-6.31,1.96-8.72,4.32c-2.12,2.07-4.1,4.46-4.13,7.55c-0.13,11.24-0.04,22.49-0.05,33.73c0,0.81,0.27,1.27,1.02,1.71
	c4.1,2.4,8.53,3.23,13.17,2.65C124.08,174.78,126.57,173.91,128.74,172.25z"/>
</svg>
