<?xml version="1.0" encoding="utf-8"?>
<!-- Generator: Adobe Illustrator 24.0.1, SVG Export Plug-In . SVG Version: 6.00 Build 0)  -->
<svg version="1.1" id="Calque_1" xmlns="http://www.w3.org/2000/svg" xmlns:xlink="http://www.w3.org/1999/xlink" x="0px" y="0px"
	 viewBox="0 0 200 200" style="enable-background:new 0 0 200 200;" xml:space="preserve">
<style type="text/css">
	.st0{fill:none;}
	.st1{fill:#FE8D25;}
</style>
<g>
	<rect x="0.8" y="0.4" class="st0" width="198.22" height="199.19"/>
</g>
<path d="M113.17,171.37c-4.74,0.1-9.34,0.5-13.9,0.21c-6.46-0.42-12.6-2.4-16.44-8.62c-1.77-2.87-2.9-6.41-3.63-9.83
	c-2.36-11.12-4.39-22.33-6.62-33.49c-0.15-0.77-0.88-1.57-1.54-2.01c-4.08-2.7-8.22-5.28-12.31-7.95c-0.58-0.38-1.04-1.01-1.48-1.6
	c-2.1-2.8-1.64-5.76,1.32-7.36c2.07-1.12,4.29-1.94,6.49-2.75c8.72-3.21,11.3-11.87,9.64-20.25c-1.26-6.35-2.35-12.67-2.09-19.22
	c0.45-11.16,4.04-21.01,10.26-29.72c9.77-13.7,22.89-21.81,37.8-26.82c1.68-0.56,3.39-1.02,5.21-1.56c0.32,1.39,0.6,2.62,0.91,3.95
	c-3.35,1.17-6.73,2.19-10.01,3.51c-11.19,4.49-21.13,11.09-29.02,21.05C79.61,39.2,75.69,51.1,76.48,64.77
	c0.03,0.48,0.1,0.96,0.18,1.44c0.07,0.4,0.17,0.79,0.31,1.45c3.03-4.05,6.75-6.26,11.53-5.96c3.31,0.21,6.15,1.6,8.42,4.16
	c3.98,4.5,6.15,12.66-0.38,20.61c1.16,2,2.34,4.02,3.51,6.06c1.13,1.98,2.24,3.97,3.41,6.06c-1.18,0.82-2.28,1.57-3.49,2.41
	c-2.33-4.04-4.6-7.99-6.96-12.09c-5.15,2.25-9.87,1.34-14.36-2.73c-1.55,12.03-10.07,15.3-18.8,18.32
	c-0.03,0.24-0.05,0.47-0.08,0.71c1.78,1.42,3.47,3.02,5.38,4.21c3.01,1.87,6.14,3.5,9.27,5.14c1,0.52,1.46,1.13,1.7,2.4
	c2.36,12.42,4.72,24.84,7.29,37.21c1.7,8.22,5.99,11.38,13.53,12.85c6.35,1.24,12.68,0.32,18.97-0.88c0.18-0.03,0.36-0.03,0.53-0.04
	c3.13,7.74-1.78,27.16-8.55,33.49c-0.85-0.86-1.72-1.74-2.68-2.7C111.19,189.46,113.52,180.78,113.17,171.37z M96.52,75.79
	c-0.02-5.24-4.03-9.65-8.79-9.67c-4.79-0.02-8.98,4.6-8.91,9.82c0.07,5.27,4.06,9.6,8.86,9.6C92.59,85.55,96.54,81.2,96.52,75.79z"
	/>
<path d="M0,61.84c17.44,0,34.71,0,52.09,0c0,13.74,0,27.29,0,41.07c-3.89,0-7.83,0-11.87,0c-0.54,3.68,0.41,6.86,1.64,9.95
	c2.33,5.86,6.37,10.22,10.72,14.28c0.34,0.31,0.68,0.61,1.03,0.91c1.01,0.91,1.36,2.1,0.64,3.29c-0.83,1.39-2.14,1.11-3.2,0.39
	c-3.14-2.15-6.27-4.34-9.31-6.67c-9.22-7.08-18.39-14.25-27.62-21.33c-0.61-0.47-1.51-0.66-2.27-0.67
	c-3.91-0.07-7.81-0.03-11.84-0.03C0,89.25,0,75.57,0,61.84z M3.83,98.85c3.27,0,6.3-0.07,9.32,0.04c0.88,0.03,1.87,0.35,2.58,0.9
	c4.4,3.34,8.73,6.79,13.09,10.18c3.61,2.8,7.24,5.58,10.86,8.37c-2.16-4.71-3.56-9.48-3.53-14.72c0.03-4.76-0.02-4.76,4.27-4.76
	c2.62,0,5.24,0,7.82,0c0-11.13,0-21.91,0-32.71c-14.87,0-29.61,0-44.43,0C3.83,77.05,3.83,87.83,3.83,98.85z"/>
<path d="M161.35,198.99c-1.43,0.22-2.7,0.41-3.96,0.61c-3.56-22.56,2.8-45.74,17.65-57.79c0.82,1.1,1.66,2.22,2.54,3.4
	c-7.22,6.38-12.14,14.44-14.71,24.19C160.32,179.04,159.97,188.84,161.35,198.99z"/>
<path d="M9.04,92.46c0-1.54,0-2.84,0-4.27c10.47,0,20.91,0,31.38,0c0.06,0.17,0.18,0.35,0.2,0.54c0.24,3.73,0.24,3.73-3.18,3.73
	c-8.7,0-17.41,0-26.11,0C10.6,92.46,9.86,92.46,9.04,92.46z"/>
<path d="M11.62,76.3c0-1.32,0-2.55,0-3.91c9.6,0,19.16,0,28.88,0c0,1.23,0,2.49,0,3.91C30.95,76.3,21.4,76.3,11.62,76.3z"/>
<path d="M35.8,80.27c0,1.43,0,2.65,0,4.01c-7.28,0-14.49,0-21.8,0c0-1.34,0-2.61,0-4.01C21.25,80.27,28.46,80.27,35.8,80.27z"/>
<path class="st1" d="M121.18,35.89c0.09-1.33,0.15-2.66,0.28-3.98c0.07-0.78,0.58-1.24,1.3-1.25c0.94-0.03,1.86-0.14,2.73-0.55
	c2.36-1.09,3.81-3.53,3.68-6.33c-0.08-1.73-0.73-3.2-1.87-4.41c-0.65-0.69-0.72-1.49-0.17-2.26c1.22-1.69,2.63-3.18,4.17-4.53
	c0.57-0.5,1.29-0.43,1.86,0.09c0.53,0.48,1.03,1.04,1.62,1.39c2.54,1.49,5.55,0.9,7.37-1.61c0.93-1.28,1.39-2.72,1.39-4.36
	c0-0.97,0.55-1.56,1.52-1.65c1.88-0.18,3.75-0.17,5.62,0.04c0.93,0.1,1.41,0.72,1.39,1.88c-0.03,1.4,0.34,2.66,1.02,3.82
	c1.47,2.52,4.74,3.55,7.22,2.3c0.76-0.38,1.44-0.87,2.01-1.54c0.65-0.75,1.66-0.82,2.39,0.09c0.47,0.58,1.07,1.04,1.57,1.6
	c0.73,0.83,1.45,1.68,2.12,2.57c0.56,0.75,0.49,1.72-0.14,2.42c-1.29,1.43-1.92,3.14-1.8,5.15c0.11,1.93,0.9,3.48,2.27,4.68
	c1.12,0.98,2.43,1.38,3.85,1.39c0.88,0.01,1.42,0.57,1.49,1.62c0.15,2.03,0.2,4.06-0.04,6.09c-0.13,1.09-0.65,1.59-1.66,1.57
	c-2.52-0.04-4.9,1.67-5.74,4.25c-0.74,2.27-0.39,4.41,0.97,6.33c0.19,0.27,0.42,0.5,0.63,0.75c0.58,0.72,0.65,1.51,0.06,2.2
	c-1.09,1.3-2.22,2.54-3.36,3.78c-0.33,0.36-0.73,0.67-1.14,0.91c-0.61,0.35-1.18,0.12-1.62-0.39c-1.37-1.6-3.06-2.21-5.02-2.04
	c-2.09,0.19-4.16,2.04-4.83,4.21c-0.26,0.85-0.41,1.71-0.41,2.61c0,0.84-0.59,1.47-1.39,1.55c-1.87,0.19-3.75,0.21-5.62,0
	c-1.05-0.12-1.53-0.67-1.51-1.82c0.03-2.11-0.67-3.89-2.12-5.22c-1.74-1.58-3.74-1.89-5.86-1.01c-0.86,0.35-1.62,0.89-2.27,1.6
	c-0.56,0.6-1.28,0.87-2.16,0.08c-1.5-1.35-2.85-2.86-4.05-4.53c-0.41-0.58-0.32-1.46,0.21-2.17c0.14-0.18,0.29-0.35,0.43-0.53
	c1.98-2.39,1.99-6.28-0.25-8.81c-1.15-1.3-2.58-1.93-4.22-1.95c-1.11-0.01-1.65-0.53-1.72-1.74c-0.04-0.75-0.09-1.51-0.14-2.26
	C121.22,35.89,121.2,35.89,121.18,35.89z M147.6,51.56c7.45,0.08,14.38-6.15,14.85-15.3c0.46-8.82-5.57-16.4-13.66-17.05
	c-8.06-0.65-15.65,6.16-15.81,15.97C132.85,43.36,138.77,51.41,147.6,51.56z"/>
<path class="st1" d="M107.51,81.68c-0.08-0.98-0.18-1.97-0.24-2.95c-0.03-0.58,0.29-0.98,0.81-1.09c0.69-0.14,1.34-0.35,1.94-0.77
	c1.61-1.11,2.4-3.1,1.99-5.13c-0.25-1.26-0.89-2.25-1.86-2.98c-0.55-0.42-0.69-0.99-0.37-1.63c0.71-1.4,1.58-2.68,2.55-3.87
	c0.36-0.44,0.9-0.49,1.37-0.18c0.44,0.28,0.87,0.63,1.34,0.8c2.02,0.76,4.16-0.08,5.22-2.16c0.54-1.06,0.72-2.18,0.54-3.38
	c-0.11-0.71,0.23-1.22,0.93-1.41c1.35-0.38,2.73-0.63,4.12-0.72c0.69-0.05,1.11,0.34,1.22,1.19c0.13,1.03,0.54,1.9,1.17,2.66
	c1.36,1.65,3.86,1.97,5.54,0.72c0.51-0.38,0.96-0.83,1.3-1.4c0.39-0.64,1.12-0.82,1.76-0.25c0.41,0.36,0.9,0.62,1.33,0.97
	c0.63,0.51,1.25,1.03,1.84,1.6c0.5,0.47,0.55,1.2,0.17,1.79c-0.78,1.22-1.06,2.56-0.75,4.01c0.3,1.4,1.05,2.43,2.18,3.13
	c0.93,0.57,1.93,0.68,2.97,0.5c0.65-0.11,1.1,0.23,1.27,0.99c0.34,1.47,0.59,2.95,0.64,4.46c0.03,0.81-0.3,1.25-1.04,1.37
	c-1.85,0.31-3.4,1.87-3.73,3.88c-0.29,1.76,0.21,3.28,1.41,4.51c0.17,0.17,0.37,0.31,0.54,0.47c0.5,0.45,0.64,1.02,0.29,1.61
	c-0.65,1.09-1.35,2.16-2.04,3.22c-0.2,0.31-0.46,0.59-0.73,0.82c-0.41,0.34-0.85,0.25-1.23-0.07c-1.18-0.99-2.49-1.21-3.9-0.82
	c-1.51,0.42-2.82,2.05-3.07,3.72c-0.1,0.66-0.11,1.31-0.01,1.96c0.1,0.62-0.27,1.16-0.85,1.32c-1.35,0.39-2.72,0.65-4.12,0.75
	c-0.78,0.05-1.2-0.28-1.31-1.13c-0.21-1.55-0.92-2.76-2.13-3.54c-1.45-0.93-2.95-0.89-4.41,0.04c-0.59,0.37-1.09,0.87-1.49,1.47
	c-0.34,0.52-0.84,0.81-1.57,0.35c-1.25-0.79-2.4-1.71-3.47-2.78c-0.37-0.37-0.4-1.03-0.09-1.62c0.08-0.15,0.17-0.3,0.26-0.45
	c1.18-2.02,0.76-4.86-1.16-6.42c-0.99-0.8-2.1-1.07-3.31-0.86c-0.82,0.14-1.27-0.17-1.45-1.05c-0.11-0.55-0.23-1.09-0.35-1.64
	C107.54,81.68,107.52,81.68,107.51,81.68z M128.6,89.63c5.47-0.93,9.85-6.42,9.18-13.19c-0.64-6.52-5.9-11.27-11.9-10.67
	c-5.98,0.6-10.78,6.6-9.81,13.81C116.88,85.6,122.11,90.7,128.6,89.63z"/>
<path class="st1" d="M167.04,62.28c-0.03-0.83-0.08-1.66-0.08-2.49c0-0.49,0.28-0.81,0.73-0.88c0.58-0.09,1.14-0.23,1.66-0.55
	c1.39-0.86,2.13-2.49,1.87-4.21c-0.16-1.07-0.66-1.93-1.44-2.59c-0.45-0.38-0.54-0.87-0.25-1.39c0.65-1.14,1.43-2.18,2.29-3.13
	c0.32-0.35,0.77-0.37,1.16-0.09c0.36,0.26,0.7,0.57,1.1,0.74c1.67,0.73,3.5,0.13,4.47-1.57c0.49-0.87,0.69-1.8,0.58-2.81
	c-0.06-0.6,0.24-1.01,0.84-1.14c1.15-0.26,2.31-0.4,3.49-0.41c0.58-0.01,0.92,0.34,0.98,1.06c0.07,0.87,0.38,1.62,0.88,2.29
	c1.07,1.45,3.17,1.83,4.62,0.86c0.45-0.3,0.84-0.65,1.15-1.11c0.35-0.52,0.97-0.64,1.49-0.13c0.33,0.33,0.73,0.56,1.08,0.87
	c0.51,0.46,1.01,0.93,1.48,1.43c0.4,0.42,0.41,1.03,0.07,1.51c-0.7,0.99-0.99,2.1-0.78,3.34c0.19,1.19,0.79,2.09,1.71,2.73
	c0.76,0.52,1.59,0.66,2.48,0.56c0.55-0.06,0.91,0.24,1.03,0.89c0.23,1.25,0.38,2.5,0.37,3.78c-0.01,0.68-0.3,1.03-0.93,1.1
	c-1.56,0.17-2.93,1.42-3.29,3.08c-0.31,1.47,0.05,2.76,1.01,3.85c0.13,0.15,0.3,0.27,0.44,0.42c0.4,0.4,0.5,0.88,0.18,1.36
	c-0.59,0.89-1.21,1.75-1.84,2.6c-0.18,0.25-0.41,0.47-0.65,0.65c-0.35,0.26-0.72,0.17-1.03-0.12c-0.95-0.89-2.04-1.13-3.24-0.87
	c-1.28,0.28-2.45,1.59-2.72,2.98c-0.11,0.55-0.15,1.09-0.09,1.65c0.06,0.52-0.27,0.96-0.76,1.07c-1.15,0.26-2.31,0.42-3.49,0.44
	c-0.66,0.01-0.99-0.29-1.06-1.01c-0.12-1.31-0.67-2.36-1.66-3.07c-1.18-0.85-2.44-0.88-3.7-0.17c-0.51,0.29-0.95,0.68-1.31,1.17
	c-0.31,0.42-0.74,0.64-1.33,0.22c-1.02-0.72-1.95-1.55-2.8-2.49c-0.29-0.32-0.29-0.88-0.01-1.36c0.07-0.12,0.16-0.24,0.23-0.36
	c1.07-1.64,0.83-4.05-0.73-5.44c-0.8-0.71-1.73-0.99-2.74-0.88c-0.69,0.08-1.06-0.2-1.18-0.95c-0.07-0.46-0.15-0.93-0.23-1.39
	C167.07,62.28,167.06,62.28,167.04,62.28z M184.44,69.94c4.63-0.53,8.52-4.93,8.22-10.65c-0.28-5.51-4.51-9.74-9.58-9.51
	c-5.04,0.22-9.3,5.04-8.77,11.13C174.76,66,178.95,70.54,184.44,69.94z"/>
<path class="st1" d="M148.02,70.2c0.3-0.54,0.6-1.08,0.92-1.6c0.19-0.31,0.49-0.38,0.8-0.21c0.4,0.22,0.81,0.39,1.26,0.43
	c1.21,0.11,2.31-0.56,2.81-1.77c0.31-0.75,0.33-1.52,0.1-2.3c-0.13-0.44-0.01-0.8,0.38-0.99c0.85-0.41,1.74-0.7,2.66-0.89
	c0.34-0.07,0.63,0.13,0.76,0.49c0.12,0.33,0.22,0.68,0.4,0.97c0.76,1.24,2.15,1.72,3.41,1.1c0.65-0.31,1.13-0.81,1.46-1.49
	c0.2-0.41,0.54-0.52,0.97-0.33c0.82,0.38,1.61,0.83,2.35,1.37c0.37,0.27,0.45,0.64,0.21,1.12c-0.29,0.58-0.39,1.2-0.34,1.85
	c0.11,1.41,1.28,2.63,2.57,2.7c0.4,0.02,0.78-0.02,1.15-0.16c0.42-0.16,0.86,0.06,0.99,0.62c0.08,0.36,0.24,0.7,0.34,1.05
	c0.14,0.52,0.27,1.05,0.38,1.59c0.09,0.45-0.14,0.84-0.54,0.98c-0.83,0.29-1.44,0.85-1.79,1.73c-0.34,0.84-0.32,1.68,0.02,2.51
	c0.27,0.68,0.74,1.16,1.34,1.51c0.37,0.22,0.48,0.58,0.3,1.04c-0.34,0.89-0.73,1.75-1.24,2.54c-0.27,0.43-0.59,0.51-1.01,0.26
	c-1.05-0.62-2.39-0.48-3.26,0.4c-0.77,0.77-1.05,1.76-0.86,2.89c0.03,0.16,0.08,0.31,0.11,0.47c0.1,0.44-0.03,0.79-0.42,0.94
	c-0.72,0.28-1.44,0.53-2.17,0.77c-0.21,0.07-0.44,0.11-0.66,0.11c-0.32,0-0.52-0.23-0.6-0.55c-0.25-1-0.84-1.67-1.7-2.06
	c-0.91-0.43-2.15-0.15-2.87,0.6c-0.28,0.29-0.52,0.62-0.7,0.99c-0.17,0.36-0.54,0.47-0.9,0.31c-0.82-0.37-1.61-0.82-2.36-1.36
	c-0.42-0.3-0.51-0.65-0.27-1.13c0.44-0.88,0.5-1.79,0.16-2.7c-0.41-1.08-1.19-1.69-2.26-1.84c-0.43-0.06-0.86-0.02-1.27,0.12
	c-0.36,0.12-0.71,0.06-0.92-0.49c-0.36-0.93-0.62-1.89-0.79-2.88c-0.06-0.34,0.16-0.69,0.52-0.86c0.09-0.04,0.19-0.08,0.29-0.12
	c1.31-0.53,2.09-2.15,1.66-3.76c-0.22-0.82-0.7-1.43-1.38-1.83c-0.46-0.27-0.59-0.62-0.37-1.15c0.13-0.33,0.26-0.66,0.4-0.98
	C148.03,70.21,148.03,70.21,148.02,70.2z M155.96,83.15c3.11,1.83,7.26,0.89,9.3-2.84c1.96-3.59,0.95-8.22-2.31-10.45
	c-3.25-2.22-7.8-1.19-9.83,2.89C151.41,76.15,152.29,80.96,155.96,83.15z"/>
<path class="st1" d="M96.6,39.78c0.36-0.6,0.71-1.2,1.09-1.79c0.22-0.34,0.57-0.41,0.91-0.21c0.45,0.26,0.91,0.47,1.42,0.54
	c1.37,0.18,2.64-0.55,3.26-1.91c0.38-0.84,0.43-1.72,0.19-2.62c-0.14-0.51,0.02-0.91,0.47-1.11c0.98-0.44,2.01-0.73,3.05-0.91
	c0.39-0.07,0.71,0.17,0.85,0.58c0.13,0.38,0.23,0.79,0.43,1.13c0.83,1.44,2.39,2.04,3.85,1.39c0.75-0.33,1.31-0.88,1.71-1.64
	c0.24-0.46,0.64-0.57,1.11-0.33c0.92,0.46,1.8,1.01,2.63,1.65c0.41,0.32,0.49,0.75,0.2,1.28c-0.35,0.65-0.48,1.35-0.45,2.09
	c0.08,1.61,1.37,3.04,2.84,3.18c0.45,0.04,0.89,0.01,1.32-0.14c0.49-0.17,0.98,0.1,1.1,0.74c0.08,0.41,0.25,0.8,0.35,1.21
	c0.14,0.6,0.28,1.21,0.38,1.82c0.08,0.52-0.19,0.95-0.65,1.1c-0.95,0.3-1.66,0.92-2.09,1.9c-0.41,0.94-0.42,1.9-0.06,2.86
	c0.29,0.79,0.81,1.35,1.47,1.77c0.41,0.26,0.53,0.68,0.31,1.2c-0.42,1-0.89,1.96-1.49,2.85c-0.32,0.47-0.69,0.56-1.16,0.26
	c-1.17-0.75-2.7-0.64-3.73,0.33c-0.9,0.85-1.25,1.96-1.07,3.25c0.02,0.18,0.08,0.36,0.11,0.54c0.1,0.51-0.06,0.9-0.5,1.05
	c-0.82,0.29-1.66,0.55-2.49,0.8c-0.24,0.07-0.5,0.1-0.75,0.09c-0.37-0.01-0.58-0.28-0.67-0.65c-0.26-1.15-0.91-1.93-1.87-2.42
	c-1.03-0.52-2.45-0.25-3.29,0.57c-0.33,0.32-0.61,0.68-0.82,1.11c-0.2,0.4-0.63,0.52-1.03,0.32c-0.93-0.46-1.81-0.99-2.64-1.64
	c-0.46-0.36-0.56-0.76-0.27-1.3c0.52-0.98,0.63-2.02,0.26-3.07c-0.43-1.25-1.3-1.97-2.51-2.18c-0.49-0.08-0.97-0.05-1.45,0.09
	c-0.41,0.12-0.81,0.04-1.03-0.59c-0.38-1.07-0.65-2.17-0.81-3.31c-0.06-0.39,0.2-0.78,0.62-0.96c0.11-0.05,0.22-0.08,0.33-0.12
	c1.51-0.55,2.45-2.37,2.01-4.22c-0.23-0.94-0.75-1.66-1.51-2.14c-0.52-0.33-0.65-0.73-0.39-1.32c0.16-0.37,0.32-0.74,0.48-1.1
	C96.62,39.79,96.61,39.79,96.6,39.78z M105.24,54.83c3.48,2.21,8.24,1.29,10.68-2.87c2.35-4.01,1.34-9.33-2.3-11.99
	c-3.63-2.65-8.84-1.65-11.29,2.91C100.28,46.69,101.12,52.19,105.24,54.83z"/>
</svg>
