<?xml version="1.0" encoding="utf-8"?>
<!-- Generator: Adobe Illustrator 25.2.1, SVG Export Plug-In . SVG Version: 6.00 Build 0)  -->
<svg version="1.1" id="Calque_1" xmlns="http://www.w3.org/2000/svg" xmlns:xlink="http://www.w3.org/1999/xlink" x="0px" y="0px"
	 viewBox="0 0 200 200" style="enable-background:new 0 0 200 200;" xml:space="preserve">
<style type="text/css">
	.st0{fill:none;}
	.st1{fill:#575756;stroke:#000000;stroke-width:4;stroke-linecap:round;stroke-linejoin:round;stroke-miterlimit:10;}
	.st2{fill:#FE8D25;stroke:#000000;stroke-width:4;stroke-linecap:round;stroke-linejoin:round;stroke-miterlimit:10;}
</style>
<rect class="st0" width="200" height="200"/>
<path class="st1" d="M181.4,65.2c0-1.4-0.6-1.8-1.8-2c-3.9-0.6-7.7-1.3-11.5-1.9c-2.5-0.4-3.9-1.7-4.8-4.2
	c-1.5-4.2-3.2-8.3-5.1-12.3c-1-2.2-1.1-4.1,0.4-6.1c2.3-3.1,4.5-6.4,6.8-9.5c0.9-1.2,1-2-0.2-3.1c-2.8-2.6-5.4-5.3-8-8
	c-1-1.1-1.7-1-2.8-0.2c-3.3,2.4-6.6,4.7-9.8,7.1c-1.5,1.3-3.7,1.4-5.4,0.4c-4.3-2.4-8.8-4.3-13.6-5.5c-1.9-0.4-3.3-2-3.5-4
	c-0.7-4.1-1.4-8.2-2-12.2c-0.2-1.2-0.6-1.6-1.9-1.6c-1.7,0-3.3,0-5,0.1v35.4c18.5,0.4,33.1,15.8,32.7,34.3
	c-0.4,17.9-14.8,32.3-32.7,32.7V140c1.6,0,3.3,0,4.8,0.1s2-0.5,2.3-1.9c0.6-3.9,1.3-7.7,1.9-11.5c0.4-2.6,1.8-3.9,4.2-4.7
	c4.1-1.5,8.2-3.2,12.1-5c2.3-1.1,4.2-1.1,6.2,0.4c3.1,2.3,6.3,4.5,9.5,6.8c0.4,0.3,1,0.6,1.5,1c0.4-0.3,0.7-0.5,1.1-0.8
	c2.9-2.8,5.7-5.7,8.6-8.6c0.7-0.5,0.9-1.5,0.4-2.3c-0.1-0.1-0.1-0.2-0.2-0.2c-2.4-3.3-4.7-6.6-7.1-9.9c-1.4-1.7-1.6-4.1-0.4-5.9
	c2.3-3.9,4.1-8.1,5.2-12.5c0.5-2.2,2.4-3.8,4.6-4c3.9-0.6,7.7-1.3,11.7-1.9c1.3-0.2,1.8-0.7,1.8-2.1C181.3,73,181.4,69.1,181.4,65.2
	z"/>
<path class="st1" d="M137.2,71.1c-0.1-13.4-10.7-24.3-24-24.8v49.5C126.5,95.4,137.1,84.5,137.2,71.1z"/>
<path class="st2" d="M105.9,5.2c0-1.7-1.4-3-3.1-3c-8,0.3-15.9,1.6-23.6,3.9C66,9.8,54.9,16.6,47.1,28.2c-7,10.5-9.5,22.4-9.8,34.8
	c0,6.1,0.7,12.2,2,18.2c0.7,3.4,0.4,6.7-2,9.6c-2.8,3.4-5.5,7-8.2,10.5c-2.5,3.2-5.1,6.3-7.6,9.5c-2.1,2.7-1.5,4.8,1.6,6
	c1.9,0.8,3.8,1.6,5.7,2.4c5,2.4,5.3,3.4,2.5,8.2c-1.5,2.6-1.4,5.2,0.9,7.2c1.5,1.2,3.1,2.1,4.9,2.8c1.8,0.8,3.8,1.2,5.6,2.1
	c3.3,1.7,3.6,5.4,0.8,7.9c-1,0.9-2.1,1.5-3.1,2.3c-2,1.4-2.7,4-1.8,6.2c0.8,2,2.7,2.6,4.5,3.4c3.2,1.3,3.8,2.4,3.7,5.7
	c-0.2,9.1,4.2,13.9,13.4,14.3c5.4,0.1,10.8-0.6,16.1-2.1c1.7-0.6,3.6,0.1,4.5,1.6c3.5,5.3,7.2,10.6,9.1,16.8
	c0.4,1.3,1.5,2.1,2.8,2.1h77.4c2.3,0,3.7-2.4,2.6-4.4c-2.5-4.4-4.9-8.8-7.1-13.3c-4.8-9.6-7.8-20-8.8-30.7c-0.1-1.5-1.4-2.7-2.9-2.7
	h-44.8c-1.6,0-3-1.3-3-3V5.2z"/>
</svg>
