<?xml version="1.0" encoding="utf-8"?>
<!-- Generator: Adobe Illustrator 25.2.1, SVG Export Plug-In . SVG Version: 6.00 Build 0)  -->
<svg version="1.1" id="Calque_1" xmlns="http://www.w3.org/2000/svg" xmlns:xlink="http://www.w3.org/1999/xlink" x="0px" y="0px"
	 viewBox="0 0 200 200" style="enable-background:new 0 0 200 200;" xml:space="preserve">
<style type="text/css">
	.st0{fill:#FF5356;stroke:#000000;stroke-width:4;stroke-linecap:round;stroke-linejoin:round;stroke-miterlimit:10;}
	.st1{fill:none;}
	.st2{fill:#575756;stroke:#000000;stroke-width:4;stroke-linecap:round;stroke-linejoin:round;stroke-miterlimit:10;}
	.st3{fill:none;stroke:#000000;stroke-width:4;stroke-linecap:round;stroke-linejoin:round;}
</style>
<path class="st0" d="M193.4,88.7c2.6-5.9,0.5-14.4-8.6-16.6c0.7-9.5-7.7-15.6-11.7-14.7c-8.1-21.6-34-33.9-54.9-29.9
	c-8.4-6.5-41.5-5.7-47.6-2.2c-2.5,1.4-4.5,3.6-4.5,6.5v117.7c0,1.8,0.7,3.5,2.1,4.6c3.7,3.1,19.2,1.6,25.2-9.2
	c-4.5,7.4-5.9,12.5,1,19.7c3.1,16.9,25.2,20.2,36.8,10.8c20.7,7.3,35.4-5,35.1-17.3c17.1,2.7,33.9-13.7,29.8-26.7
	C201.8,108,193.4,88.7,193.4,88.7z"/>
<rect x="1" y="1" class="st1" width="197.9" height="197.9"/>
<path class="st2" d="M59.4,117.3c-16,0-28.3-12.9-28.3-29.1c0-15.2,12.5-27.5,28.4-27.5v-29c-2.4,0-4.7,0-7.1,0
	c-1.9,0-2.7,0.9-2.7,2.7v9c0,1.8-0.6,2.5-2.2,3.2c-2.8,1.2-5.7,2.4-8.4,3.7c-1.5,0.7-2.4,0.6-3.6-0.5c-2.3-2.3-4.6-4.7-6.9-7.1
	c-0.8-1.1-2.4-1.3-3.5-0.4c-0.2,0.1-0.3,0.3-0.4,0.4L14,53.2c-1,0.9-1.1,2.5-0.2,3.5c0.1,0.1,0.2,0.2,0.3,0.3c2.3,2.2,4.7,4.4,7,6.6
	c0.9,0.8,1.2,2.1,0.6,3.1c-1.5,3.4-3,6.8-4.5,10.2C16.4,78.6,15.9,79,14,79H5c-1.5,0.1-2.8,1.3-2.8,2.8c0,5.6,0,11.1,0,16.7
	c0.1,1.7,1.4,3,3.1,3h9c1.8,0,2.4,0.5,3,2.1c1.1,2.7,2.3,5.4,3.5,8.1c0.7,1.5,0.6,2.5-0.6,3.7l-6,5.7c-1.1,0.8-1.2,2.4-0.4,3.4
	c0.1,0.1,0.2,0.2,0.3,0.3c3.5,3.5,7.1,7.1,10.6,10.6c0.9,1,2.5,1.2,3.5,0.3c0.1-0.1,0.2-0.2,0.3-0.3l5.1-5.5
	c1.3-1.4,2.2-1.5,3.9-0.7c3.3,1.6,6.6,3.1,10,4.5c1.3,0.4,2.1,1.6,2,2.9c0,3.1,0,6.2,0,9.4c0,1.5,1.2,2.7,2.7,2.8h7.1l-0.1-0.1
	L59.4,117.3z"/>
<path class="st2" d="M58.6,69c-11,0.5-19.6,9.8-19.1,20.8c0.5,10.7,9.2,19.1,19.9,19.1V69L58.6,69z"/>
<path class="st3" d="M142.3,94.5c6-5.9,6.2-15.3,0.6-21s-15-5.4-21,0.5"/>
<path class="st3" d="M121.9,96.4c-3.4-2.9-11-3.9-19.2-2.1c-10.5,2.3-18.1,8.3-16.9,13.4"/>
<path class="st3" d="M85,107.5c-4.8-3.1-9.6-4.5-12.8-3.7"/>
<path class="st3" d="M170.8,74.9c-3.9-6.2-11.6-8.6-18.4-5.9"/>
<path class="st3" d="M152.3,68.6c-1.7-6.2-6-11.4-11.8-14.2"/>
<path class="st3" d="M150.2,47.7c-2.2-2.3-6.3-4.1-11.1-4.9c-3.7-0.7-7.5-0.4-11,0.8"/>
<path class="st3" d="M167.1,133.7c1.2-2.9,1.4-7.4,0.3-12.1c-0.8-3.7-2.5-7.1-5-9.9"/>
<path class="st3" d="M163,111.7c2.1-0.3,4-1.3,5.5-2.8c1.4-1.3,2.5-2.9,3-4.7"/>
<path class="st3" d="M116.3,54.1c-2.4,2-4.6,5.9-5.7,10.7c-1,3.6-1,7.4,0,11"/>
<path class="st3" d="M94.9,65c-3.1-0.5-7.5,0.5-11.8,2.8c-3.3,1.7-6.2,4.2-8.3,7.3"/>
<path class="st3" d="M124.3,117.3c4.8,0.2,11.4-2,17.6-6.4c5.5-3.8,9.5-8.5,11.4-12.7"/>
<path class="st3" d="M123.6,117.2c-6.2-1.8-12.6-2.6-19-2.2c-8.5,0.3-15.9,2.1-20.9,4.7"/>
<path class="st3" d="M107.5,132.2c2.6,2.1,7.2,3.6,12.5,3.8c4,0.3,8.1-0.5,11.7-2.3"/>
<path class="st3" d="M131.8,133.7c2.3,1.9,6.3,3.2,10.9,3.3c3.5,0.2,7-0.5,10.2-2"/>
<path class="st3" d="M83.1,139c3.3,1.2,8.3,1.1,13.5-0.6c4-1.1,7.6-3.3,10.6-6.3"/>
<path class="st3" d="M189.1,125.2c1.9-4.4,0.4-9.5-3.5-12.2"/>
<path class="st3" d="M106.1,43.9c-9.5,1.8-16.6,10.5-16.5,21"/>
</svg>
