<?xml version="1.0" encoding="utf-8"?>
<!-- Generator: Adobe Illustrator 25.2.1, SVG Export Plug-In . SVG Version: 6.00 Build 0)  -->
<svg version="1.1" id="Calque_1" xmlns="http://www.w3.org/2000/svg" xmlns:xlink="http://www.w3.org/1999/xlink" x="0px" y="0px"
	 viewBox="0 0 200 200" style="enable-background:new 0 0 200 200;" xml:space="preserve">
<style type="text/css">
	.st0{fill:none;}
	.st1{fill:#5762C4;stroke:#000000;stroke-width:4;stroke-linecap:round;stroke-linejoin:round;stroke-miterlimit:10;}
	.st2{fill:#575756;stroke:#000000;stroke-width:4;stroke-linecap:round;stroke-linejoin:round;stroke-miterlimit:10;}
</style>
<rect class="st0" width="200" height="200"/>
<path class="st1" d="M134.3,91.5c0.5-5.1,0.5-12.6,0.5-13.2c0-19.2-15.6-34.8-34.8-34.8S65.2,59,65.2,78.3c0,0.6,0.2,7.7,0.6,12.9
	c-4-0.6-7.6,1.9-7.2,5.8c1.8,17.4,11.7,14.5,11.9,14.4c3.6,11.8,9.2,20.8,21.9,27.6v-0.2l0.2,0.2h-0.2c0.3,0.2,0.5,0.4,0.8,0.6l0,0
	c1,0.6,2,1.1,3.1,1.4l0,0c3,1,6.3,0.7,9.1-0.8l0,0h0.1c0.5-0.3,1-0.6,1.5-0.9h0.1l0.8-0.5c12.4-6.9,18.4-16.5,22-28.1
	c0.1,0.1,10.2,1.5,10.6-13.7C140.6,93,137.6,91.2,134.3,91.5z"/>
<path class="st1" d="M173.4,176.1c-13.6-5.7-27.1-11.4-40.7-17c-0.4-0.2-0.8-0.3-1.3-0.5l-0.9-0.4l-0.1-0.1h-0.1l-10.1-4.5l-0.9,4.2
	l0,0l-4.2,20.2l-0.9,5.5c-0.4,1.5-0.7,2.9-1,4.4c0,0.1,0,0.1,0,0.2h-7.9l4-25l-3.3-4.7l3.9-6.1H89.3l4.2,6.1l-3.4,4.7l4.6,25.1h-7.9
	c0,0,0-0.1,0-0.1c-0.3-1.4-0.7-2.9-1-4.3l-1-5.5l-4.2-20.2l0,0l-0.9-4.2l-10.1,4.5h-0.1l-0.1,0.1l-0.9,0.4c-0.5,0.2-0.9,0.3-1.3,0.5
	c-13.6,5.7-27.2,11.3-40.7,17c-6.3,2.6-9,6.9-9,13.6v7.8c0.5,0.1,0.7,0.1,0.9,0.1h126.1h-0.1h37c0.2,0,0.4,0,0.9-0.1v-2.8
	c0-1.7,0-3.3,0-5C182.5,182.9,179.7,178.7,173.4,176.1z"/>
<path class="st2" d="M189.9,85c0-1.8-0.7-2.4-2.3-2.7c-5.1-0.8-10.1-1.7-15.2-2.5c-3.1-0.5-5.2-2-6-5.2c-1.5-5.7-3.8-11.2-6.8-16.3
	c-1.6-2.4-1.4-5.5,0.5-7.7c3-4.1,6-8.4,9-12.5c0.4-0.6,0.7-1.2,1.2-2c-0.4-0.6-0.9-1.2-1.4-1.7c-3.5-3.5-7.1-7-10.6-10.7
	c-1.3-1.3-2.2-1.4-3.7-0.3c-4.2,3.1-8.5,6.2-12.8,9.3c-2,1.7-4.8,1.9-7,0.5c-5.6-3.1-11.5-5.6-17.7-7.2c-2.5-0.6-4.4-2.7-4.6-5.3
	c-0.8-5.3-1.8-10.5-2.6-15.7c-0.3-1.7-1-2.2-2.6-2.2c-5.1,0.1-10.1,0.1-15.2,0c-1.8,0-2.4,0.7-2.7,2.3c-0.8,4.9-1.8,9.8-2.4,14.8
	c-0.5,3.5-2.2,5.5-5.7,6.7c-5.3,1.9-10.5,4.1-15.6,6.5c-3,1.4-5.6,1.5-8.3-0.5c-4.2-3.1-8.5-6.1-12.7-9.1c-0.8-0.8-2-0.8-2.8-0.1
	c-0.1,0.1-0.2,0.2-0.3,0.3c-3.6,3.7-7.3,7.4-11.1,11.1c-1.2,1.2-1.2,2.1-0.2,3.4c3.1,4.2,6,8.5,9.1,12.7c2,2.6,2,5.1,0.6,8.1
	c-2.4,5.2-4.6,10.6-6.5,16c-1.1,3.2-3,4.9-6.3,5.4c-5,0.8-10,1.7-15,2.4c-1.5,0.2-2.3,0.8-2.2,2.5c0.1,5.1,0.1,10.3,0,15.4
	c0,1.7,0.6,2.3,2.2,2.5c5.3,0.8,10.5,1.8,15.7,2.6c2.8,0.3,5,2.3,5.6,5c1.6,5.7,3.9,11.2,6.9,16.3c1.6,2.4,1.4,5.5-0.5,7.7
	c-3.1,4.2-6,8.5-9.1,12.7c-1,1.4-0.9,2.3,0.3,3.5c3.6,3.5,7.2,7.1,10.7,10.8c1.2,1.2,2.1,1.2,3.4,0.2c4.2-3.1,8.5-6,12.7-9.1
	c1.9-1.5,12-3.5,12-3.5c2.3-1,2.5-4.3,0.3-5.5c-26.8-15.2-37.8-49.1-23.8-77.7C60.2,39.1,92.6,26.3,121,37.1
	c31.8,12.1,46.8,48.2,33.4,79.1c-5.1,11.7-13.8,21.5-24.8,27.8c-2.2,1.3-2,4.5,0.3,5.5c0,0,10,1.5,11.9,3.1c4.3,3.1,8.7,6.2,13,9.3
	c0.7,0.8,2,0.8,2.8,0.1c0.1-0.1,0.2-0.2,0.3-0.3c3.6-3.7,7.3-7.4,11-11c1-0.7,1.2-2,0.5-2.9c-0.1-0.1-0.2-0.2-0.3-0.3
	c-3.1-4.2-6-8.5-9.1-12.7c-2-2.6-2-5.1-0.6-8.1c2.5-5.2,4.7-10.6,6.7-16c1.1-3.2,2.9-4.9,6.3-5.4c5.1-0.8,10.1-1.7,15.2-2.4
	c1.2,0,2.2-1,2.2-2.2c0-0.1,0-0.3,0-0.4C189.8,95.1,189.8,90.1,189.9,85z"/>
</svg>
