<svg id="Calque_1" data-name="Calque 1" xmlns="http://www.w3.org/2000/svg" viewBox="0 0 45 45"><defs><style>.cls-1{fill:none;}.cls-2{fill:#a452cb;}</style></defs><title>icone_linkedin_violet</title><rect class="cls-1" width="45" height="45"/><path class="cls-2" d="M25.33,45H15.67V16.17h9.52c.07,1,.16,2,.25,3.33,2.4-2.82,5.13-4.25,8.61-4.18,6.09.13,10.34,4.05,10.76,11,.38,6.12.07,12.31.07,18.64H35.16V42.87c0-4.35,0-8.71,0-13a12.27,12.27,0,0,0-.31-2.69c-.58-2.63-2-3.88-4.32-3.92a5,5,0,0,0-5,3.85,12.12,12.12,0,0,0-.25,2.7C25.32,34.75,25.33,39.76,25.33,45Z" transform="translate(0 0)"/><path class="cls-2" d="M10.34,45H.79c0-.64-.11-1.25-.11-1.86,0-8.35,0-16.71,0-25.08,0-1.65.54-2.11,2.11-2,2.49.11,5,0,7.61,0V45Z" transform="translate(0 0)"/><path class="cls-2" d="M5.53,12.34A5.16,5.16,0,0,1,.08,7.26,5.24,5.24,0,0,1,5.7,2.13a5.21,5.21,0,0,1,5.45,5.1C11.17,10.17,8.77,12.36,5.53,12.34Z" transform="translate(0 0)"/></svg>