<svg id="Calque_1" data-name="Calque 1" xmlns="http://www.w3.org/2000/svg" viewBox="0 0 45 45"><defs><style>.cls-1{fill:none;}.cls-2{fill:#5762c4;}</style></defs><title>icone_facebook_bleu</title><rect class="cls-1" width="45" height="45"/><path class="cls-2" d="M26.11,22.6v4.92c0,5.38,0,10.74,0,16.12,0,1.28-.07,1.34-1.35,1.34-2.36,0-4.73,0-7.08,0-1,0-1.26-.34-1.26-1.27,0-6.65,0-13.32,0-20,0-.93-.21-1.27-1.22-1.19-3.39.2-3.39.16-3.39-3.22,0-1.28,0-2.57,0-3.84,0-.66.26-.9.88-.88.92,0,1.87,0,2.79,0,.77,0,1-.25,1-1,0-2,0-4.09.17-6.1a8,8,0,0,1,8-7.4C27.11.09,29.5.08,31.89,0c.87,0,1.26.24,1.24,1.2-.05,1.86-.05,3.75,0,5.64,0,.84-.28,1.12-1.09,1.08-1.05,0-2.13,0-3.18,0-1.92.06-2.62.73-2.75,2.62-.05,1,0,1.9-.07,2.85s.24,1.18,1.13,1.16c1.6-.05,3.18,0,4.78,0,.82,0,1.11.28,1,1.12-.24,2-.43,4.06-.58,6.09-.06.69-.38.9-1,.9C29.63,22.58,27.94,22.6,26.11,22.6Z" transform="translate(0 0)"/></svg>