<svg id="Calque_1" data-name="Calque 1" xmlns="http://www.w3.org/2000/svg" viewBox="0 0 45.07 45"><defs><style>.cls-1{fill:none;}.cls-2{fill:#a452cb;}</style></defs><title>icone_twitter.violet</title><rect class="cls-1" x="0.04" width="45" height="45"/><path class="cls-2" d="M21.85,15.43a29.41,29.41,0,0,1,.42-4.53A9.31,9.31,0,0,1,37.49,6.48a1.16,1.16,0,0,0,1.29.34c1.67-.61,3.34-1.18,5-1.79a5.76,5.76,0,0,1-1.42,2.58c-.66.78-1.45,1.43-2.15,2.28l4.83-1.3c-.36.47-.68.91-1,1.32a12.34,12.34,0,0,1-1.15,1.26c-.61.57-1.29,1.11-1.9,1.7a1.36,1.36,0,0,0-.42.88A26.82,26.82,0,0,1,33.88,32a24.9,24.9,0,0,1-16.15,8.57A26.79,26.79,0,0,1,.38,37a1.57,1.57,0,0,1-.4-.32,19.28,19.28,0,0,0,13.46-3.9,9.62,9.62,0,0,1-8.68-6.44H8.67l.06-.2c-4.46-1.39-6.92-4.37-7.24-9l3.89,1.1.12-.17c-4-3.39-4.94-7.45-2.7-12.36A27,27,0,0,0,21.85,15.43Z" transform="translate(0.02 0.07)"/></svg>