<svg id="Calque_1" data-name="Calque 1" xmlns="http://www.w3.org/2000/svg" viewBox="0 0 45.5 45"><defs><style>.cls-1{fill:none;}.cls-2{fill:#5762c4;}</style></defs><title>icone_linkedin_bleu</title><rect class="cls-1" x="0.5" width="45" height="45"/><path class="cls-2" d="M25.08,45H15.3V16.17h9.63c.08,1,.17,2,.26,3.33a10.69,10.69,0,0,1,8.72-4.18c6.17.13,10.47,4.05,10.9,11,.38,6.12.07,12.31.07,18.64H35V42.87c0-4.35,0-8.71,0-13a11.7,11.7,0,0,0-.32-2.69c-.59-2.63-2-3.88-4.37-3.92a5,5,0,0,0-5,3.85,11.56,11.56,0,0,0-.26,2.7C25.06,34.75,25.08,39.76,25.08,45Z" transform="translate(0.5 0)"/><path class="cls-2" d="M9.9,45H.23c0-.64-.12-1.25-.12-1.86,0-8.35,0-16.71,0-25.08,0-1.65.53-2.11,2.13-2,2.52.11,5.06,0,7.71,0V45Z" transform="translate(0.5 0)"/><path class="cls-2" d="M5,12.34c-3.17,0-5.51-2.17-5.53-5.08S2,2.09,5.19,2.13a5.25,5.25,0,0,1,5.53,5.1C10.74,10.17,8.31,12.36,5,12.34Z" transform="translate(0.5 0)"/></svg>